{
.appVersion = "1206";
copyright = "Copyright © 2019 by Noir Blanc Rouge. All rights reserved.";
customParameters = (
{
name = panose;
value = (
0,
0,
9,
0,
0,
0,
0,
0,
0,
0
);
},
{
name = unicodeRanges;
value = (
0,
1
);
},
{
name = codePageRanges;
value = (
1252
);
},
{
name = blueScale;
value = 0.037;
},
{
name = glyphOrder;
value = (
.notdef,
A,
Aacute,
Acircumflex,
Adieresis,
Agrave,
Aring,
Atilde,
AE,
B,
C,
Ccedilla,
D,
Eth,
E,
Eacute,
Ecircumflex,
Edieresis,
Egrave,
F,
G,
H,
I,
Iacute,
Icircumflex,
Idieresis,
Igrave,
J,
K,
L,
Lslash,
M,
N,
Ntilde,
O,
Oacute,
Ocircumflex,
Odieresis,
Ograve,
Oslash,
Otilde,
OE,
P,
Thorn,
Q,
R,
S,
Scaron,
T,
U,
Uacute,
Ucircumflex,
Udieresis,
Ugrave,
V,
W,
X,
Y,
Yacute,
Ydieresis,
Z,
Zcaron,
a,
aacute,
acircumflex,
adieresis,
agrave,
aring,
atilde,
ae,
b,
c,
ccedilla,
d,
eth,
e,
eacute,
ecircumflex,
edieresis,
egrave,
f,
g,
h,
i,
dotlessi,
iacute,
icircumflex,
idieresis,
igrave,
j,
k,
l,
lslash,
m,
n,
ntilde,
o,
oacute,
ocircumflex,
odieresis,
ograve,
oslash,
otilde,
oe,
p,
thorn,
q,
r,
s,
scaron,
germandbls,
t,
u,
uacute,
ucircumflex,
udieresis,
ugrave,
v,
w,
x,
y,
yacute,
ydieresis,
z,
zcaron,
fi,
fl,
ordfeminine,
ordmasculine,
Delta,
Omega,
mu,
pi,
zero,
one,
two,
three,
four,
five,
six,
seven,
eight,
nine,
fraction,
onehalf,
onequarter,
threequarters,
onesuperior,
twosuperior,
threesuperior,
asterisk,
backslash,
periodcentered,
bullet,
colon,
comma,
ellipsis,
exclam,
exclamdown,
numbersign,
period,
question,
questiondown,
quotedbl,
quotesingle,
semicolon,
slash,
underscore,
braceleft,
braceright,
bracketleft,
bracketright,
parenleft,
parenright,
emdash,
endash,
hyphen,
softhyphen,
guillemotleft,
guillemotright,
guilsinglleft,
guilsinglright,
quotedblbase,
quotedblleft,
quotedblright,
quoteleft,
quoteright,
quotesinglbase,
space,
cent,
currency,
dollar,
Euro,
florin,
sterling,
yen,
approxequal,
asciitilde,
divide,
equal,
greater,
greaterequal,
infinity,
integral,
less,
lessequal,
logicalnot,
minus,
multiply,
notequal,

glyphs = (
{
glyphname = .notdef;
layers = (
{
hints = (
{
horizontal = 1;
place = "{0, 50}";
type = Stem;
},
{
horizontal = 1;
place = "{650, 50}";
type = Stem;
},
{
place = "{0, 50}";
type = Stem;
},
{
place = "{450, 50}";
type = Stem;
}
);
layerId = "6DD95C5A-998B-41AB-BDFB-84A73C209871";
paths = (
{
closed = 1;
nodes = (
"0 0 LINE",
"500 0 LINE",
"500 700 LINE",
"0 700 LINE"
);
},
{
closed = 1;
nodes = (
"250 395 LINE",
"80 650 LINE",
"420 650 LINE"
);
},
{
closed = 1;
nodes = (
"280 350 LINE",
"450 605 LINE",
"450 95 LINE"
);
},
{
closed = 1;
nodes = (
"80 50 LINE",
"250 305 LINE",
"420 50 LINE"
);
},
{
closed = 1;
nodes = (
"50 605 LINE",
"220 350 LINE",
"50 95 LINE"
);
}
);
width = 500;
}
);
note = .notdef;
},
{
glyphname = A;
layers = (
{
hints = (
{
horizontal = 1;
place = "{177, 111}";
type = Stem;
},
{
place = "{40, 732.92}";
type = Stem;
}
);
layerId = "6DD95C5A-998B-41AB-BDFB-84A73C209871";
paths = (
{
closed = 1;
nodes = (
"202 0 LINE",
"274.55 177 LINE",
"538.37 177 LINE",
"610.92 0 LINE",
"772.92 0 LINE",
"488.92 700 LINE",
"324 700 LINE",
"40 0 LINE"
);
},
{
closed = 1;
nodes = (
"320.04 288 LINE",
"406.46 498.82 LINE",
"492.87 288 LINE"
);
}
);
width = 813;
}
);
leftKerningGroup = A;
note = A;
rightKerningGroup = A;
unicode = 0041;
},
{
glyphname = Aacute;
layers = (
{
hints = (
{
horizontal = 1;
place = "{177, 111}";
type = Stem;
},
{
place = "{40, 732.92}";
type = Stem;
}
);
layerId = "6DD95C5A-998B-41AB-BDFB-84A73C209871";
paths = (
{
closed = 1;
nodes = (
"488.92 976 LINE",
"275.92 777 LINE",
"393.92 741 LINE",
"565.92 848 LINE"
);
},
{
closed = 1;
nodes = (
"202 0 LINE",
"274.55 177 LINE",
"538.37 177 LINE",
"610.92 0 LINE",
"772.92 0 LINE",
"488.92 700 LINE",
"324 700 LINE",
"40 0 LINE"
);
},
{
closed = 1;
nodes = (
"320.04 288 LINE",
"406.46 498.82 LINE",
"492.87 288 LINE"
);
}
);
width = 813;
}
);
leftKerningGroup = A;
note = Aacute;
rightKerningGroup = A;
unicode = 00C1;
},
{
glyphname = Acircumflex;
layers = (
{
hints = (
{
horizontal = 1;
place = "{177, 111}";
type = Stem;
},
{
place = "{40, 732.92}";
type = Stem;
}
);
layerId = "6DD95C5A-998B-41AB-BDFB-84A73C209871";
paths = (
{
closed = 1;
nodes = (
"159 785 LINE",
"281 747 LINE",
"373 833.42 LINE",
"465 747 LINE",
"587 785 LINE",
"388.54 959.46 LINE",
"374 974 LINE",
"373 973.12 LINE",
"372 974 LINE",
"357.46 959.46 LINE"
);
},
{
closed = 1;
nodes = (
"202 0 LINE",
"274.55 177 LINE",
"538.37 177 LINE",
"610.92 0 LINE",
"772.92 0 LINE",
"488.92 700 LINE",
"324 700 LINE",
"40 0 LINE"
);
},
{
closed = 1;
nodes = (
"320.04 288 LINE",
"406.46 498.82 LINE",
"492.87 288 LINE"
);
}
);
width = 813;
}
);
leftKerningGroup = A;
note = Acircumflex;
rightKerningGroup = A;
unicode = 00C2;
},
{
glyphname = Adieresis;
layers = (
{
hints = (
{
horizontal = 1;
place = "{177, 111}";
type = Stem;
},
{
horizontal = 1;
place = "{761, 124}";
type = Stem;
},
{
place = "{221.92, 154}";
type = Stem;
},
{
place = "{469.92, 154}";
type = Stem;
}
);
layerId = "6DD95C5A-998B-41AB-BDFB-84A73C209871";
paths = (
{
closed = 1;
nodes = (
"375.92 761 LINE",
"375.92 885 LINE",
"221.92 885 LINE",
"221.92 761 LINE"
);
},
{
closed = 1;
nodes = (
"623.92 761 LINE",
"623.92 885 LINE",
"469.92 885 LINE",
"469.92 761 LINE"
);
},
{
closed = 1;
nodes = (
"202 0 LINE",
"274.55 177 LINE",
"538.37 177 LINE",
"610.92 0 LINE",
"772.92 0 LINE",
"488.92 700 LINE",
"324 700 LINE",
"40 0 LINE"
);
},
{
closed = 1;
nodes = (
"320.04 288 LINE",
"406.46 498.82 LINE",
"492.87 288 LINE"
);
}
);
width = 813;
}
);
leftKerningGroup = A;
note = Adieresis;
rightKerningGroup = A;
unicode = 00C4;
},
{
glyphname = Agrave;
layers = (
{
hints = (
{
horizontal = 1;
place = "{177, 111}";
type = Stem;
},
{
place = "{40, 732.92}";
type = Stem;
}
);
layerId = "6DD95C5A-998B-41AB-BDFB-84A73C209871";
paths = (
{
closed = 1;
nodes = (
"352.92 976 LINE",
"275.92 848 LINE",
"447.92 741 LINE",
"565.92 777 LINE"
);
},
{
closed = 1;
nodes = (
"202 0 LINE",
"274.55 177 LINE",
"538.37 177 LINE",
"610.92 0 LINE",
"772.92 0 LINE",
"488.92 700 LINE",
"324 700 LINE",
"40 0 LINE"
);
},
{
closed = 1;
nodes = (
"320.04 288 LINE",
"406.46 498.82 LINE",
"492.87 288 LINE"
);
}
);
width = 813;
}
);
leftKerningGroup = A;
note = Agrave;
rightKerningGroup = A;
unicode = 00C0;
},
{
glyphname = Aring;
layers = (
{
hints = (
{
horizontal = 1;
place = "{177, 111}";
type = Stem;
},
{
horizontal = 1;
place = "{725, 90}";
type = Stem;
},
{
horizontal = 1;
place = "{921, 90}";
type = Stem;
},
{
place = "{229, 90}";
type = Stem;
},
{
place = "{425, 90}";
type = Stem;
}
);
layerId = "6DD95C5A-998B-41AB-BDFB-84A73C209871";
paths = (
{
closed = 1;
nodes = (
"449 725 OFFCURVE",
"515 791 OFFCURVE",
"515 868 CURVE SMOOTH",
"515 945 OFFCURVE",
"449 1011 OFFCURVE",
"372 1011 CURVE SMOOTH",
"295 1011 OFFCURVE",
"229 945 OFFCURVE",
"229 868 CURVE SMOOTH",
"229 791 OFFCURVE",
"295 725 OFFCURVE",
"372 725 CURVE SMOOTH"
);
},
{
closed = 1;
nodes = (
"342 815 OFFCURVE",
"319 838 OFFCURVE",
"319 868 CURVE SMOOTH",
"319 898 OFFCURVE",
"342 921 OFFCURVE",
"372 921 CURVE SMOOTH",
"402 921 OFFCURVE",
"425 898 OFFCURVE",
"425 868 CURVE SMOOTH",
"425 838 OFFCURVE",
"402 815 OFFCURVE",
"372 815 CURVE SMOOTH"
);
},
{
closed = 1;
nodes = (
"202 0 LINE",
"274.55 177 LINE",
"538.37 177 LINE",
"610.92 0 LINE",
"772.92 0 LINE",
"488.92 700 LINE",
"324 700 LINE",
"40 0 LINE"
);
},
{
closed = 1;
nodes = (
"320.04 288 LINE",
"406.46 498.82 LINE",
"492.87 288 LINE"
);
}
);
width = 813;
}
);
leftKerningGroup = A;
note = Aring;
rightKerningGroup = A;
unicode = 00C5;
},
{
glyphname = Atilde;
layers = (
{
hints = (
{
horizontal = 1;
place = "{177, 111}";
type = Stem;
},
{
horizontal = 1;
place = "{772.99, 170}";
type = Stem;
},
{
place = "{178.86, 96.83}";
type = Stem;
},
{
place = "{459.86, 100.3}";
type = Stem;
}
);
layerId = "6DD95C5A-998B-41AB-BDFB-84A73C209871";
paths = (
{
closed = 1;
nodes = (
"402 943 LINE",
"444.74 918.57 OFFCURVE",
"459.86 886.33 OFFCURVE",
"459.86 868.11 CURVE SMOOTH",
"459.86 859.48 OFFCURVE",
"456.46 854 OFFCURVE",
"451 854 CURVE SMOOTH",
"428 854 OFFCURVE",
"407 883 OFFCURVE",
"383 900 CURVE SMOOTH",
"339 931 OFFCURVE",
"316 943 OFFCURVE",
"274 943 CURVE SMOOTH",
"209.28 943 OFFCURVE",
"178.86 902.37 OFFCURVE",
"178.86 856.84 CURVE SMOOTH",
"178.86 827.79 OFFCURVE",
"191.24 796.75 OFFCURVE",
"215 772.99 CURVE",
"334 772.99 LINE",
"291.28 797.4 OFFCURVE",
"275.69 829.63 OFFCURVE",
"275.69 847.85 CURVE SMOOTH",
"275.69 856.5 OFFCURVE",
"279.2 861.99 OFFCURVE",
"285 861.99 CURVE SMOOTH",
"309 861.99 OFFCURVE",
"330 832.99 OFFCURVE",
"370 804.99 CURVE SMOOTH",
"394 786.99 OFFCURVE",
"425 772.99 OFFCURVE",
"462 772.99 CURVE SMOOTH",
"524.86 772.99 OFFCURVE",
"560.16 819.56 OFFCURVE",
"560.16 866.08 CURVE SMOOTH",
"560.16 895.78 OFFCURVE",
"545.78 925.46 OFFCURVE",
"515 943 CURVE"
);
},
{
closed = 1;
nodes = (
"202 0 LINE",
"274.55 177 LINE",
"538.37 177 LINE",
"610.92 0 LINE",
"772.92 0 LINE",
"488.92 700 LINE",
"324 700 LINE",
"40 0 LINE"
);
},
{
closed = 1;
nodes = (
"320.04 288 LINE",
"406.46 498.82 LINE",
"492.87 288 LINE"
);
}
);
width = 813;
}
);
leftKerningGroup = A;
note = Atilde;
rightKerningGroup = A;
unicode = 00C3;
},
{
glyphname = AE;
layers = (
{
hints = (
{
horizontal = 1;
place = "{0, 124}";
type = Stem;
},
{
horizontal = 1;
place = "{296, 124}";
type = Stem;
},
{
horizontal = 1;
place = "{576, 124}";
type = Stem;
},
{
place = "{487, 154}";
type = Stem;
},
{
horizontal = 1;
place = "{175, 111}";
type = Stem;
}
);
layerId = "6DD95C5A-998B-41AB-BDFB-84A73C209871";
paths = (
{
closed = 1;
nodes = (
"1066 0 LINE",
"1066 124 LINE",
"641 124 LINE",
"641 296 LINE",
"1046 296 LINE",
"1046 420 LINE",
"641 420 LINE",
"641 576 LINE",
"1056 576 LINE",
"1056 700 LINE",
"406 700 LINE",
"8 0 LINE",
"181 0 LINE",
"280 175 LINE",
"487 175 LINE",
"487 0 LINE"
);
},
{
closed = 1;
nodes = (
"487 540.77 LINE",
"487 286 LINE",
"343 286 LINE"
);
}
);
width = 1070;
}
);
note = AE;
rightKerningGroup = AE;
unicode = 00C6;
},
{
glyphname = B;
layers = (
{
hints = (
{
horizontal = 1;
place = "{0, 115}";
type = Stem;
},
{
horizontal = 1;
place = "{352, 86}";
type = Stem;
},
{
horizontal = 1;
place = "{585, 115}";
type = Stem;
},
{
place = "{49.99, 153}";
type = Stem;
},
{
place = "{446, 153.99}";
type = Stem;
},
{
place = "{344.99, 143}";
type = Stem;
}
);
layerId = "6DD95C5A-998B-41AB-BDFB-84A73C209871";
paths = (
{
closed = 1;
nodes = (
"472.41 447.79 OFFCURVE",
"487.99 485.07 OFFCURVE",
"487.99 528 CURVE SMOOTH",
"487.99 657 OFFCURVE",
"372.99 700 OFFCURVE",
"259.99 700 CURVE SMOOTH",
"49.99 700 LINE",
"49.99 0 LINE",
"314.99 0 LINE SMOOTH",
"474.99 0 OFFCURVE",
"599.99 77 OFFCURVE",
"599.99 225 CURVE SMOOTH",
"599.99 339.38 OFFCURVE",
"533.02 393.99 OFFCURVE",
"444.84 418.73 CURVE"
);
},
{
closed = 1;
nodes = (
"202.99 438 LINE",
"202.99 585 LINE",
"259.99 585 LINE SMOOTH",
"310.99 585 OFFCURVE",
"344.99 564 OFFCURVE",
"344.99 508 CURVE SMOOTH",
"344.99 462 OFFCURVE",
"310.99 438 OFFCURVE",
"256.99 438 CURVE SMOOTH"
);
},
{
closed = 1;
nodes = (
"202.99 115 LINE",
"202.99 351.76 LINE",
"294.58 352 LINE SMOOTH",
"394.57 352 OFFCURVE",
"446 315.59 OFFCURVE",
"446 225 CURVE SMOOTH",
"446 144 OFFCURVE",
"387.26 115 OFFCURVE",
"297.26 115 CURVE SMOOTH"
);
}
);
width = 630;
}
);
leftKerningGroup = B;
note = B;
rightKerningGroup = B;
unicode = 0042;
},
{
glyphname = C;
layers = (
{
hints = (
{
horizontal = 1;
place = "{-5, 115}";
type = Stem;
},
{
horizontal = 1;
place = "{590, 115}";
type = Stem;
},
{
place = "{50, 164}";
type = Stem;
}
);
layerId = "6DD95C5A-998B-41AB-BDFB-84A73C209871";
paths = (
{
closed = 1;
nodes = (
"194 705 OFFCURVE",
"50 538 OFFCURVE",
"50 348 CURVE SMOOTH",
"50 160 OFFCURVE",
"196 -5 OFFCURVE",
"414 -5 CURVE SMOOTH",
"554 -5 OFFCURVE",
"669 61 OFFCURVE",
"723 151 CURVE",
"587 217 LINE",
"545 142 OFFCURVE",
"487 110 OFFCURVE",
"414 110 CURVE SMOOTH",
"299 110 OFFCURVE",
"214 206 OFFCURVE",
"214 348 CURVE SMOOTH",
"214 492 OFFCURVE",
"300 590 OFFCURVE",
"414 590 CURVE SMOOTH",
"489 590 OFFCURVE",
"548 556 OFFCURVE",
"590 477 CURVE",
"725 545 LINE",
"670 637 OFFCURVE",
"555 705 OFFCURVE",
"414 705 CURVE SMOOTH"
);
}
);
width = 745;
}
);
leftKerningGroup = C;
note = C;
rightKerningGroup = C;
unicode = 0043;
},
{
glyphname = Ccedilla;
layers = (
{
hints = (
{
horizontal = 1;
place = "{-206, 63}";
type = Stem;
},
{
horizontal = 1;
place = "{-102.01, 75}";
type = Stem;
},
{
horizontal = 1;
place = "{-5.02, 115}";
type = Stem;
},
{
horizontal = 1;
place = "{590, 115}";
type = Stem;
},
{
place = "{50, 164}";
type = Stem;
},
{
place = "{438.84, 78.15}";
type = Stem;
}
);
layerId = "6DD95C5A-998B-41AB-BDFB-84A73C209871";
paths = (
{
closed = 1;
nodes = (
"299 110 OFFCURVE",
"214 206 OFFCURVE",
"214 348 CURVE SMOOTH",
"214 492 OFFCURVE",
"300 590 OFFCURVE",
"414 590 CURVE SMOOTH",
"489 590 OFFCURVE",
"548 556 OFFCURVE",
"590 477 CURVE",
"725 545 LINE",
"670 637 OFFCURVE",
"555 705 OFFCURVE",
"414 705 CURVE SMOOTH",
"194 705 OFFCURVE",
"50 538 OFFCURVE",
"50 348 CURVE SMOOTH",
"50 178.62 OFFCURVE",
"168.51 27.91 OFFCURVE",
"351.41 -0.29 CURVE",
"305 -102.01 LINE",
"396 -102.01 LINE",
"400 -95.01 OFFCURVE",
"409 -87.01 OFFCURVE",
"421 -87.01 CURVE SMOOTH",
"429.55 -87.01 OFFCURVE",
"438.84 -91.4 OFFCURVE",
"438.84 -104.56 CURVE SMOOTH",
"438.84 -106.79 OFFCURVE",
"438.57 -109.26 OFFCURVE",
"437.99 -112.01 CURVE SMOOTH",
"433.99 -131.01 OFFCURVE",
"407.99 -143.01 OFFCURVE",
"376.99 -143.01 CURVE SMOOTH",
"340.99 -143.01 OFFCURVE",
"304.99 -129.01 OFFCURVE",
"292.99 -119.01 CURVE",
"292.99 -188.01 LINE",
"309.99 -200.01 OFFCURVE",
"338.99 -206.01 OFFCURVE",
"370.99 -206.01 CURVE SMOOTH",
"424.99 -206.01 OFFCURVE",
"499.99 -185.01 OFFCURVE",
"514.99 -115.01 CURVE SMOOTH",
"516.35 -108.23 OFFCURVE",
"516.99 -101.86 OFFCURVE",
"516.99 -95.9 CURVE SMOOTH",
"516.99 -49.04 OFFCURVE",
"477.46 -27.01 OFFCURVE",
"433.99 -27.01 CURVE SMOOTH",
"415.99 -27.01 OFFCURVE",
"394.99 -34.01 OFFCURVE",
"386.99 -39.01 CURVE",
"410.8 -5 LINE",
"411.86 -5.01 OFFCURVE",
"412.93 -5.02 OFFCURVE",
"413.99 -5.02 CURVE SMOOTH",
"553.99 -5.02 OFFCURVE",
"668.99 60.98 OFFCURVE",
"722.99 150.98 CURVE",
"586.99 216.98 LINE",
"544.99 141.98 OFFCURVE",
"486.99 109.98 OFFCURVE",
"413.99 109.98 CURVE SMOOTH"
);
}
);
width = 745;
}
);
leftKerningGroup = C;
note = Ccedilla;
rightKerningGroup = C;
unicode = 00C7;
},
{
glyphname = D;
layers = (
{
hints = (
{
horizontal = 1;
place = "{0, 115}";
type = Stem;
},
{
horizontal = 1;
place = "{585, 115}";
type = Stem;
},
{
place = "{50, 153.79}";
type = Stem;
},
{
place = "{496, 159}";
type = Stem;
}
);
layerId = "6DD95C5A-998B-41AB-BDFB-84A73C209871";
paths = (
{
closed = 1;
nodes = (
"50 700 LINE",
"50 0 LINE",
"275 0 LINE SMOOTH",
"496 0 OFFCURVE",
"655 109 OFFCURVE",
"655 351 CURVE SMOOTH",
"655 599 OFFCURVE",
"474 700 OFFCURVE",
"260 700 CURVE SMOOTH"
);
},
{
closed = 1;
nodes = (
"203.65 115 LINE",
"203.93 585 LINE",
"260 585 LINE SMOOTH",
"401.49 585 OFFCURVE",
"496 528 OFFCURVE",
"496 351 CURVE SMOOTH",
"496 176 OFFCURVE",
"423 115 OFFCURVE",
"275 115 CURVE SMOOTH"
);
}
);
width = 690;
}
);
leftKerningGroup = B;
note = D;
rightKerningGroup = D;
unicode = 0044;
},
{
glyphname = Eth;
layers = (
{
hints = (
{
horizontal = 1;
place = "{0, 115}";
type = Stem;
},
{
horizontal = 1;
place = "{250, 116}";
type = Stem;
},
{
horizontal = 1;
place = "{585, 115}";
type = Stem;
},
{
place = "{186, 153.86}";
type = Stem;
},
{
place = "{632, 159}";
type = Stem;
}
);
layerId = "6DD95C5A-998B-41AB-BDFB-84A73C209871";
paths = (
{
closed = 1;
nodes = (
"186 700 LINE",
"186 366 LINE",
"59 366 LINE",
"59 250 LINE",
"186 250 LINE",
"186 0 LINE",
"411 0 LINE SMOOTH",
"632 0 OFFCURVE",
"791 109 OFFCURVE",
"791 351 CURVE SMOOTH",
"791 599 OFFCURVE",
"610 700 OFFCURVE",
"396 700 CURVE SMOOTH"
);
},
{
closed = 1;
nodes = (
"339.65 115 LINE",
"339.73 250 LINE",
"518 250 LINE",
"518 366 LINE",
"339.8 366 LINE",
"339.93 585 LINE",
"396 585 LINE SMOOTH",
"537.49 585 OFFCURVE",
"632 528 OFFCURVE",
"632 351 CURVE SMOOTH",
"632 176 OFFCURVE",
"559 115 OFFCURVE",
"411 115 CURVE SMOOTH"
);
}
);
width = 806;
}
);
leftKerningGroup = Eth;
note = Eth;
rightKerningGroup = D;
unicode = 00D0;
},
{
glyphname = E;
layers = (
{
hints = (
{
horizontal = 1;
place = "{0, 124}";
type = Stem;
},
{
horizontal = 1;
place = "{296, 124}";
type = Stem;
},
{
horizontal = 1;
place = "{576, 124}";
type = Stem;
},
{
place = "{50, 154}";
type = Stem;
}
);
layerId = "6DD95C5A-998B-41AB-BDFB-84A73C209871";
paths = (
{
closed = 1;
nodes = (
"50 0 LINE",
"629 0 LINE",
"629 124 LINE",
"204 124 LINE",
"204 296 LINE",
"609 296 LINE",
"609 420 LINE",
"204 420 LINE",
"204 576 LINE",
"619 576 LINE",
"619 700 LINE",
"50 700 LINE"
);
}
);
width = 669;
}
);
leftKerningGroup = B;
note = E;
rightKerningGroup = AE;
unicode = 0045;
},
{
glyphname = Eacute;
layers = (
{
hints = (
{
horizontal = 1;
place = "{0, 124}";
type = Stem;
},
{
horizontal = 1;
place = "{296, 124}";
type = Stem;
},
{
horizontal = 1;
place = "{576, 124}";
type = Stem;
},
{
place = "{50, 154}";
type = Stem;
}
);
layerId = "6DD95C5A-998B-41AB-BDFB-84A73C209871";
paths = (
{
closed = 1;
nodes = (
"400 976 LINE",
"187 777 LINE",
"305 741 LINE",
"477 848 LINE"
);
},
{
closed = 1;
nodes = (
"50 0 LINE",
"629 0 LINE",
"629 124 LINE",
"204 124 LINE",
"204 296 LINE",
"609 296 LINE",
"609 420 LINE",
"204 420 LINE",
"204 576 LINE",
"619 576 LINE",
"619 700 LINE",
"50 700 LINE"
);
}
);
width = 669;
}
);
note = Eacute;
rightKerningGroup = AE;
unicode = 00C9;
},
{
glyphname = Ecircumflex;
layers = (
{
hints = (
{
horizontal = 1;
place = "{0, 124}";
type = Stem;
},
{
horizontal = 1;
place = "{296, 124}";
type = Stem;
},
{
horizontal = 1;
place = "{576, 124}";
type = Stem;
},
{
place = "{50, 154}";
type = Stem;
}
);
layerId = "6DD95C5A-998B-41AB-BDFB-84A73C209871";
paths = (
{
closed = 1;
nodes = (
"104 785 LINE",
"226 747 LINE",
"318 833.42 LINE",
"410 747 LINE",
"532 785 LINE",
"333.54 959.46 LINE",
"319 974 LINE",
"318 973.12 LINE",
"317 974 LINE",
"302.46 959.46 LINE"
);
},
{
closed = 1;
nodes = (
"50 0 LINE",
"629 0 LINE",
"629 124 LINE",
"204 124 LINE",
"204 296 LINE",
"609 296 LINE",
"609 420 LINE",
"204 420 LINE",
"204 576 LINE",
"619 576 LINE",
"619 700 LINE",
"50 700 LINE"
);
}
);
width = 669;
}
);
note = Ecircumflex;
rightKerningGroup = AE;
unicode = 00CA;
},
{
glyphname = Edieresis;
layers = (
{
hints = (
{
horizontal = 1;
place = "{0, 124}";
type = Stem;
},
{
horizontal = 1;
place = "{296, 124}";
type = Stem;
},
{
horizontal = 1;
place = "{576, 124}";
type = Stem;
},
{
horizontal = 1;
place = "{761, 124}";
type = Stem;
},
{
place = "{133, 154}";
type = Stem;
},
{
place = "{381, 154}";
type = Stem;
},
{
place = "{50, 154}";
type = Stem;
}
);
layerId = "6DD95C5A-998B-41AB-BDFB-84A73C209871";
paths = (
{
closed = 1;
nodes = (
"287 761 LINE",
"287 885 LINE",
"133 885 LINE",
"133 761 LINE"
);
},
{
closed = 1;
nodes = (
"535 761 LINE",
"535 885 LINE",
"381 885 LINE",
"381 761 LINE"
);
},
{
closed = 1;
nodes = (
"50 0 LINE",
"629 0 LINE",
"629 124 LINE",
"204 124 LINE",
"204 296 LINE",
"609 296 LINE",
"609 420 LINE",
"204 420 LINE",
"204 576 LINE",
"619 576 LINE",
"619 700 LINE",
"50 700 LINE"
);
}
);
width = 669;
}
);
note = Edieresis;
rightKerningGroup = AE;
unicode = 00CB;
},
{
glyphname = Egrave;
layers = (
{
hints = (
{
horizontal = 1;
place = "{0, 124}";
type = Stem;
},
{
horizontal = 1;
place = "{296, 124}";
type = Stem;
},
{
horizontal = 1;
place = "{576, 124}";
type = Stem;
},
{
place = "{50, 154}";
type = Stem;
}
);
layerId = "6DD95C5A-998B-41AB-BDFB-84A73C209871";
paths = (
{
closed = 1;
nodes = (
"264 976 LINE",
"187 848 LINE",
"359 741 LINE",
"477 777 LINE"
);
},
{
closed = 1;
nodes = (
"50 0 LINE",
"629 0 LINE",
"629 124 LINE",
"204 124 LINE",
"204 296 LINE",
"609 296 LINE",
"609 420 LINE",
"204 420 LINE",
"204 576 LINE",
"619 576 LINE",
"619 700 LINE",
"50 700 LINE"
);
}
);
width = 669;
}
);
note = Egrave;
rightKerningGroup = AE;
unicode = 00C8;
},
{
glyphname = F;
layers = (
{
hints = (
{
horizontal = 1;
place = "{296, 124}";
type = Stem;
},
{
horizontal = 1;
place = "{576, 124}";
type = Stem;
},
{
place = "{60, 154}";
type = Stem;
}
);
layerId = "6DD95C5A-998B-41AB-BDFB-84A73C209871";
paths = (
{
closed = 1;
nodes = (
"619 296 LINE",
"619 420 LINE",
"214 420 LINE",
"214 576 LINE",
"629 576 LINE",
"629 700 LINE",
"60 700 LINE",
"60 0 LINE",
"214 0 LINE",
"214 296 LINE"
);
}
);
width = 669;
}
);
leftKerningGroup = B;
note = F;
rightKerningGroup = F;
unicode = 0046;
},
{
glyphname = G;
layers = (
{
hints = (
{
horizontal = 1;
place = "{-5, 115}";
type = Stem;
},
{
horizontal = 1;
place = "{296, 115}";
type = Stem;
},
{
horizontal = 1;
place = "{590, 115}";
type = Stem;
},
{
place = "{50, 163}";
type = Stem;
},
{
place = "{602, 144}";
type = Stem;
}
);
layerId = "6DD95C5A-998B-41AB-BDFB-84A73C209871";
paths = (
{
closed = 1;
nodes = (
"602 0 LINE",
"746 0 LINE",
"746 411 LINE",
"380 411 LINE",
"380 296 LINE",
"593 296 LINE",
"593 293 LINE SMOOTH",
"592 198 OFFCURVE",
"546 110 OFFCURVE",
"416 110 CURVE SMOOTH",
"287 110 OFFCURVE",
"213 205 OFFCURVE",
"213 348 CURVE SMOOTH",
"213 492 OFFCURVE",
"302 590 OFFCURVE",
"416 590 CURVE SMOOTH",
"491 590 OFFCURVE",
"547 556 OFFCURVE",
"589 477 CURVE",
"724 545 LINE",
"669 637 OFFCURVE",
"558 705 OFFCURVE",
"416 705 CURVE SMOOTH",
"197 705 OFFCURVE",
"50 538 OFFCURVE",
"50 348 CURVE SMOOTH",
"50 160 OFFCURVE",
"177 -5 OFFCURVE",
"411 -5 CURVE SMOOTH",
"532 -5 OFFCURVE",
"602 76 OFFCURVE",
"602 163 CURVE"
);
}
);
width = 806;
}
);
leftKerningGroup = C;
note = G;
rightKerningGroup = G;
unicode = 0047;
},
{
glyphname = H;
layers = (
{
hints = (
{
horizontal = 1;
place = "{304, 125}";
type = Stem;
},
{
place = "{50, 154}";
type = Stem;
},
{
place = "{529, 154}";
type = Stem;
}
);
layerId = "6DD95C5A-998B-41AB-BDFB-84A73C209871";
paths = (
{
closed = 1;
nodes = (
"529 304 LINE",
"529 0 LINE",
"683 0 LINE",
"683 700 LINE",
"529 700 LINE",
"529 429 LINE",
"204 429 LINE",
"204 700 LINE",
"50 700 LINE",
"50 0 LINE",
"204 0 LINE",
"204 304 LINE"
);
}
);
width = 733;
}
);
leftKerningGroup = B;
note = H;
rightKerningGroup = H;
unicode = 0048;
},
{
glyphname = I;
layers = (
{
hints = (
{
horizontal = 1;
place = "{0, 700}";
type = Stem;
},
{
place = "{70, 154}";
type = Stem;
}
);
layerId = "6DD95C5A-998B-41AB-BDFB-84A73C209871";
paths = (
{
closed = 1;
nodes = (
"224 0 LINE",
"224 700 LINE",
"70 700 LINE",
"70 0 LINE"
);
}
);
width = 294;
}
);
leftKerningGroup = I;
note = I;
rightKerningGroup = I;
unicode = 0049;
},
{
glyphname = Iacute;
layers = (
{
hints = (
{
horizontal = 1;
place = "{0, 976}";
type = Stem;
},
{
place = "{70, 154}";
type = Stem;
}
);
layerId = "6DD95C5A-998B-41AB-BDFB-84A73C209871";
paths = (
{
closed = 1;
nodes = (
"213 976 LINE",
"0 777 LINE",
"118 741 LINE",
"290 848 LINE"
);
},
{
closed = 1;
nodes = (
"224 0 LINE",
"224 700 LINE",
"70 700 LINE",
"70 0 LINE"
);
}
);
width = 294;
}
);
leftKerningGroup = I;
note = Iacute;
rightKerningGroup = I;
unicode = 00CD;
},
{
glyphname = Icircumflex;
layers = (
{
hints = (
{
horizontal = 1;
place = "{0, 974}";
type = Stem;
},
{
place = "{70, 154}";
type = Stem;
}
);
layerId = "6DD95C5A-998B-41AB-BDFB-84A73C209871";
paths = (
{
closed = 1;
nodes = (
"-109 785 LINE",
"13 747 LINE",
"105 833.42 LINE",
"197 747 LINE",
"319 785 LINE",
"120.54 959.46 LINE",
"106 974 LINE",
"105 973.12 LINE",
"104 974 LINE",
"89.46 959.46 LINE"
);
},
{
closed = 1;
nodes = (
"224 0 LINE",
"224 700 LINE",
"70 700 LINE",
"70 0 LINE"
);
}
);
width = 294;
}
);
leftKerningGroup = I;
note = Icircumflex;
rightKerningGroup = I;
unicode = 00CE;
},
{
glyphname = Idieresis;
layers = (
{
hints = (
{
horizontal = 1;
place = "{761, 124}";
type = Stem;
},
{
place = "{70, 154}";
type = Stem;
},
{
place = "{-54, 154}";
type = Stem;
},
{
place = "{194, 154}";
type = Stem;
}
);
layerId = "6DD95C5A-998B-41AB-BDFB-84A73C209871";
paths = (
{
closed = 1;
nodes = (
"100 761 LINE",
"100 885 LINE",
"-54 885 LINE",
"-54 761 LINE"
);
},
{
closed = 1;
nodes = (
"348 761 LINE",
"348 885 LINE",
"194 885 LINE",
"194 761 LINE"
);
},
{
closed = 1;
nodes = (
"224 0 LINE",
"224 700 LINE",
"70 700 LINE",
"70 0 LINE"
);
}
);
width = 294;
}
);
leftKerningGroup = I;
note = Idieresis;
rightKerningGroup = I;
unicode = 00CF;
},
{
glyphname = Igrave;
layers = (
{
hints = (
{
horizontal = 1;
place = "{0, 976}";
type = Stem;
},
{
place = "{70, 154}";
type = Stem;
}
);
layerId = "6DD95C5A-998B-41AB-BDFB-84A73C209871";
paths = (
{
closed = 1;
nodes = (
"77 976 LINE",
"0 848 LINE",
"172 741 LINE",
"290 777 LINE"
);
},
{
closed = 1;
nodes = (
"224 0 LINE",
"224 700 LINE",
"70 700 LINE",
"70 0 LINE"
);
}
);
width = 294;
}
);
leftKerningGroup = I;
note = Igrave;
rightKerningGroup = I;
unicode = 00CC;
},
{
glyphname = J;
layers = (
{
hints = (
{
horizontal = 1;
place = "{-12, 112}";
type = Stem;
},
{
place = "{382, 154.5}";
type = Stem;
}
);
layerId = "6DD95C5A-998B-41AB-BDFB-84A73C209871";
paths = (
{
closed = 1;
nodes = (
"536 700 LINE",
"382 700 LINE",
"382 239 LINE SMOOTH",
"379 141 OFFCURVE",
"329 100 OFFCURVE",
"268 100 CURVE SMOOTH",
"185 100 OFFCURVE",
"173 146 OFFCURVE",
"151 208 CURVE",
"24 120 LINE",
"52 53 OFFCURVE",
"129 -12 OFFCURVE",
"268 -12 CURVE SMOOTH",
"421 -12 OFFCURVE",
"541 82 OFFCURVE",
"537 257 CURVE SMOOTH"
);
}
);
width = 617;
}
);
leftKerningGroup = J;
note = J;
rightKerningGroup = J;
unicode = 004A;
},
{
glyphname = K;
layers = (
{
hints = (
{
horizontal = 1;
place = "{0, 700}";
type = Stem;
},
{
place = "{50, 154}";
type = Stem;
}
);
layerId = "6DD95C5A-998B-41AB-BDFB-84A73C209871";
paths = (
{
closed = 1;
nodes = (
"50 0 LINE",
"204 0 LINE",
"204 238 LINE",
"274 314 LINE",
"481 0 LINE",
"654 0 LINE",
"374 425 LINE",
"626 700 LINE",
"449 700 LINE",
"204 433 LINE",
"204 700 LINE",
"50 700 LINE"
);
}
);
width = 679;
}
);
leftKerningGroup = B;
note = K;
rightKerningGroup = K;
unicode = 004B;
},
{
glyphname = L;
layers = (
{
hints = (
{
horizontal = 1;
place = "{0, 124}";
type = Stem;
},
{
place = "{50, 153}";
type = Stem;
}
);
layerId = "6DD95C5A-998B-41AB-BDFB-84A73C209871";
paths = (
{
closed = 1;
nodes = (
"50 700 LINE",
"50 0 LINE",
"585 0 LINE",
"585 124 LINE",
"203 124 LINE",
"203 700 LINE"
);
}
);
width = 615;
}
);
leftKerningGroup = B;
note = L;
rightKerningGroup = L;
unicode = 004C;
},
{
glyphname = Lslash;
layers = (
{
hints = (
{
horizontal = 1;
place = "{0, 124}";
type = Stem;
},
{
place = "{165, 153}";
type = Stem;
}
);
layerId = "6DD95C5A-998B-41AB-BDFB-84A73C209871";
paths = (
{
closed = 1;
nodes = (
"700 0 LINE",
"700 124 LINE",
"318 124 LINE",
"318 363.85 LINE",
"406 389 LINE",
"404 514 LINE",
"318 489.36 LINE",
"318 700 LINE",
"165 700 LINE",
"165 445.53 LINE",
"34 408 LINE",
"35 283 LINE",
"165 320.14 LINE",
"165 0 LINE"
);
}
);
width = 697;
}
);
note = Lslash;
unicode = 0141;
},
{
glyphname = M;
layers = (
{
hints = (
{
horizontal = 1;
place = "{0, 701}";
type = Stem;
},
{
place = "{50, 154}";
type = Stem;
},
{
place = "{730, 154}";
type = Stem;
}
);
layerId = "6DD95C5A-998B-41AB-BDFB-84A73C209871";
paths = (
{
closed = 1;
nodes = (
"730 409 LINE",
"730 0 LINE",
"884 0 LINE",
"884 700 LINE",
"712 700 LINE",
"691 701 LINE",
"467 181 LINE",
"243 701 LINE",
"222 700 LINE",
"50 700 LINE",
"50 0 LINE",
"204 0 LINE",
"204 407 LINE",
"385 0 LINE",
"549 0 LINE"
);
}
);
width = 934;
}
);
leftKerningGroup = B;
note = M;
rightKerningGroup = H;
unicode = 004D;
},
{
glyphname = N;
layers = (
{
hints = (
{
horizontal = 1;
place = "{0, 700}";
type = Stem;
},
{
place = "{50, 154}";
type = Stem;
},
{
place = "{475, 154}";
type = Stem;
}
);
layerId = "6DD95C5A-998B-41AB-BDFB-84A73C209871";
paths = (
{
closed = 1;
nodes = (
"204 436 LINE",
"477 0 LINE",
"629 0 LINE",
"629 700 LINE",
"475 700 LINE",
"475 272 LINE",
"204 700 LINE",
"50 700 LINE",
"50 0 LINE",
"204 0 LINE"
);
}
);
width = 679;
}
);
leftKerningGroup = B;
note = N;
rightKerningGroup = H;
unicode = 004E;
},
{
glyphname = Ntilde;
layers = (
{
hints = (
{
horizontal = 1;
place = "{772.99, 170}";
type = Stem;
},
{
place = "{124.86, 96.83}";
type = Stem;
},
{
place = "{405.86, 100.3}";
type = Stem;
},
{
place = "{50, 154}";
type = Stem;
},
{
place = "{475, 154}";
type = Stem;
}
);
layerId = "6DD95C5A-998B-41AB-BDFB-84A73C209871";
paths = (
{
closed = 1;
nodes = (
"348 943 LINE",
"390.74 918.57 OFFCURVE",
"405.86 886.33 OFFCURVE",
"405.86 868.11 CURVE SMOOTH",
"405.86 859.48 OFFCURVE",
"402.46 854 OFFCURVE",
"397 854 CURVE SMOOTH",
"374 854 OFFCURVE",
"353 883 OFFCURVE",
"329 900 CURVE SMOOTH",
"285 931 OFFCURVE",
"262 943 OFFCURVE",
"220 943 CURVE SMOOTH",
"155.28 943 OFFCURVE",
"124.86 902.37 OFFCURVE",
"124.86 856.84 CURVE SMOOTH",
"124.86 827.79 OFFCURVE",
"137.24 796.75 OFFCURVE",
"161 772.99 CURVE",
"280 772.99 LINE",
"237.28 797.4 OFFCURVE",
"221.69 829.63 OFFCURVE",
"221.69 847.85 CURVE SMOOTH",
"221.69 856.5 OFFCURVE",
"225.2 861.99 OFFCURVE",
"231 861.99 CURVE SMOOTH",
"255 861.99 OFFCURVE",
"276 832.99 OFFCURVE",
"316 804.99 CURVE SMOOTH",
"340 786.99 OFFCURVE",
"371 772.99 OFFCURVE",
"408 772.99 CURVE SMOOTH",
"470.86 772.99 OFFCURVE",
"506.16 819.56 OFFCURVE",
"506.16 866.08 CURVE SMOOTH",
"506.16 895.78 OFFCURVE",
"491.78 925.46 OFFCURVE",
"461 943 CURVE"
);
},
{
closed = 1;
nodes = (
"204 436 LINE",
"477 0 LINE",
"629 0 LINE",
"629 700 LINE",
"475 700 LINE",
"475 272 LINE",
"204 700 LINE",
"50 700 LINE",
"50 0 LINE",
"204 0 LINE"
);
}
);
width = 679;
}
);
leftKerningGroup = B;
note = Ntilde;
unicode = 00D1;
},
{
glyphname = O;
layers = (
{
hints = (
{
horizontal = 1;
place = "{-5, 115}";
type = Stem;
},
{
horizontal = 1;
place = "{590, 115}";
type = Stem;
},
{
place = "{50, 154}";
type = Stem;
},
{
place = "{624, 154}";
type = Stem;
}
);
layerId = "6DD95C5A-998B-41AB-BDFB-84A73C209871";
paths = (
{
closed = 1;
nodes = (
"634 -5 OFFCURVE",
"778 160 OFFCURVE",
"778 348 CURVE SMOOTH",
"778 538 OFFCURVE",
"634 705 OFFCURVE",
"414 705 CURVE SMOOTH",
"194 705 OFFCURVE",
"50 538 OFFCURVE",
"50 348 CURVE SMOOTH",
"50 160 OFFCURVE",
"195 -5 OFFCURVE",
"414 -5 CURVE SMOOTH"
);
},
{
closed = 1;
nodes = (
"289 110 OFFCURVE",
"204 206 OFFCURVE",
"204 348 CURVE SMOOTH",
"204 492 OFFCURVE",
"290 590 OFFCURVE",
"414 590 CURVE SMOOTH",
"539 590 OFFCURVE",
"624 492 OFFCURVE",
"624 348 CURVE SMOOTH",
"624 206 OFFCURVE",
"539 110 OFFCURVE",
"414 110 CURVE SMOOTH"
);
}
);
width = 828;
}
);
leftKerningGroup = C;
note = O;
rightKerningGroup = O;
unicode = 004F;
},
{
glyphname = Oacute;
layers = (
{
hints = (
{
horizontal = 1;
place = "{-5, 115}";
type = Stem;
},
{
horizontal = 1;
place = "{590, 115}";
type = Stem;
},
{
place = "{50, 154}";
type = Stem;
},
{
place = "{624, 154}";
type = Stem;
}
);
layerId = "6DD95C5A-998B-41AB-BDFB-84A73C209871";
paths = (
{
closed = 1;
nodes = (
"480 976 LINE",
"267 777 LINE",
"385 741 LINE",
"557 848 LINE"
);
},
{
closed = 1;
nodes = (
"634 -5 OFFCURVE",
"778 160 OFFCURVE",
"778 348 CURVE SMOOTH",
"778 538 OFFCURVE",
"634 705 OFFCURVE",
"414 705 CURVE SMOOTH",
"194 705 OFFCURVE",
"50 538 OFFCURVE",
"50 348 CURVE SMOOTH",
"50 160 OFFCURVE",
"195 -5 OFFCURVE",
"414 -5 CURVE SMOOTH"
);
},
{
closed = 1;
nodes = (
"289 110 OFFCURVE",
"204 206 OFFCURVE",
"204 348 CURVE SMOOTH",
"204 492 OFFCURVE",
"290 590 OFFCURVE",
"414 590 CURVE SMOOTH",
"539 590 OFFCURVE",
"624 492 OFFCURVE",
"624 348 CURVE SMOOTH",
"624 206 OFFCURVE",
"539 110 OFFCURVE",
"414 110 CURVE SMOOTH"
);
}
);
width = 828;
}
);
leftKerningGroup = C;
note = Oacute;
rightKerningGroup = O;
unicode = 00D3;
},
{
glyphname = Ocircumflex;
layers = (
{
hints = (
{
horizontal = 1;
place = "{-5, 115}";
type = Stem;
},
{
horizontal = 1;
place = "{590, 115}";
type = Stem;
},
{
place = "{50, 154}";
type = Stem;
},
{
place = "{624, 154}";
type = Stem;
}
);
layerId = "6DD95C5A-998B-41AB-BDFB-84A73C209871";
paths = (
{
closed = 1;
nodes = (
"166 785 LINE",
"288 747 LINE",
"380 833.42 LINE",
"472 747 LINE",
"594 785 LINE",
"395.54 959.46 LINE",
"381 974 LINE",
"380 973.12 LINE",
"379 974 LINE",
"364.46 959.46 LINE"
);
},
{
closed = 1;
nodes = (
"634 -5 OFFCURVE",
"778 160 OFFCURVE",
"778 348 CURVE SMOOTH",
"778 538 OFFCURVE",
"634 705 OFFCURVE",
"414 705 CURVE SMOOTH",
"194 705 OFFCURVE",
"50 538 OFFCURVE",
"50 348 CURVE SMOOTH",
"50 160 OFFCURVE",
"195 -5 OFFCURVE",
"414 -5 CURVE SMOOTH"
);
},
{
closed = 1;
nodes = (
"289 110 OFFCURVE",
"204 206 OFFCURVE",
"204 348 CURVE SMOOTH",
"204 492 OFFCURVE",
"290 590 OFFCURVE",
"414 590 CURVE SMOOTH",
"539 590 OFFCURVE",
"624 492 OFFCURVE",
"624 348 CURVE SMOOTH",
"624 206 OFFCURVE",
"539 110 OFFCURVE",
"414 110 CURVE SMOOTH"
);
}
);
width = 828;
}
);
leftKerningGroup = C;
note = Ocircumflex;
rightKerningGroup = O;
unicode = 00D4;
},
{
glyphname = Odieresis;
layers = (
{
hints = (
{
horizontal = 1;
place = "{-5, 115}";
type = Stem;
},
{
horizontal = 1;
place = "{590, 115}";
type = Stem;
},
{
horizontal = 1;
place = "{761, 124}";
type = Stem;
},
{
place = "{50, 154}";
type = Stem;
},
{
place = "{213, 154}";
type = Stem;
},
{
place = "{461, 154}";
type = Stem;
},
{
place = "{624, 154}";
type = Stem;
}
);
layerId = "6DD95C5A-998B-41AB-BDFB-84A73C209871";
paths = (
{
closed = 1;
nodes = (
"367 761 LINE",
"367 885 LINE",
"213 885 LINE",
"213 761 LINE"
);
},
{
closed = 1;
nodes = (
"615 761 LINE",
"615 885 LINE",
"461 885 LINE",
"461 761 LINE"
);
},
{
closed = 1;
nodes = (
"634 -5 OFFCURVE",
"778 160 OFFCURVE",
"778 348 CURVE SMOOTH",
"778 538 OFFCURVE",
"634 705 OFFCURVE",
"414 705 CURVE SMOOTH",
"194 705 OFFCURVE",
"50 538 OFFCURVE",
"50 348 CURVE SMOOTH",
"50 160 OFFCURVE",
"195 -5 OFFCURVE",
"414 -5 CURVE SMOOTH"
);
},
{
closed = 1;
nodes = (
"289 110 OFFCURVE",
"204 206 OFFCURVE",
"204 348 CURVE SMOOTH",
"204 492 OFFCURVE",
"290 590 OFFCURVE",
"414 590 CURVE SMOOTH",
"539 590 OFFCURVE",
"624 492 OFFCURVE",
"624 348 CURVE SMOOTH",
"624 206 OFFCURVE",
"539 110 OFFCURVE",
"414 110 CURVE SMOOTH"
);
}
);
width = 828;
}
);
leftKerningGroup = C;
note = Odieresis;
rightKerningGroup = O;
unicode = 00D6;
},
{
glyphname = Ograve;
layers = (
{
hints = (
{
horizontal = 1;
place = "{-5, 115}";
type = Stem;
},
{
horizontal = 1;
place = "{590, 115}";
type = Stem;
},
{
place = "{50, 154}";
type = Stem;
},
{
place = "{624, 154}";
type = Stem;
}
);
layerId = "6DD95C5A-998B-41AB-BDFB-84A73C209871";
paths = (
{
closed = 1;
nodes = (
"344 976 LINE",
"267 848 LINE",
"439 741 LINE",
"557 777 LINE"
);
},
{
closed = 1;
nodes = (
"634 -5 OFFCURVE",
"778 160 OFFCURVE",
"778 348 CURVE SMOOTH",
"778 538 OFFCURVE",
"634 705 OFFCURVE",
"414 705 CURVE SMOOTH",
"194 705 OFFCURVE",
"50 538 OFFCURVE",
"50 348 CURVE SMOOTH",
"50 160 OFFCURVE",
"195 -5 OFFCURVE",
"414 -5 CURVE SMOOTH"
);
},
{
closed = 1;
nodes = (
"289 110 OFFCURVE",
"204 206 OFFCURVE",
"204 348 CURVE SMOOTH",
"204 492 OFFCURVE",
"290 590 OFFCURVE",
"414 590 CURVE SMOOTH",
"539 590 OFFCURVE",
"624 492 OFFCURVE",
"624 348 CURVE SMOOTH",
"624 206 OFFCURVE",
"539 110 OFFCURVE",
"414 110 CURVE SMOOTH"
);
}
);
width = 828;
}
);
leftKerningGroup = C;
note = Ograve;
rightKerningGroup = O;
unicode = 00D2;
},
{
glyphname = Oslash;
layers = (
{
hints = (
{
horizontal = 1;
place = "{-5, 115}";
type = Stem;
},
{
horizontal = 1;
place = "{590, 115}";
type = Stem;
},
{
place = "{50, 154}";
type = Stem;
},
{
place = "{624, 154}";
type = Stem;
}
);
layerId = "6DD95C5A-998B-41AB-BDFB-84A73C209871";
paths = (
{
closed = 1;
nodes = (
"591 775 LINE",
"471 775 LINE",
"449.78 703.49 LINE",
"438.09 704.49 OFFCURVE",
"426.16 705 OFFCURVE",
"414 705 CURVE SMOOTH",
"194 705 OFFCURVE",
"50 538 OFFCURVE",
"50 348 CURVE SMOOTH",
"50 212.29 OFFCURVE",
"125.56 88.56 OFFCURVE",
"249.97 30.24 CURVE",
"222 -64 LINE",
"342 -64 LINE",
"360.52 -1.6 LINE",
"377.8 -3.84 OFFCURVE",
"395.64 -5 OFFCURVE",
"414 -5 CURVE SMOOTH",
"634 -5 OFFCURVE",
"778 160 OFFCURVE",
"778 348 CURVE SMOOTH",
"778 491.16 OFFCURVE",
"696.25 621.27 OFFCURVE",
"561.83 676.71 CURVE"
);
},
{
closed = 1;
nodes = (
"204 492 OFFCURVE",
"290 590 OFFCURVE",
"414 590 CURVE SMOOTH",
"414.7 590 OFFCURVE",
"415.4 590 OFFCURVE",
"416.09 589.99 CURVE",
"286.31 152.7 LINE",
"234.69 193.96 OFFCURVE",
"204 262.68 OFFCURVE",
"204 348 CURVE SMOOTH"
);
},
{
closed = 1;
nodes = (
"407.18 110 OFFCURVE",
"400.47 110.29 OFFCURVE",
"393.89 110.85 CURVE",
"526.49 557.64 LINE",
"587.23 517.52 OFFCURVE",
"624 442.71 OFFCURVE",
"624 348 CURVE SMOOTH",
"624 206 OFFCURVE",
"539 110 OFFCURVE",
"414 110 CURVE SMOOTH"
);
}
);
width = 828;
}
);
leftKerningGroup = C;
note = Oslash;
rightKerningGroup = O;
unicode = 00D8;
},
{
glyphname = Otilde;
layers = (
{
hints = (
{
horizontal = 1;
place = "{-5, 115}";
type = Stem;
},
{
horizontal = 1;
place = "{590, 115}";
type = Stem;
},
{
horizontal = 1;
place = "{772.99, 170}";
type = Stem;
},
{
place = "{50, 154}";
type = Stem;
},
{
place = "{466.86, 100.3}";
type = Stem;
},
{
place = "{624, 154}";
type = Stem;
},
{
place = "{185.86, 96.83}";
type = Stem;
}
);
layerId = "6DD95C5A-998B-41AB-BDFB-84A73C209871";
paths = (
{
closed = 1;
nodes = (
"409 943 LINE",
"451.74 918.57 OFFCURVE",
"466.86 886.33 OFFCURVE",
"466.86 868.11 CURVE SMOOTH",
"466.86 859.48 OFFCURVE",
"463.46 854 OFFCURVE",
"458 854 CURVE SMOOTH",
"435 854 OFFCURVE",
"414 883 OFFCURVE",
"390 900 CURVE SMOOTH",
"346 931 OFFCURVE",
"323 943 OFFCURVE",
"281 943 CURVE SMOOTH",
"216.28 943 OFFCURVE",
"185.86 902.37 OFFCURVE",
"185.86 856.84 CURVE SMOOTH",
"185.86 827.79 OFFCURVE",
"198.24 796.75 OFFCURVE",
"222 772.99 CURVE",
"341 772.99 LINE",
"298.28 797.4 OFFCURVE",
"282.69 829.63 OFFCURVE",
"282.69 847.85 CURVE SMOOTH",
"282.69 856.5 OFFCURVE",
"286.2 861.99 OFFCURVE",
"292 861.99 CURVE SMOOTH",
"316 861.99 OFFCURVE",
"337 832.99 OFFCURVE",
"377 804.99 CURVE SMOOTH",
"401 786.99 OFFCURVE",
"432 772.99 OFFCURVE",
"469 772.99 CURVE SMOOTH",
"531.86 772.99 OFFCURVE",
"567.16 819.56 OFFCURVE",
"567.16 866.08 CURVE SMOOTH",
"567.16 895.78 OFFCURVE",
"552.78 925.46 OFFCURVE",
"522 943 CURVE"
);
},
{
closed = 1;
nodes = (
"634 -5 OFFCURVE",
"778 160 OFFCURVE",
"778 348 CURVE SMOOTH",
"778 538 OFFCURVE",
"634 705 OFFCURVE",
"414 705 CURVE SMOOTH",
"194 705 OFFCURVE",
"50 538 OFFCURVE",
"50 348 CURVE SMOOTH",
"50 160 OFFCURVE",
"195 -5 OFFCURVE",
"414 -5 CURVE SMOOTH"
);
},
{
closed = 1;
nodes = (
"289 110 OFFCURVE",
"204 206 OFFCURVE",
"204 348 CURVE SMOOTH",
"204 492 OFFCURVE",
"290 590 OFFCURVE",
"414 590 CURVE SMOOTH",
"539 590 OFFCURVE",
"624 492 OFFCURVE",
"624 348 CURVE SMOOTH",
"624 206 OFFCURVE",
"539 110 OFFCURVE",
"414 110 CURVE SMOOTH"
);
}
);
width = 828;
}
);
leftKerningGroup = C;
note = Otilde;
rightKerningGroup = O;
unicode = 00D5;
},
{
glyphname = OE;
layers = (
{
hints = (
{
horizontal = 1;
place = "{0, 124}";
type = Stem;
},
{
horizontal = 1;
place = "{296, 124}";
type = Stem;
},
{
horizontal = 1;
place = "{576, 124}";
type = Stem;
},
{
place = "{20, 154}";
type = Stem;
},
{
place = "{574, 154}";
type = Stem;
},
{
horizontal = 1;
place = "{-5, 114.99}";
type = Stem;
},
{
horizontal = 1;
place = "{590, 115}";
type = Stem;
}
);
layerId = "6DD95C5A-998B-41AB-BDFB-84A73C209871";
paths = (
{
closed = 1;
nodes = (
"1153 0 LINE",
"1153 124 LINE",
"728 124 LINE",
"728 296 LINE",
"1133 296 LINE",
"1133 420 LINE",
"728 420 LINE",
"728 576 LINE",
"1143 576 LINE",
"1143 700 LINE",
"574 700 LINE",
"574 656.84 LINE",
"520.87 686.37 OFFCURVE",
"455.42 705 OFFCURVE",
"384 705 CURVE SMOOTH",
"164 705 OFFCURVE",
"20 538 OFFCURVE",
"20 348 CURVE SMOOTH",
"20 160 OFFCURVE",
"166 -5 OFFCURVE",
"384 -5 CURVE SMOOTH",
"455.42 -5 OFFCURVE",
"520.87 13.26 OFFCURVE",
"574 42.49 CURVE",
"574 0 LINE"
);
},
{
closed = 1;
nodes = (
"259 110 OFFCURVE",
"174 206 OFFCURVE",
"174 348 CURVE SMOOTH",
"174 492 OFFCURVE",
"260 590 OFFCURVE",
"384 590 CURVE SMOOTH",
"473.07 590 OFFCURVE",
"541.83 540.24 OFFCURVE",
"574 459.53 CURVE",
"574 238.13 LINE",
"541.83 158.74 OFFCURVE",
"473.07 109.99 OFFCURVE",
"384 109.99 CURVE SMOOTH"
);
}
);
width = 1157;
}
);
leftKerningGroup = C;
note = OE;
rightKerningGroup = AE;
unicode = 0152;
},
{
glyphname = P;
layers = (
{
hints = (
{
horizontal = 1;
place = "{297, 112}";
type = Stem;
},
{
horizontal = 1;
place = "{585, 115}";
type = Stem;
},
{
place = "{50, 154}";
type = Stem;
},
{
place = "{365, 144}";
type = Stem;
}
);
layerId = "6DD95C5A-998B-41AB-BDFB-84A73C209871";
paths = (
{
closed = 1;
nodes = (
"50 700 LINE",
"50 0 LINE",
"204 0 LINE",
"204 297 LINE",
"267 297 LINE SMOOTH",
"382 297 OFFCURVE",
"509 349 OFFCURVE",
"509 499 CURVE SMOOTH",
"509 647 OFFCURVE",
"377 700 OFFCURVE",
"273 700 CURVE SMOOTH"
);
},
{
closed = 1;
nodes = (
"204 409 LINE",
"204 585 LINE",
"270 585 LINE SMOOTH",
"324 585 OFFCURVE",
"365 563 OFFCURVE",
"365 499 CURVE SMOOTH",
"365 434 OFFCURVE",
"324 409 OFFCURVE",
"267 409 CURVE SMOOTH"
);
}
);
width = 520;
}
);
leftKerningGroup = B;
note = P;
rightKerningGroup = P;
unicode = 0050;
},
{
glyphname = Thorn;
layers = (
{
hints = (
{
horizontal = 1;
place = "{193, 116}";
type = Stem;
},
{
horizontal = 1;
place = "{485, 115}";
type = Stem;
},
{
place = "{32, 154}";
type = Stem;
},
{
place = "{375, 154}";
type = Stem;
}
);
layerId = "6DD95C5A-998B-41AB-BDFB-84A73C209871";
paths = (
{
closed = 1;
nodes = (
"186 600 LINE",
"186 700 LINE",
"32 700 LINE",
"32 0 LINE",
"186 0 LINE",
"186 193 LINE",
"288 193 LINE SMOOTH",
"403 193 OFFCURVE",
"529 249 OFFCURVE",
"529 399 CURVE SMOOTH",
"529 546 OFFCURVE",
"397 600 OFFCURVE",
"294 600 CURVE SMOOTH"
);
},
{
closed = 1;
nodes = (
"186 309 LINE",
"186 485 LINE",
"291 485 LINE SMOOTH",
"344 485 OFFCURVE",
"375 463 OFFCURVE",
"375 399 CURVE SMOOTH",
"375 334 OFFCURVE",
"344 309 OFFCURVE",
"288 309 CURVE SMOOTH"
);
}
);
width = 531;
}
);
note = Thorn;
unicode = 00DE;
},
{
glyphname = Q;
layers = (
{
hints = (
{
horizontal = 1;
place = "{-5, 115}";
type = Stem;
},
{
horizontal = 1;
place = "{590, 115}";
type = Stem;
},
{
place = "{50, 154}";
type = Stem;
},
{
place = "{604, 154}";
type = Stem;
}
);
layerId = "6DD95C5A-998B-41AB-BDFB-84A73C209871";
paths = (
{
closed = 1;
nodes = (
"636 0 LINE",
"829 0 LINE",
"686 132 LINE",
"732 192 OFFCURVE",
"758 268 OFFCURVE",
"758 348 CURVE SMOOTH",
"758 538 OFFCURVE",
"614 705 OFFCURVE",
"404 705 CURVE SMOOTH",
"194 705 OFFCURVE",
"50 538 OFFCURVE",
"50 348 CURVE SMOOTH",
"50 160 OFFCURVE",
"195 -5 OFFCURVE",
"404 -5 CURVE SMOOTH",
"474 -5 OFFCURVE",
"536 13 OFFCURVE",
"588 44 CURVE"
);
},
{
closed = 1;
nodes = (
"289 110 OFFCURVE",
"204 206 OFFCURVE",
"204 348 CURVE SMOOTH",
"204 492 OFFCURVE",
"290 590 OFFCURVE",
"404 590 CURVE SMOOTH",
"519 590 OFFCURVE",
"604 492 OFFCURVE",
"604 348 CURVE SMOOTH",
"604 303 OFFCURVE",
"595 263 OFFCURVE",
"580 229 CURVE",
"484 317 LINE",
"296 317 LINE",
"494 132 LINE",
"467 118 OFFCURVE",
"437 110 OFFCURVE",
"404 110 CURVE SMOOTH"
);
}
);
width = 836;
}
);
leftKerningGroup = C;
note = Q;
rightKerningGroup = Q;
unicode = 0051;
},
{
glyphname = R;
layers = (
{
hints = (
{
horizontal = 1;
place = "{316, 115}";
type = Stem;
},
{
horizontal = 1;
place = "{585, 115}";
type = Stem;
},
{
place = "{50, 154}";
type = Stem;
},
{
place = "{384.99, 154}";
type = Stem;
}
);
layerId = "6DD95C5A-998B-41AB-BDFB-84A73C209871";
paths = (
{
closed = 1;
nodes = (
"499 0 LINE",
"672 0 LINE",
"448.39 352.46 LINE",
"501.94 382.52 OFFCURVE",
"539 432.61 OFFCURVE",
"539 508 CURVE SMOOTH",
"539 647 OFFCURVE",
"413 700 OFFCURVE",
"290 700 CURVE SMOOTH",
"50 700 LINE",
"50 0 LINE",
"204 0 LINE",
"204 316 LINE",
"290 316 LINE SMOOTH",
"292.92 316 OFFCURVE",
"295.85 316.03 OFFCURVE",
"298.77 316.09 CURVE"
);
},
{
closed = 1;
nodes = (
"203.99 431 LINE",
"203.99 585 LINE",
"289.99 585 LINE SMOOTH",
"351.99 585 OFFCURVE",
"384.99 564 OFFCURVE",
"384.99 508 CURVE SMOOTH",
"384.99 452 OFFCURVE",
"351.99 431 OFFCURVE",
"289.99 431 CURVE SMOOTH"
);
}
);
width = 682;
}
);
leftKerningGroup = B;
note = R;
rightKerningGroup = R;
unicode = 0052;
},
{
glyphname = S;
layers = (
{
hints = (
{
horizontal = 1;
place = "{-8, 119}";
type = Stem;
},
{
horizontal = 1;
place = "{599, 110}";
type = Stem;
},
{
place = "{71, 150}";
type = Stem;
},
{
place = "{437, 149}";
type = Stem;
}
);
layerId = "6DD95C5A-998B-41AB-BDFB-84A73C209871";
paths = (
{
closed = 1;
nodes = (
"178 709 OFFCURVE",
"71 641 OFFCURVE",
"71 521 CURVE SMOOTH",
"71 410 OFFCURVE",
"153 363 OFFCURVE",
"293 315 CURVE SMOOTH",
"378 286 OFFCURVE",
"437 265 OFFCURVE",
"437 200 CURVE SMOOTH",
"437 134 OFFCURVE",
"393 111 OFFCURVE",
"321 111 CURVE SMOOTH",
"212 111 OFFCURVE",
"172 161 OFFCURVE",
"137 258 CURVE",
"12 195 LINE",
"48 84 OFFCURVE",
"144 -8 OFFCURVE",
"321 -8 CURVE SMOOTH",
"495 -8 OFFCURVE",
"586 80 OFFCURVE",
"586 210 CURVE SMOOTH",
"586 342 OFFCURVE",
"424 391 OFFCURVE",
"338 423 CURVE SMOOTH",
"258 453 OFFCURVE",
"221 476 OFFCURVE",
"221 521 CURVE SMOOTH",
"221 568 OFFCURVE",
"262 599 OFFCURVE",
"316 599 CURVE SMOOTH",
"381 599 OFFCURVE",
"410 571 OFFCURVE",
"417 508 CURVE",
"558 544 LINE",
"547 649 OFFCURVE",
"434 709 OFFCURVE",
"316 709 CURVE SMOOTH"
);
}
);
width = 612;
}
);
leftKerningGroup = S;
note = S;
rightKerningGroup = S;
unicode = 0053;
},
{
glyphname = Scaron;
layers = (
{
hints = (
{
horizontal = 1;
place = "{-8, 119}";
type = Stem;
},
{
horizontal = 1;
place = "{599, 110}";
type = Stem;
},
{
place = "{71, 150}";
type = Stem;
},
{
place = "{437, 149}";
type = Stem;
}
);
layerId = "6DD95C5A-998B-41AB-BDFB-84A73C209871";
paths = (
{
closed = 1;
nodes = (
"203 959 LINE",
"105 953 LINE",
"318 754 LINE",
"531 953 LINE",
"433 959 LINE",
"318 887.46 LINE"
);
},
{
closed = 1;
nodes = (
"178 709 OFFCURVE",
"71 641 OFFCURVE",
"71 521 CURVE SMOOTH",
"71 410 OFFCURVE",
"153 363 OFFCURVE",
"293 315 CURVE SMOOTH",
"378 286 OFFCURVE",
"437 265 OFFCURVE",
"437 200 CURVE SMOOTH",
"437 134 OFFCURVE",
"393 111 OFFCURVE",
"321 111 CURVE SMOOTH",
"212 111 OFFCURVE",
"172 161 OFFCURVE",
"137 258 CURVE",
"12 195 LINE",
"48 84 OFFCURVE",
"144 -8 OFFCURVE",
"321 -8 CURVE SMOOTH",
"495 -8 OFFCURVE",
"586 80 OFFCURVE",
"586 210 CURVE SMOOTH",
"586 342 OFFCURVE",
"424 391 OFFCURVE",
"338 423 CURVE SMOOTH",
"258 453 OFFCURVE",
"221 476 OFFCURVE",
"221 521 CURVE SMOOTH",
"221 568 OFFCURVE",
"262 599 OFFCURVE",
"316 599 CURVE SMOOTH",
"381 599 OFFCURVE",
"410 571 OFFCURVE",
"417 508 CURVE",
"558 544 LINE",
"547 649 OFFCURVE",
"434 709 OFFCURVE",
"316 709 CURVE SMOOTH"
);
}
);
width = 612;
}
);
leftKerningGroup = S;
note = Scaron;
rightKerningGroup = S;
unicode = 0160;
},
{
glyphname = T;
layers = (
{
hints = (
{
horizontal = 1;
place = "{576, 124}";
type = Stem;
},
{
place = "{282, 154}";
type = Stem;
}
);
layerId = "6DD95C5A-998B-41AB-BDFB-84A73C209871";
paths = (
{
closed = 1;
nodes = (
"282 0 LINE",
"436 0 LINE",
"436 576 LINE",
"692 576 LINE",
"692 700 LINE",
"25 700 LINE",
"25 576 LINE",
"282 576 LINE"
);
}
);
width = 717;
}
);
leftKerningGroup = T;
note = T;
rightKerningGroup = T;
unicode = 0054;
},
{
glyphname = U;
layers = (
{
hints = (
{
horizontal = 1;
place = "{-12, 112}";
type = Stem;
},
{
place = "{33, 154}";
type = Stem;
},
{
place = "{435, 154}";
type = Stem;
}
);
layerId = "6DD95C5A-998B-41AB-BDFB-84A73C209871";
paths = (
{
closed = 1;
nodes = (
"588 700 LINE",
"435 700 LINE",
"435 228 LINE SMOOTH",
"435 133 OFFCURVE",
"386 100 OFFCURVE",
"311 100 CURVE SMOOTH",
"236 100 OFFCURVE",
"187 133 OFFCURVE",
"187 228 CURVE SMOOTH",
"187 700 LINE",
"34 700 LINE",
"33 228 LINE SMOOTH",
"33 69 OFFCURVE",
"153 -12 OFFCURVE",
"311 -12 CURVE SMOOTH",
"469 -12 OFFCURVE",
"589 69 OFFCURVE",
"589 228 CURVE"
);
}
);
width = 622;
}
);
leftKerningGroup = U;
note = U;
rightKerningGroup = U;
unicode = 0055;
},
{
glyphname = Uacute;
layers = (
{
hints = (
{
horizontal = 1;
place = "{-12, 112}";
type = Stem;
},
{
place = "{33, 154}";
type = Stem;
},
{
place = "{435, 154}";
type = Stem;
}
);
layerId = "6DD95C5A-998B-41AB-BDFB-84A73C209871";
paths = (
{
closed = 1;
nodes = (
"377 976 LINE",
"164 777 LINE",
"282 741 LINE",
"454 848 LINE"
);
},
{
closed = 1;
nodes = (
"588 700 LINE",
"435 700 LINE",
"435 228 LINE SMOOTH",
"435 133 OFFCURVE",
"386 100 OFFCURVE",
"311 100 CURVE SMOOTH",
"236 100 OFFCURVE",
"187 133 OFFCURVE",
"187 228 CURVE SMOOTH",
"187 700 LINE",
"34 700 LINE",
"33 228 LINE SMOOTH",
"33 69 OFFCURVE",
"153 -12 OFFCURVE",
"311 -12 CURVE SMOOTH",
"469 -12 OFFCURVE",
"589 69 OFFCURVE",
"589 228 CURVE"
);
}
);
width = 622;
}
);
leftKerningGroup = U;
note = Uacute;
rightKerningGroup = U;
unicode = 00DA;
},
{
glyphname = Ucircumflex;
layers = (
{
hints = (
{
horizontal = 1;
place = "{-12, 112}";
type = Stem;
},
{
place = "{33, 154}";
type = Stem;
},
{
place = "{435, 154}";
type = Stem;
}
);
layerId = "6DD95C5A-998B-41AB-BDFB-84A73C209871";
paths = (
{
closed = 1;
nodes = (
"98 785 LINE",
"220 747 LINE",
"312 833.42 LINE",
"404 747 LINE",
"526 785 LINE",
"327.54 959.46 LINE",
"313 974 LINE",
"312 973.12 LINE",
"311 974 LINE",
"296.46 959.46 LINE"
);
},
{
closed = 1;
nodes = (
"588 700 LINE",
"435 700 LINE",
"435 228 LINE SMOOTH",
"435 133 OFFCURVE",
"386 100 OFFCURVE",
"311 100 CURVE SMOOTH",
"236 100 OFFCURVE",
"187 133 OFFCURVE",
"187 228 CURVE SMOOTH",
"187 700 LINE",
"34 700 LINE",
"33 228 LINE SMOOTH",
"33 69 OFFCURVE",
"153 -12 OFFCURVE",
"311 -12 CURVE SMOOTH",
"469 -12 OFFCURVE",
"589 69 OFFCURVE",
"589 228 CURVE"
);
}
);
width = 622;
}
);
leftKerningGroup = U;
note = Ucircumflex;
rightKerningGroup = U;
unicode = 00DB;
},
{
glyphname = Udieresis;
layers = (
{
hints = (
{
horizontal = 1;
place = "{-12, 112}";
type = Stem;
},
{
horizontal = 1;
place = "{761, 124}";
type = Stem;
},
{
place = "{110, 154}";
type = Stem;
},
{
place = "{435, 154}";
type = Stem;
},
{
place = "{33, 154}";
type = Stem;
},
{
place = "{358, 154}";
type = Stem;
}
);
layerId = "6DD95C5A-998B-41AB-BDFB-84A73C209871";
paths = (
{
closed = 1;
nodes = (
"264 761 LINE",
"264 885 LINE",
"110 885 LINE",
"110 761 LINE"
);
},
{
closed = 1;
nodes = (
"512 761 LINE",
"512 885 LINE",
"358 885 LINE",
"358 761 LINE"
);
},
{
closed = 1;
nodes = (
"588 700 LINE",
"435 700 LINE",
"435 228 LINE SMOOTH",
"435 133 OFFCURVE",
"386 100 OFFCURVE",
"311 100 CURVE SMOOTH",
"236 100 OFFCURVE",
"187 133 OFFCURVE",
"187 228 CURVE SMOOTH",
"187 700 LINE",
"34 700 LINE",
"33 228 LINE SMOOTH",
"33 69 OFFCURVE",
"153 -12 OFFCURVE",
"311 -12 CURVE SMOOTH",
"469 -12 OFFCURVE",
"589 69 OFFCURVE",
"589 228 CURVE"
);
}
);
width = 622;
}
);
leftKerningGroup = U;
note = Udieresis;
rightKerningGroup = U;
unicode = 00DC;
},
{
glyphname = Ugrave;
layers = (
{
hints = (
{
horizontal = 1;
place = "{-12, 112}";
type = Stem;
},
{
place = "{33, 154}";
type = Stem;
},
{
place = "{435, 154}";
type = Stem;
}
);
layerId = "6DD95C5A-998B-41AB-BDFB-84A73C209871";
paths = (
{
closed = 1;
nodes = (
"241 976 LINE",
"164 848 LINE",
"336 741 LINE",
"454 777 LINE"
);
},
{
closed = 1;
nodes = (
"588 700 LINE",
"435 700 LINE",
"435 228 LINE SMOOTH",
"435 133 OFFCURVE",
"386 100 OFFCURVE",
"311 100 CURVE SMOOTH",
"236 100 OFFCURVE",
"187 133 OFFCURVE",
"187 228 CURVE SMOOTH",
"187 700 LINE",
"34 700 LINE",
"33 228 LINE SMOOTH",
"33 69 OFFCURVE",
"153 -12 OFFCURVE",
"311 -12 CURVE SMOOTH",
"469 -12 OFFCURVE",
"589 69 OFFCURVE",
"589 228 CURVE"
);
}
);
width = 622;
}
);
leftKerningGroup = U;
note = Ugrave;
rightKerningGroup = U;
unicode = 00D9;
},
{
glyphname = V;
layers = (
{
hints = (
{
horizontal = 1;
place = "{0, 700}";
type = Stem;
},
{
place = "{-6, 641}";
type = Stem;
}
);
layerId = "6DD95C5A-998B-41AB-BDFB-84A73C209871";
paths = (
{
closed = 1;
nodes = (
"-6 700 LINE",
"233 0 LINE",
"395 0 LINE",
"635 700 LINE",
"482 700 LINE",
"314.15 210.44 LINE",
"147 700 LINE"
);
}
);
width = 629;
}
);
leftKerningGroup = V;
note = V;
rightKerningGroup = V;
unicode = 0056;
},
{
glyphname = W;
layers = (
{
hints = (
{
horizontal = 1;
place = "{0, 700}";
type = Stem;
},
{
place = "{-3, 808}";
type = Stem;
}
);
layerId = "6DD95C5A-998B-41AB-BDFB-84A73C209871";
paths = (
{
closed = 1;
nodes = (
"399 403.19 LINE",
"496 0 LINE",
"645 0 LINE",
"805 700 LINE",
"651 700 LINE",
"565.05 298.92 LINE",
"467.51 687.96 LINE",
"468 690 LINE",
"330 690 LINE",
"330.97 685.94 LINE",
"234.07 301.68 LINE",
"151 700 LINE",
"-3 700 LINE",
"153 0 LINE",
"302 0 LINE"
);
}
);
width = 802;
}
);
leftKerningGroup = W;
note = W;
rightKerningGroup = W;
unicode = 0057;
},
{
glyphname = X;
layers = (
{
hints = (
{
horizontal = 1;
place = "{0, 700}";
type = Stem;
},
{
place = "{-5, 763}";
type = Stem;
}
);
layerId = "6DD95C5A-998B-41AB-BDFB-84A73C209871";
paths = (
{
closed = 1;
nodes = (
"-5 0 LINE",
"176 0 LINE",
"379.03 257.57 LINE",
"577 0 LINE",
"758 0 LINE",
"473.32 368.34 LINE",
"736 700 LINE",
"554 700 LINE",
"383.74 484.24 LINE",
"217 700 LINE",
"39 700 LINE",
"289.11 374.58 LINE"
);
}
);
width = 753;
}
);
leftKerningGroup = X;
note = X;
rightKerningGroup = X;
unicode = 0058;
},
{
glyphname = Y;
layers = (
{
hints = (
{
horizontal = 1;
place = "{0, 700}";
type = Stem;
},
{
place = "{274, 154}";
type = Stem;
}
);
layerId = "6DD95C5A-998B-41AB-BDFB-84A73C209871";
paths = (
{
closed = 1;
nodes = (
"274 0 LINE",
"428 0 LINE",
"428 306.86 LINE",
"683 700 LINE",
"525 700 LINE",
"351.37 420.77 LINE",
"178 700 LINE",
"20 700 LINE",
"274 306.89 LINE"
);
}
);
width = 703;
}
);
leftKerningGroup = Y;
note = Y;
rightKerningGroup = Y;
unicode = 0059;
},
{
glyphname = Yacute;
layers = (
{
hints = (
{
horizontal = 1;
place = "{0, 976}";
type = Stem;
},
{
place = "{274, 154}";
type = Stem;
}
);
layerId = "6DD95C5A-998B-41AB-BDFB-84A73C209871";
paths = (
{
closed = 1;
nodes = (
"418 976 LINE",
"205 777 LINE",
"323 741 LINE",
"495 848 LINE"
);
},
{
closed = 1;
nodes = (
"274 0 LINE",
"428 0 LINE",
"428 306.86 LINE",
"683 700 LINE",
"525 700 LINE",
"351.37 420.77 LINE",
"178 700 LINE",
"20 700 LINE",
"274 306.89 LINE"
);
}
);
width = 703;
}
);
leftKerningGroup = Y;
note = Yacute;
rightKerningGroup = Y;
unicode = 00DD;
},
{
glyphname = Ydieresis;
layers = (
{
hints = (
{
horizontal = 1;
place = "{761, 124}";
type = Stem;
},
{
place = "{151, 154}";
type = Stem;
},
{
place = "{399, 154}";
type = Stem;
},
{
place = "{274, 154}";
type = Stem;
}
);
layerId = "6DD95C5A-998B-41AB-BDFB-84A73C209871";
paths = (
{
closed = 1;
nodes = (
"305 761 LINE",
"305 885 LINE",
"151 885 LINE",
"151 761 LINE"
);
},
{
closed = 1;
nodes = (
"553 761 LINE",
"553 885 LINE",
"399 885 LINE",
"399 761 LINE"
);
},
{
closed = 1;
nodes = (
"274 0 LINE",
"428 0 LINE",
"428 306.86 LINE",
"683 700 LINE",
"525 700 LINE",
"351.37 420.77 LINE",
"178 700 LINE",
"20 700 LINE",
"274 306.89 LINE"
);
}
);
width = 703;
}
);
leftKerningGroup = Y;
note = Ydieresis;
rightKerningGroup = Y;
unicode = 0178;
},
{
glyphname = Z;
layers = (
{
hints = (
{
horizontal = 1;
place = "{0, 125}";
type = Stem;
},
{
horizontal = 1;
place = "{576, 124}";
type = Stem;
},
{
place = "{23, 569}";
type = Stem;
}
);
layerId = "6DD95C5A-998B-41AB-BDFB-84A73C209871";
paths = (
{
closed = 1;
nodes = (
"588 125 LINE",
"215.32 125 LINE",
"592 576 LINE",
"592 700 LINE",
"45 700 LINE",
"45 576 LINE",
"399.19 576 LINE",
"31.16 125 LINE",
"23 125 LINE",
"23 0 LINE",
"588 0 LINE"
);
}
);
width = 615;
}
);
leftKerningGroup = Z;
note = Z;
rightKerningGroup = Z;
unicode = 005A;
},
{
glyphname = Zcaron;
layers = (
{
hints = (
{
horizontal = 1;
place = "{0, 125}";
type = Stem;
},
{
horizontal = 1;
place = "{576, 124}";
type = Stem;
},
{
place = "{23, 569}";
type = Stem;
}
);
layerId = "6DD95C5A-998B-41AB-BDFB-84A73C209871";
paths = (
{
closed = 1;
nodes = (
"195 950 LINE",
"97 944 LINE",
"310 745 LINE",
"523 944 LINE",
"425 950 LINE",
"310 878.46 LINE"
);
},
{
closed = 1;
nodes = (
"588 125 LINE",
"215.32 125 LINE",
"592 576 LINE",
"592 700 LINE",
"45 700 LINE",
"45 576 LINE",
"399.19 576 LINE",
"31.16 125 LINE",
"23 125 LINE",
"23 0 LINE",
"588 0 LINE"
);
}
);
width = 615;
}
);
leftKerningGroup = Z;
note = Zcaron;
rightKerningGroup = Z;
unicode = 017D;
},
{
glyphname = a;
layers = (
{
hints = (
{
horizontal = 1;
place = "{-13.01, 94}";
type = Stem;
},
{
horizontal = 1;
place = "{407.02, 101.97}";
type = Stem;
},
{
place = "{30, 148}";
type = Stem;
},
{
place = "{365.09, 152.91}";
type = Stem;
},
{
place = "{69.64, 151.35}";
type = Stem;
}
);
layerId = "6DD95C5A-998B-41AB-BDFB-84A73C209871";
paths = (
{
closed = 1;
nodes = (
"171.21 509 OFFCURVE",
"69.64 440.96 OFFCURVE",
"69.64 358.59 CURVE SMOOTH",
"69.64 348.9 OFFCURVE",
"71.05 339 OFFCURVE",
"74 329 CURVE",
"221.75 329 LINE",
"221.4 330.05 OFFCURVE",
"220.99 333.07 OFFCURVE",
"220.99 337.35 CURVE SMOOTH",
"220.99 357.81 OFFCURVE",
"230.4 407.02 OFFCURVE",
"300.91 407.02 CURVE SMOOTH",
"343.94 407.02 OFFCURVE",
"363.47 388.07 OFFCURVE",
"363.47 353.78 CURVE SMOOTH",
"363.47 315.24 OFFCURVE",
"319.63 303.23 OFFCURVE",
"253 296.99 CURVE SMOOTH",
"89.12 281.65 OFFCURVE",
"30 224.56 OFFCURVE",
"30 142.99 CURVE SMOOTH",
"30 55.99 OFFCURVE",
"90 -13.01 OFFCURVE",
"220 -13.01 CURVE SMOOTH",
"292.57 -13.01 OFFCURVE",
"337.9 15.92 OFFCURVE",
"365.18 57.4 CURVE",
"365 -0.01 LINE",
"518 -0.01 LINE",
"518 300.99 LINE SMOOTH",
"518 378.99 OFFCURVE",
"499 508.99 OFFCURVE",
"292 508.99 CURVE SMOOTH"
);
},
{
closed = 1;
nodes = (
"201 80.99 OFFCURVE",
"178 115.99 OFFCURVE",
"178 147.99 CURVE SMOOTH",
"178 187.99 OFFCURVE",
"216 206.99 OFFCURVE",
"263 212.99 CURVE SMOOTH",
"299.13 217.36 OFFCURVE",
"334.47 225.82 OFFCURVE",
"365.2 238.82 CURVE",
"365.36 228.8 LINE SMOOTH",
"365.3 121.2 OFFCURVE",
"308.04 80.99 OFFCURVE",
"250 80.99 CURVE SMOOTH"
);
}
);
width = 568;
}
);
leftKerningGroup = a;
note = a;
rightKerningGroup = a;
unicode = 0061;
},
{
glyphname = aacute;
layers = (
{
hints = (
{
horizontal = 1;
place = "{-13.01, 94}";
type = Stem;
},
{
horizontal = 1;
place = "{407.02, 101.97}";
type = Stem;
},
{
place = "{30, 148}";
type = Stem;
},
{
place = "{365.09, 152.91}";
type = Stem;
},
{
place = "{69.64, 151.35}";
type = Stem;
}
);
layerId = "6DD95C5A-998B-41AB-BDFB-84A73C209871";
paths = (
{
closed = 1;
nodes = (
"324 791 LINE",
"111 592 LINE",
"229 556 LINE",
"401 663 LINE"
);
},
{
closed = 1;
nodes = (
"171.21 509 OFFCURVE",
"69.64 440.96 OFFCURVE",
"69.64 358.59 CURVE SMOOTH",
"69.64 348.9 OFFCURVE",
"71.05 339 OFFCURVE",
"74 329 CURVE",
"221.75 329 LINE",
"221.4 330.05 OFFCURVE",
"220.99 333.07 OFFCURVE",
"220.99 337.35 CURVE SMOOTH",
"220.99 357.81 OFFCURVE",
"230.4 407.02 OFFCURVE",
"300.91 407.02 CURVE SMOOTH",
"343.94 407.02 OFFCURVE",
"363.47 388.07 OFFCURVE",
"363.47 353.78 CURVE SMOOTH",
"363.47 315.24 OFFCURVE",
"319.63 303.23 OFFCURVE",
"253 296.99 CURVE SMOOTH",
"89.12 281.65 OFFCURVE",
"30 224.56 OFFCURVE",
"30 142.99 CURVE SMOOTH",
"30 55.99 OFFCURVE",
"90 -13.01 OFFCURVE",
"220 -13.01 CURVE SMOOTH",
"292.57 -13.01 OFFCURVE",
"337.9 15.92 OFFCURVE",
"365.18 57.4 CURVE",
"365 -0.01 LINE",
"518 -0.01 LINE",
"518 300.99 LINE SMOOTH",
"518 378.99 OFFCURVE",
"499 508.99 OFFCURVE",
"292 508.99 CURVE SMOOTH"
);
},
{
closed = 1;
nodes = (
"201 80.99 OFFCURVE",
"178 115.99 OFFCURVE",
"178 147.99 CURVE SMOOTH",
"178 187.99 OFFCURVE",
"216 206.99 OFFCURVE",
"263 212.99 CURVE SMOOTH",
"299.13 217.36 OFFCURVE",
"334.47 225.82 OFFCURVE",
"365.2 238.82 CURVE",
"365.36 228.8 LINE SMOOTH",
"365.3 121.2 OFFCURVE",
"308.04 80.99 OFFCURVE",
"250 80.99 CURVE SMOOTH"
);
}
);
width = 568;
}
);
leftKerningGroup = a;
note = aacute;
rightKerningGroup = aacute;
unicode = 00E1;
},
{
glyphname = acircumflex;
layers = (
{
hints = (
{
horizontal = 1;
place = "{-13.01, 94}";
type = Stem;
},
{
horizontal = 1;
place = "{407.02, 101.97}";
type = Stem;
},
{
place = "{30, 148}";
type = Stem;
},
{
place = "{365.09, 152.91}";
type = Stem;
},
{
place = "{69.64, 151.35}";
type = Stem;
}
);
layerId = "6DD95C5A-998B-41AB-BDFB-84A73C209871";
paths = (
{
closed = 1;
nodes = (
"45 600 LINE",
"167 562 LINE",
"259 648.42 LINE",
"351 562 LINE",
"473 600 LINE",
"274.54 774.46 LINE",
"260 789 LINE",
"259 788.12 LINE",
"258 789 LINE",
"243.46 774.46 LINE"
);
},
{
closed = 1;
nodes = (
"171.21 509 OFFCURVE",
"69.64 440.96 OFFCURVE",
"69.64 358.59 CURVE SMOOTH",
"69.64 348.9 OFFCURVE",
"71.05 339 OFFCURVE",
"74 329 CURVE",
"221.75 329 LINE",
"221.4 330.05 OFFCURVE",
"220.99 333.07 OFFCURVE",
"220.99 337.35 CURVE SMOOTH",
"220.99 357.81 OFFCURVE",
"230.4 407.02 OFFCURVE",
"300.91 407.02 CURVE SMOOTH",
"343.94 407.02 OFFCURVE",
"363.47 388.07 OFFCURVE",
"363.47 353.78 CURVE SMOOTH",
"363.47 315.24 OFFCURVE",
"319.63 303.23 OFFCURVE",
"253 296.99 CURVE SMOOTH",
"89.12 281.65 OFFCURVE",
"30 224.56 OFFCURVE",
"30 142.99 CURVE SMOOTH",
"30 55.99 OFFCURVE",
"90 -13.01 OFFCURVE",
"220 -13.01 CURVE SMOOTH",
"292.57 -13.01 OFFCURVE",
"337.9 15.92 OFFCURVE",
"365.18 57.4 CURVE",
"365 -0.01 LINE",
"518 -0.01 LINE",
"518 300.99 LINE SMOOTH",
"518 378.99 OFFCURVE",
"499 508.99 OFFCURVE",
"292 508.99 CURVE SMOOTH"
);
},
{
closed = 1;
nodes = (
"201 80.99 OFFCURVE",
"178 115.99 OFFCURVE",
"178 147.99 CURVE SMOOTH",
"178 187.99 OFFCURVE",
"216 206.99 OFFCURVE",
"263 212.99 CURVE SMOOTH",
"299.13 217.36 OFFCURVE",
"334.47 225.82 OFFCURVE",
"365.2 238.82 CURVE",
"365.36 228.8 LINE SMOOTH",
"365.3 121.2 OFFCURVE",
"308.04 80.99 OFFCURVE",
"250 80.99 CURVE SMOOTH"
);
}
);
width = 568;
}
);
leftKerningGroup = a;
note = acircumflex;
rightKerningGroup = aacute;
unicode = 00E2;
},
{
glyphname = adieresis;
layers = (
{
hints = (
{
horizontal = 1;
place = "{-13.01, 94}";
type = Stem;
},
{
horizontal = 1;
place = "{407.02, 101.97}";
type = Stem;
},
{
horizontal = 1;
place = "{575, 124}";
type = Stem;
},
{
place = "{89, 154}";
type = Stem;
},
{
place = "{365.09, 152.91}";
type = Stem;
},
{
place = "{337, 154}";
type = Stem;
},
{
place = "{69.64, 151.35}";
type = Stem;
},
{
place = "{30, 148}";
type = Stem;
}
);
layerId = "6DD95C5A-998B-41AB-BDFB-84A73C209871";
paths = (
{
closed = 1;
nodes = (
"243 575 LINE",
"243 699 LINE",
"89 699 LINE",
"89 575 LINE"
);
},
{
closed = 1;
nodes = (
"491 575 LINE",
"491 699 LINE",
"337 699 LINE",
"337 575 LINE"
);
},
{
closed = 1;
nodes = (
"171.21 509 OFFCURVE",
"69.64 440.96 OFFCURVE",
"69.64 358.59 CURVE SMOOTH",
"69.64 348.9 OFFCURVE",
"71.05 339 OFFCURVE",
"74 329 CURVE",
"221.75 329 LINE",
"221.4 330.05 OFFCURVE",
"220.99 333.07 OFFCURVE",
"220.99 337.35 CURVE SMOOTH",
"220.99 357.81 OFFCURVE",
"230.4 407.02 OFFCURVE",
"300.91 407.02 CURVE SMOOTH",
"343.94 407.02 OFFCURVE",
"363.47 388.07 OFFCURVE",
"363.47 353.78 CURVE SMOOTH",
"363.47 315.24 OFFCURVE",
"319.63 303.23 OFFCURVE",
"253 296.99 CURVE SMOOTH",
"89.12 281.65 OFFCURVE",
"30 224.56 OFFCURVE",
"30 142.99 CURVE SMOOTH",
"30 55.99 OFFCURVE",
"90 -13.01 OFFCURVE",
"220 -13.01 CURVE SMOOTH",
"292.57 -13.01 OFFCURVE",
"337.9 15.92 OFFCURVE",
"365.18 57.4 CURVE",
"365 -0.01 LINE",
"518 -0.01 LINE",
"518 300.99 LINE SMOOTH",
"518 378.99 OFFCURVE",
"499 508.99 OFFCURVE",
"292 508.99 CURVE SMOOTH"
);
},
{
closed = 1;
nodes = (
"201 80.99 OFFCURVE",
"178 115.99 OFFCURVE",
"178 147.99 CURVE SMOOTH",
"178 187.99 OFFCURVE",
"216 206.99 OFFCURVE",
"263 212.99 CURVE SMOOTH",
"299.13 217.36 OFFCURVE",
"334.47 225.82 OFFCURVE",
"365.2 238.82 CURVE",
"365.36 228.8 LINE SMOOTH",
"365.3 121.2 OFFCURVE",
"308.04 80.99 OFFCURVE",
"250 80.99 CURVE SMOOTH"
);
}
);
width = 568;
}
);
leftKerningGroup = a;
note = adieresis;
rightKerningGroup = aacute;
unicode = 00E4;
},
{
glyphname = agrave;
layers = (
{
hints = (
{
horizontal = 1;
place = "{-13.01, 94}";
type = Stem;
},
{
horizontal = 1;
place = "{407.02, 101.97}";
type = Stem;
},
{
place = "{30, 148}";
type = Stem;
},
{
place = "{365.09, 152.91}";
type = Stem;
},
{
place = "{69.64, 151.35}";
type = Stem;
}
);
layerId = "6DD95C5A-998B-41AB-BDFB-84A73C209871";
paths = (
{
closed = 1;
nodes = (
"188 791 LINE",
"111 663 LINE",
"283 556 LINE",
"401 592 LINE"
);
},
{
closed = 1;
nodes = (
"171.21 509 OFFCURVE",
"69.64 440.96 OFFCURVE",
"69.64 358.59 CURVE SMOOTH",
"69.64 348.9 OFFCURVE",
"71.05 339 OFFCURVE",
"74 329 CURVE",
"221.75 329 LINE",
"221.4 330.05 OFFCURVE",
"220.99 333.07 OFFCURVE",
"220.99 337.35 CURVE SMOOTH",
"220.99 357.81 OFFCURVE",
"230.4 407.02 OFFCURVE",
"300.91 407.02 CURVE SMOOTH",
"343.94 407.02 OFFCURVE",
"363.47 388.07 OFFCURVE",
"363.47 353.78 CURVE SMOOTH",
"363.47 315.24 OFFCURVE",
"319.63 303.23 OFFCURVE",
"253 296.99 CURVE SMOOTH",
"89.12 281.65 OFFCURVE",
"30 224.56 OFFCURVE",
"30 142.99 CURVE SMOOTH",
"30 55.99 OFFCURVE",
"90 -13.01 OFFCURVE",
"220 -13.01 CURVE SMOOTH",
"292.57 -13.01 OFFCURVE",
"337.9 15.92 OFFCURVE",
"365.18 57.4 CURVE",
"365 -0.01 LINE",
"518 -0.01 LINE",
"518 300.99 LINE SMOOTH",
"518 378.99 OFFCURVE",
"499 508.99 OFFCURVE",
"292 508.99 CURVE SMOOTH"
);
},
{
closed = 1;
nodes = (
"201 80.99 OFFCURVE",
"178 115.99 OFFCURVE",
"178 147.99 CURVE SMOOTH",
"178 187.99 OFFCURVE",
"216 206.99 OFFCURVE",
"263 212.99 CURVE SMOOTH",
"299.13 217.36 OFFCURVE",
"334.47 225.82 OFFCURVE",
"365.2 238.82 CURVE",
"365.36 228.8 LINE SMOOTH",
"365.3 121.2 OFFCURVE",
"308.04 80.99 OFFCURVE",
"250 80.99 CURVE SMOOTH"
);
}
);
width = 568;
}
);
leftKerningGroup = a;
note = agrave;
rightKerningGroup = aacute;
unicode = 00E0;
},
{
glyphname = aring;
layers = (
{
hints = (
{
horizontal = 1;
place = "{-13.01, 94}";
type = Stem;
},
{
horizontal = 1;
place = "{407.02, 101.97}";
type = Stem;
},
{
horizontal = 1;
place = "{540, 90}";
type = Stem;
},
{
horizontal = 1;
place = "{736, 90}";
type = Stem;
},
{
place = "{115, 90}";
type = Stem;
},
{
place = "{365.09, 152.91}";
type = Stem;
},
{
place = "{311, 90}";
type = Stem;
},
{
place = "{69.64, 151.35}";
type = Stem;
},
{
place = "{30, 148}";
type = Stem;
}
);
layerId = "6DD95C5A-998B-41AB-BDFB-84A73C209871";
paths = (
{
closed = 1;
nodes = (
"335 540 OFFCURVE",
"401 606 OFFCURVE",
"401 683 CURVE SMOOTH",
"401 760 OFFCURVE",
"335 826 OFFCURVE",
"258 826 CURVE SMOOTH",
"181 826 OFFCURVE",
"115 760 OFFCURVE",
"115 683 CURVE SMOOTH",
"115 606 OFFCURVE",
"181 540 OFFCURVE",
"258 540 CURVE SMOOTH"
);
},
{
closed = 1;
nodes = (
"228 630 OFFCURVE",
"205 653 OFFCURVE",
"205 683 CURVE SMOOTH",
"205 713 OFFCURVE",
"228 736 OFFCURVE",
"258 736 CURVE SMOOTH",
"288 736 OFFCURVE",
"311 713 OFFCURVE",
"311 683 CURVE SMOOTH",
"311 653 OFFCURVE",
"288 630 OFFCURVE",
"258 630 CURVE SMOOTH"
);
},
{
closed = 1;
nodes = (
"171.21 509 OFFCURVE",
"69.64 440.96 OFFCURVE",
"69.64 358.59 CURVE SMOOTH",
"69.64 348.9 OFFCURVE",
"71.05 339 OFFCURVE",
"74 329 CURVE",
"221.75 329 LINE",
"221.4 330.05 OFFCURVE",
"220.99 333.07 OFFCURVE",
"220.99 337.35 CURVE SMOOTH",
"220.99 357.81 OFFCURVE",
"230.4 407.02 OFFCURVE",
"300.91 407.02 CURVE SMOOTH",
"343.94 407.02 OFFCURVE",
"363.47 388.07 OFFCURVE",
"363.47 353.78 CURVE SMOOTH",
"363.47 315.24 OFFCURVE",
"319.63 303.23 OFFCURVE",
"253 296.99 CURVE SMOOTH",
"89.12 281.65 OFFCURVE",
"30 224.56 OFFCURVE",
"30 142.99 CURVE SMOOTH",
"30 55.99 OFFCURVE",
"90 -13.01 OFFCURVE",
"220 -13.01 CURVE SMOOTH",
"292.57 -13.01 OFFCURVE",
"337.9 15.92 OFFCURVE",
"365.18 57.4 CURVE",
"365 -0.01 LINE",
"518 -0.01 LINE",
"518 300.99 LINE SMOOTH",
"518 378.99 OFFCURVE",
"499 508.99 OFFCURVE",
"292 508.99 CURVE SMOOTH"
);
},
{
closed = 1;
nodes = (
"201 80.99 OFFCURVE",
"178 115.99 OFFCURVE",
"178 147.99 CURVE SMOOTH",
"178 187.99 OFFCURVE",
"216 206.99 OFFCURVE",
"263 212.99 CURVE SMOOTH",
"299.13 217.36 OFFCURVE",
"334.47 225.82 OFFCURVE",
"365.2 238.82 CURVE",
"365.36 228.8 LINE SMOOTH",
"365.3 121.2 OFFCURVE",
"308.04 80.99 OFFCURVE",
"250 80.99 CURVE SMOOTH"
);
}
);
width = 568;
}
);
leftKerningGroup = a;
note = aring;
rightKerningGroup = aacute;
unicode = 00E5;
},
{
glyphname = atilde;
layers = (
{
hints = (
{
horizontal = 1;
place = "{-13.01, 94}";
type = Stem;
},
{
horizontal = 1;
place = "{407.02, 101.97}";
type = Stem;
},
{
horizontal = 1;
place = "{581.99, 170}";
type = Stem;
},
{
place = "{85.86, 96.83}";
type = Stem;
},
{
place = "{366.86, 100.3}";
type = Stem;
},
{
place = "{69.64, 151.35}";
type = Stem;
},
{
place = "{365.09, 152.91}";
type = Stem;
},
{
place = "{30, 148}";
type = Stem;
}
);
layerId = "6DD95C5A-998B-41AB-BDFB-84A73C209871";
paths = (
{
closed = 1;
nodes = (
"309 752 LINE",
"351.74 727.57 OFFCURVE",
"366.86 695.33 OFFCURVE",
"366.86 677.11 CURVE SMOOTH",
"366.86 668.48 OFFCURVE",
"363.46 663 OFFCURVE",
"358 663 CURVE SMOOTH",
"335 663 OFFCURVE",
"314 692 OFFCURVE",
"290 709 CURVE SMOOTH",
"246 740 OFFCURVE",
"223 752 OFFCURVE",
"181 752 CURVE SMOOTH",
"116.28 752 OFFCURVE",
"85.86 711.37 OFFCURVE",
"85.86 665.84 CURVE SMOOTH",
"85.86 636.79 OFFCURVE",
"98.24 605.75 OFFCURVE",
"122 581.99 CURVE",
"241 581.99 LINE",
"198.28 606.4 OFFCURVE",
"182.69 638.63 OFFCURVE",
"182.69 656.85 CURVE SMOOTH",
"182.69 665.5 OFFCURVE",
"186.2 670.99 OFFCURVE",
"192 670.99 CURVE SMOOTH",
"216 670.99 OFFCURVE",
"237 641.99 OFFCURVE",
"277 613.99 CURVE SMOOTH",
"301 595.99 OFFCURVE",
"332 581.99 OFFCURVE",
"369 581.99 CURVE SMOOTH",
"431.86 581.99 OFFCURVE",
"467.16 628.56 OFFCURVE",
"467.16 675.08 CURVE SMOOTH",
"467.16 704.78 OFFCURVE",
"452.78 734.46 OFFCURVE",
"422 752 CURVE"
);
},
{
closed = 1;
nodes = (
"171.21 509 OFFCURVE",
"69.64 440.96 OFFCURVE",
"69.64 358.59 CURVE SMOOTH",
"69.64 348.9 OFFCURVE",
"71.05 339 OFFCURVE",
"74 329 CURVE",
"221.75 329 LINE",
"221.4 330.05 OFFCURVE",
"220.99 333.07 OFFCURVE",
"220.99 337.35 CURVE SMOOTH",
"220.99 357.81 OFFCURVE",
"230.4 407.02 OFFCURVE",
"300.91 407.02 CURVE SMOOTH",
"343.94 407.02 OFFCURVE",
"363.47 388.07 OFFCURVE",
"363.47 353.78 CURVE SMOOTH",
"363.47 315.24 OFFCURVE",
"319.63 303.23 OFFCURVE",
"253 296.99 CURVE SMOOTH",
"89.12 281.65 OFFCURVE",
"30 224.56 OFFCURVE",
"30 142.99 CURVE SMOOTH",
"30 55.99 OFFCURVE",
"90 -13.01 OFFCURVE",
"220 -13.01 CURVE SMOOTH",
"292.57 -13.01 OFFCURVE",
"337.9 15.92 OFFCURVE",
"365.18 57.4 CURVE",
"365 -0.01 LINE",
"518 -0.01 LINE",
"518 300.99 LINE SMOOTH",
"518 378.99 OFFCURVE",
"499 508.99 OFFCURVE",
"292 508.99 CURVE SMOOTH"
);
},
{
closed = 1;
nodes = (
"201 80.99 OFFCURVE",
"178 115.99 OFFCURVE",
"178 147.99 CURVE SMOOTH",
"178 187.99 OFFCURVE",
"216 206.99 OFFCURVE",
"263 212.99 CURVE SMOOTH",
"299.13 217.36 OFFCURVE",
"334.47 225.82 OFFCURVE",
"365.2 238.82 CURVE",
"365.36 228.8 LINE SMOOTH",
"365.3 121.2 OFFCURVE",
"308.04 80.99 OFFCURVE",
"250 80.99 CURVE SMOOTH"
);
}
);
width = 568;
}
);
leftKerningGroup = a;
note = atilde;
rightKerningGroup = aacute;
unicode = 00E3;
},
{
glyphname = ae;
layers = (
{
hints = (
{
horizontal = 1;
place = "{-11.93, 106.93}";
type = Stem;
},
{
horizontal = 1;
place = "{215.45, 92.23}";
type = Stem;
},
{
horizontal = 1;
place = "{407.03, 101.97}";
type = Stem;
},
{
place = "{30.01, 148}";
type = Stem;
},
{
place = "{365.36, 152.64}";
type = Stem;
},
{
place = "{729.71, 152.43}";
type = Stem;
},
{
place = "{69.65, 151.35}";
type = Stem;
},
{
horizontal = 1;
place = "{-13, 94.01}";
type = Stem;
}
);
layerId = "6DD95C5A-998B-41AB-BDFB-84A73C209871";
paths = (
{
closed = 1;
nodes = (
"765.13 186 LINE",
"747.13 132 OFFCURVE",
"711.08 95 OFFCURVE",
"648.13 95 CURVE SMOOTH",
"571.59 95 OFFCURVE",
"532.95 130.02 OFFCURVE",
"518 186.79 CURVE",
"518 215.45 LINE",
"873.14 215.45 LINE",
"879.21 241.95 OFFCURVE",
"882.14 267.08 OFFCURVE",
"882.14 290.66 CURVE SMOOTH",
"882.14 426.4 OFFCURVE",
"784.9 511 OFFCURVE",
"628.14 511 CURVE SMOOTH",
"561.56 511 OFFCURVE",
"503.66 492.92 OFFCURVE",
"459.26 459.77 CURVE",
"425.72 488.9 OFFCURVE",
"373.4 509 OFFCURVE",
"292.01 509 CURVE SMOOTH",
"171.22 509 OFFCURVE",
"69.65 440.96 OFFCURVE",
"69.65 358.6 CURVE SMOOTH",
"69.65 348.9 OFFCURVE",
"71.06 339.01 OFFCURVE",
"74.01 329 CURVE",
"221.76 329 LINE",
"221.41 330.05 OFFCURVE",
"221 333.07 OFFCURVE",
"221 337.35 CURVE SMOOTH",
"221 357.81 OFFCURVE",
"230.41 407.03 OFFCURVE",
"300.92 407.03 CURVE SMOOTH",
"343.95 407.03 OFFCURVE",
"363.48 388.08 OFFCURVE",
"363.48 353.79 CURVE SMOOTH",
"363.48 315.25 OFFCURVE",
"319.64 303.23 OFFCURVE",
"253.01 297 CURVE SMOOTH",
"89.13 281.66 OFFCURVE",
"30.01 224.56 OFFCURVE",
"30.01 143 CURVE SMOOTH",
"30.01 56 OFFCURVE",
"90.01 -13 OFFCURVE",
"220.01 -13 CURVE SMOOTH",
"320.93 -13 OFFCURVE",
"381.24 34.14 OFFCURVE",
"404.18 100.44 CURVE",
"450.3 25.79 OFFCURVE",
"534.08 -11.93 OFFCURVE",
"638.14 -11.93 CURVE SMOOTH",
"750.05 -11.93 OFFCURVE",
"853.27 35.49 OFFCURVE",
"888.46 127.59 CURVE"
);
},
{
closed = 1;
nodes = (
"692.94 406 OFFCURVE",
"729.71 375.61 OFFCURVE",
"729.71 326.07 CURVE SMOOTH",
"729.71 320.2 OFFCURVE",
"729.19 314.07 OFFCURVE",
"728.14 307.68 CURVE",
"517.96 307.68 LINE",
"517.94 309.01 OFFCURVE",
"517.91 310.36 OFFCURVE",
"517.88 311.71 CURVE",
"536.33 376.19 OFFCURVE",
"585.9 406.01 OFFCURVE",
"632.14 406.01 CURVE SMOOTH"
);
},
{
closed = 1;
nodes = (
"201.01 81.01 OFFCURVE",
"178.01 116.01 OFFCURVE",
"178.01 148.01 CURVE SMOOTH",
"178.01 188.01 OFFCURVE",
"216.01 207.01 OFFCURVE",
"263.01 213.01 CURVE SMOOTH",
"299.13 217.37 OFFCURVE",
"334.47 225.84 OFFCURVE",
"365.21 238.84 CURVE",
"365.36 228.81 LINE SMOOTH",
"365.3 121.21 OFFCURVE",
"308.04 81.01 OFFCURVE",
"250.01 81.01 CURVE SMOOTH"
);
}
);
width = 908;
}
);
leftKerningGroup = a;
note = ae;
rightKerningGroup = ae;
unicode = 00E6;
},
{
glyphname = b;
layers = (
{
hints = (
{
horizontal = 1;
place = "{-9.01, 111}";
type = Stem;
},
{
horizontal = 1;
place = "{401.99, 110}";
type = Stem;
},
{
place = "{35.5, 152.5}";
type = Stem;
},
{
place = "{455, 153}";
type = Stem;
}
);
layerId = "6DD95C5A-998B-41AB-BDFB-84A73C209871";
paths = (
{
closed = 1;
nodes = (
"277.55 512 OFFCURVE",
"226.38 494.91 OFFCURVE",
"188 467.18 CURVE",
"188 692.99 LINE",
"35 692.99 LINE",
"36 -0.01 LINE",
"188 -0.01 LINE",
"188 33.8 LINE",
"225.89 7.45 OFFCURVE",
"276.8 -9.01 OFFCURVE",
"344 -9.01 CURVE SMOOTH",
"504 -9.01 OFFCURVE",
"608 110.99 OFFCURVE",
"608 251.99 CURVE SMOOTH",
"608 393.99 OFFCURVE",
"503 511.99 OFFCURVE",
"344 511.99 CURVE SMOOTH"
);
},
{
closed = 1;
nodes = (
"235 101.99 OFFCURVE",
"178 152.99 OFFCURVE",
"178 251.99 CURVE SMOOTH",
"178 349.99 OFFCURVE",
"235 401.99 OFFCURVE",
"324 401.99 CURVE SMOOTH",
"407 401.99 OFFCURVE",
"455 340.99 OFFCURVE",
"455 251.99 CURVE SMOOTH",
"455 161.99 OFFCURVE",
"407 101.99 OFFCURVE",
"324 101.99 CURVE SMOOTH"
);
}
);
width = 638;
}
);
leftKerningGroup = b;
note = b;
rightKerningGroup = b;
unicode = 0062;
},
{
glyphname = c;
layers = (
{
hints = (
{
horizontal = 1;
place = "{-12, 106}";
type = Stem;
},
{
horizontal = 1;
place = "{406, 105}";
type = Stem;
},
{
place = "{30, 144}";
type = Stem;
}
);
layerId = "6DD95C5A-998B-41AB-BDFB-84A73C209871";
paths = (
{
closed = 1;
nodes = (
"565 365 LINE",
"537 452 OFFCURVE",
"448 511 OFFCURVE",
"318 511 CURVE SMOOTH",
"154 511 OFFCURVE",
"30 413 OFFCURVE",
"30 245 CURVE SMOOTH",
"30 78 OFFCURVE",
"165 -12 OFFCURVE",
"312 -12 CURVE SMOOTH",
"445 -12 OFFCURVE",
"534.7 39.35 OFFCURVE",
"581.11 149.62 CURVE",
"447.13 202.82 LINE",
"428.39 135.82 OFFCURVE",
"395.44 94 OFFCURVE",
"312 94 CURVE SMOOTH",
"222 94 OFFCURVE",
"174 157.03 OFFCURVE",
"174 245 CURVE SMOOTH",
"174 350 OFFCURVE",
"238 406 OFFCURVE",
"318 406 CURVE SMOOTH",
"374.99 406 OFFCURVE",
"432 366.54 OFFCURVE",
"432 302.68 CURVE"
);
}
);
width = 599;
}
);
leftKerningGroup = a;
note = c;
rightKerningGroup = c;
unicode = 0063;
},
{
glyphname = ccedilla;
layers = (
{
hints = (
{
horizontal = 1;
place = "{-211, 63}";
type = Stem;
},
{
horizontal = 1;
place = "{-107.01, 75}";
type = Stem;
},
{
horizontal = 1;
place = "{406, 105}";
type = Stem;
},
{
place = "{30, 144}";
type = Stem;
},
{
place = "{344.84, 78.15}";
type = Stem;
}
);
layerId = "6DD95C5A-998B-41AB-BDFB-84A73C209871";
paths = (
{
closed = 1;
nodes = (
"447.13 202.82 LINE",
"428.4 135.82 OFFCURVE",
"395.45 94 OFFCURVE",
"312 94 CURVE SMOOTH",
"222 94 OFFCURVE",
"174 157.03 OFFCURVE",
"174 245 CURVE SMOOTH",
"174 350 OFFCURVE",
"238 406 OFFCURVE",
"318 406 CURVE SMOOTH",
"374.99 406 OFFCURVE",
"432.01 366.54 OFFCURVE",
"432.01 302.68 CURVE",
"565 365 LINE",
"537 452 OFFCURVE",
"448 511 OFFCURVE",
"318 511 CURVE SMOOTH",
"154 511 OFFCURVE",
"30 413 OFFCURVE",
"30 245 CURVE SMOOTH",
"30 99.39 OFFCURVE",
"132.63 12.32 OFFCURVE",
"256.36 -7.6 CURVE",
"211 -107.01 LINE",
"302 -107.01 LINE",
"306 -100.01 OFFCURVE",
"315 -92.01 OFFCURVE",
"327 -92.01 CURVE SMOOTH",
"335.56 -92.01 OFFCURVE",
"344.84 -96.4 OFFCURVE",
"344.84 -109.56 CURVE SMOOTH",
"344.84 -111.79 OFFCURVE",
"344.58 -114.26 OFFCURVE",
"344 -117.01 CURVE SMOOTH",
"340 -136.01 OFFCURVE",
"314 -148.01 OFFCURVE",
"283 -148.01 CURVE SMOOTH",
"247 -148.01 OFFCURVE",
"211 -134.01 OFFCURVE",
"199 -124.01 CURVE",
"199 -193.01 LINE",
"216 -205.01 OFFCURVE",
"245 -211.01 OFFCURVE",
"277 -211.01 CURVE SMOOTH",
"331 -211.01 OFFCURVE",
"406 -190.01 OFFCURVE",
"421 -120.01 CURVE SMOOTH",
"422.35 -113.23 OFFCURVE",
"422.99 -106.86 OFFCURVE",
"422.99 -100.9 CURVE SMOOTH",
"422.99 -54.04 OFFCURVE",
"383.46 -32.01 OFFCURVE",
"340 -32.01 CURVE SMOOTH",
"322 -32.01 OFFCURVE",
"301 -39.01 OFFCURVE",
"293 -44.01 CURVE",
"315.41 -12 LINE",
"446.53 -11.13 OFFCURVE",
"535.1 40.28 OFFCURVE",
"581.11 149.61 CURVE"
);
}
);
width = 599;
}
);
leftKerningGroup = a;
note = ccedilla;
rightKerningGroup = c;
unicode = 00E7;
},
{
glyphname = d;
layers = (
{
hints = (
{
horizontal = 1;
place = "{-9.01, 111}";
type = Stem;
},
{
horizontal = 1;
place = "{401.99, 110}";
type = Stem;
},
{
place = "{30, 153}";
type = Stem;
},
{
place = "{450, 152.5}";
type = Stem;
}
);
layerId = "6DD95C5A-998B-41AB-BDFB-84A73C209871";
paths = (
{
closed = 1;
nodes = (
"602 -0.01 LINE",
"603 692.99 LINE",
"450 692.99 LINE",
"450 467.18 LINE",
"411.84 494.75 OFFCURVE",
"361.03 511.8 OFFCURVE",
"295.13 511.99 CURVE SMOOTH",
"294 511.99 LINE SMOOTH",
"135 511.99 OFFCURVE",
"30 393.99 OFFCURVE",
"30 251.99 CURVE SMOOTH",
"30 110.99 OFFCURVE",
"134 -9.01 OFFCURVE",
"294 -9.01 CURVE SMOOTH",
"295.05 -9.01 LINE SMOOTH",
"361.72 -8.84 OFFCURVE",
"412.3 7.59 OFFCURVE",
"449.99 33.8 CURVE",
"449.99 -0.01 LINE"
);
},
{
closed = 1;
nodes = (
"459.99 152.99 OFFCURVE",
"402.99 101.99 OFFCURVE",
"313.99 101.99 CURVE SMOOTH",
"275.74 101.99 OFFCURVE",
"244.92 114.74 OFFCURVE",
"222.81 137.29 CURVE SMOOTH",
"196.95 163.67 OFFCURVE",
"183 203.47 OFFCURVE",
"183 251.99 CURVE SMOOTH",
"183 340.99 OFFCURVE",
"231 401.99 OFFCURVE",
"314 401.99 CURVE SMOOTH",
"358.85 401.99 OFFCURVE",
"395.57 388.78 OFFCURVE",
"420.97 363.14 CURVE SMOOTH",
"445.97 337.9 OFFCURVE",
"460 300.6 OFFCURVE",
"460 251.99 CURVE SMOOTH"
);
}
);
width = 638;
}
);
leftKerningGroup = a;
note = d;
rightKerningGroup = d;
unicode = 0064;
},
{
glyphname = eth;
layers = (
{
hints = (
{
horizontal = 1;
place = "{-4, 112}";
type = Stem;
},
{
horizontal = 1;
place = "{406.88, 111.12}";
type = Stem;
},
{
place = "{24.99, 154}";
type = Stem;
},
{
place = "{414.99, 151}";
type = Stem;
}
);
layerId = "6DD95C5A-998B-41AB-BDFB-84A73C209871";
paths = (
{
closed = 1;
nodes = (
"566 486.29 OFFCURVE",
"483.31 618.08 OFFCURVE",
"345.65 698.23 CURVE",
"393.99 740 LINE",
"330.99 814 LINE",
"248.94 742.74 LINE",
"190.94 763.29 OFFCURVE",
"126.52 776.41 OFFCURVE",
"56.99 781 CURVE",
"56.99 665 LINE",
"87.34 661.52 OFFCURVE",
"115.61 656.4 OFFCURVE",
"141.87 649.76 CURVE",
"102.99 615.99 LINE",
"165.99 542.99 LINE",
"244.73 611.03 LINE",
"295.51 584.11 OFFCURVE",
"334.48 548.9 OFFCURVE",
"362.56 507.18 CURVE",
"339.47 514.11 OFFCURVE",
"314.58 518 OFFCURVE",
"287.99 518 CURVE SMOOTH",
"280.99 518 OFFCURVE",
"269.99 518 OFFCURVE",
"260.99 517 CURVE SMOOTH",
"112.99 501 OFFCURVE",
"24.99 390 OFFCURVE",
"24.99 263 CURVE SMOOTH",
"24.99 254 OFFCURVE",
"25.99 242 OFFCURVE",
"26.99 232 CURVE SMOOTH",
"40.99 101 OFFCURVE",
"142.99 -4 OFFCURVE",
"285.99 -4 CURVE SMOOTH",
"297.99 -4 OFFCURVE",
"307.99 -3 OFFCURVE",
"317.99 -2 CURVE SMOOTH",
"459.92 12.8 OFFCURVE",
"537.4 124.64 OFFCURVE",
"555.07 221.31 CURVE",
"564 259.19 OFFCURVE",
"565.99 294.08 OFFCURVE",
"565.99 326 CURVE SMOOTH"
);
},
{
closed = 1;
nodes = (
"289.99 108 LINE SMOOTH",
"228.99 108 OFFCURVE",
"178.99 171 OFFCURVE",
"178.99 267 CURVE SMOOTH",
"178.99 350.65 OFFCURVE",
"226.15 406.88 OFFCURVE",
"290.67 406.88 CURVE SMOOTH",
"340.11 406.88 OFFCURVE",
"414.99 369.33 OFFCURVE",
"414.99 251 CURVE SMOOTH",
"414.99 245.09 OFFCURVE",
"414.75 239.35 OFFCURVE",
"414.29 233.78 CURVE",
"411.1 211.73 LINE",
"397.92 148.73 OFFCURVE",
"352.83 112.19 OFFCURVE",
"299.99 107.99 CURVE"
);
}
);
width = 573;
}
);
note = eth;
unicode = 00F0;
},
{
glyphname = e;
layers = (
{
hints = (
{
horizontal = 1;
place = "{-11.94, 106.94}";
type = Stem;
},
{
horizontal = 1;
place = "{215.45, 92.22}";
type = Stem;
},
{
horizontal = 1;
place = "{405.99, 105}";
type = Stem;
},
{
place = "{31, 147.47}";
type = Stem;
},
{
place = "{395.56, 152.44}";
type = Stem;
}
);
layerId = "6DD95C5A-998B-41AB-BDFB-84A73C209871";
paths = (
{
closed = 1;
nodes = (
"431 186 LINE",
"413 132 OFFCURVE",
"376.95 95 OFFCURVE",
"314 95 CURVE SMOOTH",
"225.28 95 OFFCURVE",
"187.49 142.03 OFFCURVE",
"178.47 215.45 CURVE",
"539 215.45 LINE",
"545.07 241.94 OFFCURVE",
"548 267.07 OFFCURVE",
"548 290.66 CURVE SMOOTH",
"548 426.4 OFFCURVE",
"450.76 510.99 OFFCURVE",
"294 510.99 CURVE SMOOTH",
"139 510.99 OFFCURVE",
"31 412.99 OFFCURVE",
"31 254.99 CURVE SMOOTH",
"31 77.99 OFFCURVE",
"143.31 -11.94 OFFCURVE",
"304 -11.94 CURVE SMOOTH",
"415.9 -11.94 OFFCURVE",
"519.13 35.48 OFFCURVE",
"554.32 127.58 CURVE"
);
},
{
closed = 1;
nodes = (
"358.8 405.99 OFFCURVE",
"395.56 375.6 OFFCURVE",
"395.56 326.06 CURVE SMOOTH",
"395.56 320.19 OFFCURVE",
"395.05 314.06 OFFCURVE",
"394 307.67 CURVE",
"182.63 307.67 LINE",
"200.14 374.93 OFFCURVE",
"250.8 405.99 OFFCURVE",
"298 405.99 CURVE SMOOTH"
);
}
);
width = 574;
}
);
leftKerningGroup = a;
note = e;
rightKerningGroup = ae;
unicode = 0065;
},
{
glyphname = eacute;
layers = (
{
hints = (
{
horizontal = 1;
place = "{-11.94, 106.94}";
type = Stem;
},
{
horizontal = 1;
place = "{215.45, 92.22}";
type = Stem;
},
{
horizontal = 1;
place = "{405.99, 105}";
type = Stem;
},
{
place = "{31, 147.47}";
type = Stem;
},
{
place = "{395.56, 152.44}";
type = Stem;
}
);
layerId = "6DD95C5A-998B-41AB-BDFB-84A73C209871";
paths = (
{
closed = 1;
nodes = (
"345 777 LINE",
"132 578 LINE",
"250 542 LINE",
"422 649 LINE"
);
},
{
closed = 1;
nodes = (
"431 186 LINE",
"413 132 OFFCURVE",
"376.95 95 OFFCURVE",
"314 95 CURVE SMOOTH",
"225.28 95 OFFCURVE",
"187.49 142.03 OFFCURVE",
"178.47 215.45 CURVE",
"539 215.45 LINE",
"545.07 241.94 OFFCURVE",
"548 267.07 OFFCURVE",
"548 290.66 CURVE SMOOTH",
"548 426.4 OFFCURVE",
"450.76 510.99 OFFCURVE",
"294 510.99 CURVE SMOOTH",
"139 510.99 OFFCURVE",
"31 412.99 OFFCURVE",
"31 254.99 CURVE SMOOTH",
"31 77.99 OFFCURVE",
"143.31 -11.94 OFFCURVE",
"304 -11.94 CURVE SMOOTH",
"415.9 -11.94 OFFCURVE",
"519.13 35.48 OFFCURVE",
"554.32 127.58 CURVE"
);
},
{
closed = 1;
nodes = (
"358.8 405.99 OFFCURVE",
"395.56 375.6 OFFCURVE",
"395.56 326.06 CURVE SMOOTH",
"395.56 320.19 OFFCURVE",
"395.05 314.06 OFFCURVE",
"394 307.67 CURVE",
"182.63 307.67 LINE",
"200.14 374.93 OFFCURVE",
"250.8 405.99 OFFCURVE",
"298 405.99 CURVE SMOOTH"
);
}
);
width = 574;
}
);
leftKerningGroup = a;
note = eacute;
rightKerningGroup = ae;
unicode = 00E9;
},
{
glyphname = ecircumflex;
layers = (
{
hints = (
{
horizontal = 1;
place = "{-11.94, 106.94}";
type = Stem;
},
{
horizontal = 1;
place = "{215.45, 92.22}";
type = Stem;
},
{
horizontal = 1;
place = "{405.99, 105}";
type = Stem;
},
{
place = "{30.99, 147.48}";
type = Stem;
},
{
place = "{395.56, 152.44}";
type = Stem;
}
);
layerId = "6DD95C5A-998B-41AB-BDFB-84A73C209871";
paths = (
{
closed = 1;
nodes = (
"66 586 LINE",
"188 548 LINE",
"280 634.42 LINE",
"372 548 LINE",
"494 586 LINE",
"295.54 760.46 LINE",
"281 775 LINE",
"280 774.12 LINE",
"279 775 LINE",
"264.46 760.46 LINE"
);
},
{
closed = 1;
nodes = (
"430.99 186 LINE",
"412.99 132 OFFCURVE",
"376.94 95 OFFCURVE",
"313.99 95 CURVE SMOOTH",
"225.28 95 OFFCURVE",
"187.49 142.03 OFFCURVE",
"178.47 215.45 CURVE",
"538.99 215.45 LINE",
"545.06 241.94 OFFCURVE",
"548 267.07 OFFCURVE",
"548 290.66 CURVE SMOOTH",
"548 426.4 OFFCURVE",
"450.75 510.99 OFFCURVE",
"293.99 510.99 CURVE SMOOTH",
"138.99 510.99 OFFCURVE",
"30.99 412.99 OFFCURVE",
"30.99 254.99 CURVE SMOOTH",
"30.99 77.99 OFFCURVE",
"143.3 -11.94 OFFCURVE",
"303.99 -11.94 CURVE SMOOTH",
"415.9 -11.94 OFFCURVE",
"519.12 35.48 OFFCURVE",
"554.31 127.58 CURVE"
);
},
{
closed = 1;
nodes = (
"358.79 405.99 OFFCURVE",
"395.56 375.6 OFFCURVE",
"395.56 326.06 CURVE SMOOTH",
"395.56 320.19 OFFCURVE",
"395.04 314.06 OFFCURVE",
"393.99 307.67 CURVE",
"182.63 307.67 LINE",
"200.14 374.93 OFFCURVE",
"250.8 405.99 OFFCURVE",
"297.99 405.99 CURVE SMOOTH"
);
}
);
width = 574;
}
);
leftKerningGroup = a;
note = ecircumflex;
rightKerningGroup = ae;
unicode = 00EA;
},
{
glyphname = edieresis;
layers = (
{
hints = (
{
horizontal = 1;
place = "{-11.94, 106.94}";
type = Stem;
},
{
horizontal = 1;
place = "{215.45, 92.22}";
type = Stem;
},
{
horizontal = 1;
place = "{405.99, 105}";
type = Stem;
},
{
horizontal = 1;
place = "{562, 124}";
type = Stem;
},
{
place = "{78, 154}";
type = Stem;
},
{
place = "{326, 154}";
type = Stem;
},
{
place = "{31, 147.47}";
type = Stem;
},
{
place = "{395.56, 152.44}";
type = Stem;
}
);
layerId = "6DD95C5A-998B-41AB-BDFB-84A73C209871";
paths = (
{
closed = 1;
nodes = (
"232 562 LINE",
"232 686 LINE",
"78 686 LINE",
"78 562 LINE"
);
},
{
closed = 1;
nodes = (
"480 562 LINE",
"480 686 LINE",
"326 686 LINE",
"326 562 LINE"
);
},
{
closed = 1;
nodes = (
"431 186 LINE",
"413 132 OFFCURVE",
"376.95 95 OFFCURVE",
"314 95 CURVE SMOOTH",
"225.28 95 OFFCURVE",
"187.49 142.03 OFFCURVE",
"178.47 215.45 CURVE",
"539 215.45 LINE",
"545.07 241.94 OFFCURVE",
"548 267.07 OFFCURVE",
"548 290.66 CURVE SMOOTH",
"548 426.4 OFFCURVE",
"450.76 510.99 OFFCURVE",
"294 510.99 CURVE SMOOTH",
"139 510.99 OFFCURVE",
"31 412.99 OFFCURVE",
"31 254.99 CURVE SMOOTH",
"31 77.99 OFFCURVE",
"143.31 -11.94 OFFCURVE",
"304 -11.94 CURVE SMOOTH",
"415.9 -11.94 OFFCURVE",
"519.13 35.48 OFFCURVE",
"554.32 127.58 CURVE"
);
},
{
closed = 1;
nodes = (
"358.8 405.99 OFFCURVE",
"395.56 375.6 OFFCURVE",
"395.56 326.06 CURVE SMOOTH",
"395.56 320.19 OFFCURVE",
"395.05 314.06 OFFCURVE",
"394 307.67 CURVE",
"182.63 307.67 LINE",
"200.14 374.93 OFFCURVE",
"250.8 405.99 OFFCURVE",
"298 405.99 CURVE SMOOTH"
);
}
);
width = 574;
}
);
leftKerningGroup = a;
note = edieresis;
rightKerningGroup = ae;
unicode = 00EB;
},
{
glyphname = egrave;
layers = (
{
hints = (
{
horizontal = 1;
place = "{-11.94, 106.94}";
type = Stem;
},
{
horizontal = 1;
place = "{215.45, 92.22}";
type = Stem;
},
{
horizontal = 1;
place = "{405.99, 105}";
type = Stem;
},
{
place = "{31, 147.47}";
type = Stem;
},
{
place = "{395.56, 152.44}";
type = Stem;
}
);
layerId = "6DD95C5A-998B-41AB-BDFB-84A73C209871";
paths = (
{
closed = 1;
nodes = (
"209 777 LINE",
"132 649 LINE",
"304 542 LINE",
"422 578 LINE"
);
},
{
closed = 1;
nodes = (
"431 186 LINE",
"413 132 OFFCURVE",
"376.95 95 OFFCURVE",
"314 95 CURVE SMOOTH",
"225.28 95 OFFCURVE",
"187.49 142.03 OFFCURVE",
"178.47 215.45 CURVE",
"539 215.45 LINE",
"545.07 241.94 OFFCURVE",
"548 267.07 OFFCURVE",
"548 290.66 CURVE SMOOTH",
"548 426.4 OFFCURVE",
"450.76 510.99 OFFCURVE",
"294 510.99 CURVE SMOOTH",
"139 510.99 OFFCURVE",
"31 412.99 OFFCURVE",
"31 254.99 CURVE SMOOTH",
"31 77.99 OFFCURVE",
"143.31 -11.94 OFFCURVE",
"304 -11.94 CURVE SMOOTH",
"415.9 -11.94 OFFCURVE",
"519.13 35.48 OFFCURVE",
"554.32 127.58 CURVE"
);
},
{
closed = 1;
nodes = (
"358.8 405.99 OFFCURVE",
"395.56 375.6 OFFCURVE",
"395.56 326.06 CURVE SMOOTH",
"395.56 320.19 OFFCURVE",
"395.05 314.06 OFFCURVE",
"394 307.67 CURVE",
"182.63 307.67 LINE",
"200.14 374.93 OFFCURVE",
"250.8 405.99 OFFCURVE",
"298 405.99 CURVE SMOOTH"
);
}
);
width = 574;
}
);
leftKerningGroup = a;
note = egrave;
rightKerningGroup = ae;
unicode = 00E8;
},
{
glyphname = f;
layers = (
{
hints = (
{
horizontal = 1;
place = "{385, 116}";
type = Stem;
},
{
horizontal = 1;
place = "{644, 94}";
type = Stem;
},
{
place = "{94.5, 151.5}";
type = Stem;
},
{
place = "{48, 140}";
type = Stem;
}
);
layerId = "6DD95C5A-998B-41AB-BDFB-84A73C209871";
paths = (
{
closed = 1;
nodes = (
"126 738 OFFCURVE",
"48 674 OFFCURVE",
"48 586 CURVE SMOOTH",
"48 533 OFFCURVE",
"79 509 OFFCURVE",
"93 501 CURVE",
"7 501 LINE",
"7 385 LINE",
"95 385 LINE",
"94 0 LINE",
"246 0 LINE",
"246 385 LINE",
"402 385 LINE",
"402 501 LINE",
"274 501 LINE SMOOTH",
"218 501 OFFCURVE",
"188 538 OFFCURVE",
"188 572 CURVE SMOOTH",
"188 616 OFFCURVE",
"215 644 OFFCURVE",
"267 644 CURVE SMOOTH",
"325 644 OFFCURVE",
"343 593 OFFCURVE",
"352 577 CURVE",
"482 632 LINE",
"466 657 OFFCURVE",
"396 738 OFFCURVE",
"267 738 CURVE SMOOTH"
);
}
);
width = 397;
}
);
leftKerningGroup = f;
note = f;
rightKerningGroup = f;
unicode = 0066;
},
{
glyphname = g;
layers = (
{
hints = (
{
horizontal = 1;
place = "{-260, 111}";
type = Stem;
},
{
horizontal = 1;
place = "{-12, 110}";
type = Stem;
},
{
horizontal = 1;
place = "{398, 111}";
type = Stem;
},
{
place = "{30, 153}";
type = Stem;
},
{
place = "{450, 153}";
type = Stem;
}
);
layerId = "6DD95C5A-998B-41AB-BDFB-84A73C209871";
paths = (
{
closed = 1;
nodes = (
"602 500 LINE",
"450 500 LINE",
"450 453.53 LINE",
"412.85 486.81 OFFCURVE",
"361.89 509 OFFCURVE",
"294 509 CURVE SMOOTH",
"134 509 OFFCURVE",
"30 389 OFFCURVE",
"30 248 CURVE SMOOTH",
"30 106 OFFCURVE",
"135 -12 OFFCURVE",
"294 -12 CURVE SMOOTH",
"361.89 -12 OFFCURVE",
"412.85 10.05 OFFCURVE",
"450 43.15 CURVE",
"450 8 LINE SMOOTH",
"450 -95 OFFCURVE",
"398 -149 OFFCURVE",
"317 -149 CURVE SMOOTH",
"241 -149 OFFCURVE",
"215 -112 OFFCURVE",
"196 -58 CURVE",
"51 -86 LINE",
"70 -170 OFFCURVE",
"151 -260 OFFCURVE",
"317 -260 CURVE SMOOTH",
"485 -260 OFFCURVE",
"603 -159 OFFCURVE",
"603 8 CURVE"
);
},
{
closed = 1;
nodes = (
"231 98 OFFCURVE",
"183 159 OFFCURVE",
"183 248 CURVE SMOOTH",
"183 338 OFFCURVE",
"231 398 OFFCURVE",
"314 398 CURVE SMOOTH",
"403 398 OFFCURVE",
"460 347 OFFCURVE",
"460 248 CURVE SMOOTH",
"460 150 OFFCURVE",
"403 98 OFFCURVE",
"314 98 CURVE SMOOTH"
);
}
);
width = 653;
}
);
leftKerningGroup = a;
note = g;
rightKerningGroup = a;
unicode = 0067;
},
{
glyphname = h;
layers = (
{
hints = (
{
horizontal = 1;
place = "{399, 108}";
type = Stem;
},
{
place = "{45, 152}";
type = Stem;
},
{
place = "{414.69, 155.06}";
type = Stem;
}
);
layerId = "6DD95C5A-998B-41AB-BDFB-84A73C209871";
paths = (
{
closed = 1;
nodes = (
"276.59 507 OFFCURVE",
"229.59 484.17 OFFCURVE",
"197 447.23 CURVE",
"197 700 LINE",
"45 700 LINE",
"45 0 LINE",
"197 0 LINE",
"197 239.38 LINE",
"197.02 239.38 LINE",
"197.24 354.65 OFFCURVE",
"267.31 399 OFFCURVE",
"330.03 399 CURVE SMOOTH",
"393.27 399 OFFCURVE",
"414.69 361 OFFCURVE",
"414.69 294 CURVE SMOOTH",
"414.69 0 LINE",
"569.75 0 LINE",
"569.75 294 LINE SMOOTH",
"569.75 391 OFFCURVE",
"526.9 507 OFFCURVE",
"341.24 507 CURVE SMOOTH"
);
}
);
width = 620;
}
);
leftKerningGroup = b;
note = h;
rightKerningGroup = a;
unicode = 0068;
},
{
glyphname = i;
layers = (
{
hints = (
{
horizontal = 1;
place = "{577, 123}";
type = Stem;
},
{
place = "{50, 152}";
type = Stem;
}
);
layerId = "6DD95C5A-998B-41AB-BDFB-84A73C209871";
paths = (
{
closed = 1;
nodes = (
"202 577 LINE",
"202 700 LINE",
"50 700 LINE",
"50 577 LINE"
);
},
{
closed = 1;
nodes = (
"202 0 LINE",
"202 500 LINE",
"50 500 LINE",
"50 0 LINE"
);
}
);
width = 252;
}
);
leftKerningGroup = i;
note = i;
rightKerningGroup = i;
unicode = 0069;
},
{
glyphname = dotlessi;
layers = (
{
hints = (
{
horizontal = 1;
place = "{0, 500}";
type = Stem;
},
{
place = "{48, 152}";
type = Stem;
}
);
layerId = "6DD95C5A-998B-41AB-BDFB-84A73C209871";
paths = (
{
closed = 1;
nodes = (
"200 0 LINE",
"200 500 LINE",
"48 500 LINE",
"48 0 LINE"
);
}
);
width = 248;
}
);
leftKerningGroup = i;
note = dotlessi;
rightKerningGroup = i;
unicode = 0131;
},
{
glyphname = iacute;
layers = (
{
hints = (
{
horizontal = 1;
place = "{0, 777}";
type = Stem;
},
{
place = "{48, 152}";
type = Stem;
}
);
layerId = "6DD95C5A-998B-41AB-BDFB-84A73C209871";
paths = (
{
closed = 1;
nodes = (
"190 777 LINE",
"-23 578 LINE",
"95 542 LINE",
"267 649 LINE"
);
},
{
closed = 1;
nodes = (
"200 0 LINE",
"200 500 LINE",
"48 500 LINE",
"48 0 LINE"
);
}
);
width = 248;
}
);
leftKerningGroup = i;
note = iacute;
rightKerningGroup = i;
unicode = 00ED;
},
{
glyphname = icircumflex;
layers = (
{
hints = (
{
horizontal = 1;
place = "{0, 775}";
type = Stem;
},
{
place = "{48, 152}";
type = Stem;
}
);
layerId = "6DD95C5A-998B-41AB-BDFB-84A73C209871";
paths = (
{
closed = 1;
nodes = (
"-89 586 LINE",
"33 548 LINE",
"125 634.42 LINE",
"217 548 LINE",
"339 586 LINE",
"140.54 760.46 LINE",
"126 775 LINE",
"125 774.12 LINE",
"124 775 LINE",
"109.46 760.46 LINE"
);
},
{
closed = 1;
nodes = (
"200 0 LINE",
"200 500 LINE",
"48 500 LINE",
"48 0 LINE"
);
}
);
width = 248;
}
);
leftKerningGroup = i;
note = icircumflex;
rightKerningGroup = i;
unicode = 00EE;
},
{
glyphname = idieresis;
layers = (
{
hints = (
{
horizontal = 1;
place = "{562, 124}";
type = Stem;
},
{
place = "{48, 152}";
type = Stem;
},
{
place = "{-77, 154}";
type = Stem;
},
{
place = "{171, 154}";
type = Stem;
}
);
layerId = "6DD95C5A-998B-41AB-BDFB-84A73C209871";
paths = (
{
closed = 1;
nodes = (
"77 562 LINE",
"77 686 LINE",
"-77 686 LINE",
"-77 562 LINE"
);
},
{
closed = 1;
nodes = (
"325 562 LINE",
"325 686 LINE",
"171 686 LINE",
"171 562 LINE"
);
},
{
closed = 1;
nodes = (
"200 0 LINE",
"200 500 LINE",
"48 500 LINE",
"48 0 LINE"
);
}
);
width = 248;
}
);
leftKerningGroup = i;
note = idieresis;
rightKerningGroup = i;
unicode = 00EF;
},
{
glyphname = igrave;
layers = (
{
hints = (
{
horizontal = 1;
place = "{0, 777}";
type = Stem;
},
{
place = "{48, 152}";
type = Stem;
}
);
layerId = "6DD95C5A-998B-41AB-BDFB-84A73C209871";
paths = (
{
closed = 1;
nodes = (
"54 777 LINE",
"-23 649 LINE",
"149 542 LINE",
"267 578 LINE"
);
},
{
closed = 1;
nodes = (
"200 0 LINE",
"200 500 LINE",
"48 500 LINE",
"48 0 LINE"
);
}
);
width = 248;
}
);
leftKerningGroup = i;
note = igrave;
rightKerningGroup = i;
unicode = 00EC;
},
{
glyphname = j;
layers = (
{
hints = (
{
horizontal = 1;
place = "{-259.88, 116.66}";
type = Stem;
},
{
horizontal = 1;
place = "{576, 124}";
type = Stem;
},
{
place = "{43, 152}";
type = Stem;
}
);
layerId = "6DD95C5A-998B-41AB-BDFB-84A73C209871";
paths = (
{
closed = 1;
nodes = (
"43 700 LINE",
"43 576 LINE",
"195 576 LINE",
"195 700 LINE"
);
},
{
closed = 1;
nodes = (
"195 500 LINE",
"43 500 LINE",
"43 -62 LINE SMOOTH",
"43 -125.27 OFFCURVE",
"23.11 -143.22 OFFCURVE",
"-15 -143.22 CURVE SMOOTH",
"-62.64 -143.22 OFFCURVE",
"-95.07 -96.19 OFFCURVE",
"-101.07 -72.19 CURVE",
"-212 -156 LINE",
"-193 -183 OFFCURVE",
"-142 -259.88 OFFCURVE",
"-15 -259.88 CURVE SMOOTH",
"169 -259.88 OFFCURVE",
"195 -144.47 OFFCURVE",
"195 -62.01 CURVE SMOOTH"
);
}
);
width = 248;
}
);
leftKerningGroup = j;
note = j;
rightKerningGroup = j;
unicode = 006A;
},
{
glyphname = k;
layers = (
{
hints = (
{
horizontal = 1;
place = "{0, 700}";
type = Stem;
},
{
place = "{45, 152}";
type = Stem;
}
);
layerId = "6DD95C5A-998B-41AB-BDFB-84A73C209871";
paths = (
{
closed = 1;
nodes = (
"45 0 LINE",
"197 0 LINE",
"197 178.76 LINE",
"239.2 222.35 LINE",
"386 0 LINE",
"556 0 LINE",
"340.85 327.35 LINE",
"508 500 LINE",
"329 500 LINE",
"197 359.56 LINE",
"197 700 LINE",
"45 700 LINE"
);
}
);
width = 561;
}
);
leftKerningGroup = b;
note = k;
rightKerningGroup = k;
unicode = 006B;
},
{
glyphname = l;
layers = (
{
hints = (
{
horizontal = 1;
place = "{0, 700}";
type = Stem;
},
{
place = "{68, 152}";
type = Stem;
}
);
layerId = "6DD95C5A-998B-41AB-BDFB-84A73C209871";
paths = (
{
closed = 1;
nodes = (
"220 0 LINE",
"220 700 LINE",
"68 700 LINE",
"68 0 LINE"
);
}
);
width = 288;
}
);
leftKerningGroup = b;
note = l;
rightKerningGroup = l;
unicode = 006C;
},
{
glyphname = lslash;
layers = (
{
hints = (
{
horizontal = 1;
place = "{0, 700}";
type = Stem;
},
{
place = "{181, 152}";
type = Stem;
}
);
layerId = "6DD95C5A-998B-41AB-BDFB-84A73C209871";
paths = (
{
closed = 1;
nodes = (
"333 0 LINE",
"333 364.11 LINE",
"420 389 LINE",
"419 512 LINE",
"333 487.39 LINE",
"333 700 LINE",
"181 700 LINE",
"181 443.9 LINE",
"52 407 LINE",
"53 284 LINE",
"181 320.62 LINE",
"181 0 LINE"
);
}
);
width = 472;
}
);
note = lslash;
unicode = 0142;
},
{
glyphname = m;
layers = (
{
hints = (
{
horizontal = 1;
place = "{401, 108}";
type = Stem;
},
{
place = "{45, 152}";
type = Stem;
},
{
place = "{414.69, 155.06}";
type = Stem;
},
{
place = "{785.9, 158.17}";
type = Stem;
},
{
horizontal = 1;
place = "{399, 101}";
type = Stem;
}
);
layerId = "6DD95C5A-998B-41AB-BDFB-84A73C209871";
paths = (
{
closed = 1;
nodes = (
"630.66 509 OFFCURVE",
"574.25 472.41 OFFCURVE",
"538.72 417.83 CURVE",
"507.36 468.76 OFFCURVE",
"447.84 507 OFFCURVE",
"341.24 507 CURVE SMOOTH",
"276.59 507 OFFCURVE",
"229.59 484.17 OFFCURVE",
"197 447.23 CURVE",
"197 500 LINE",
"45 500 LINE",
"45 0 LINE",
"197 0 LINE",
"197 239.38 LINE",
"197.02 239.38 LINE",
"197.24 354.65 OFFCURVE",
"267.31 399 OFFCURVE",
"330.03 399 CURVE SMOOTH",
"393.27 399 OFFCURVE",
"414.69 361 OFFCURVE",
"414.69 294 CURVE SMOOTH",
"414.69 0 LINE",
"569.75 0 LINE",
"569.75 286.49 LINE",
"586.25 367.46 OFFCURVE",
"645.11 401 OFFCURVE",
"699.53 401 CURVE SMOOTH",
"764.05 401 OFFCURVE",
"785.9 361 OFFCURVE",
"785.9 294 CURVE SMOOTH",
"785.9 0 LINE",
"944.07 0 LINE",
"944.07 294 LINE SMOOTH",
"944.07 391 OFFCURVE",
"900.37 509 OFFCURVE",
"710.98 509 CURVE SMOOTH"
);
}
);
width = 994;
}
);
leftKerningGroup = m;
note = m;
rightKerningGroup = a;
unicode = 006D;
},
{
glyphname = n;
layers = (
{
hints = (
{
horizontal = 1;
place = "{399, 108}";
type = Stem;
},
{
place = "{45, 152}";
type = Stem;
},
{
place = "{414.69, 155.06}";
type = Stem;
}
);
layerId = "6DD95C5A-998B-41AB-BDFB-84A73C209871";
paths = (
{
closed = 1;
nodes = (
"276.59 507 OFFCURVE",
"229.59 484.17 OFFCURVE",
"197 447.23 CURVE",
"197 500 LINE",
"45 500 LINE",
"45 0 LINE",
"197 0 LINE",
"197 239.38 LINE",
"197.02 239.38 LINE",
"197.24 354.65 OFFCURVE",
"267.31 399 OFFCURVE",
"330.03 399 CURVE SMOOTH",
"393.27 399 OFFCURVE",
"414.69 361 OFFCURVE",
"414.69 294 CURVE SMOOTH",
"414.69 0 LINE",
"569.75 0 LINE",
"569.75 294 LINE SMOOTH",
"569.75 391 OFFCURVE",
"526.9 507 OFFCURVE",
"341.24 507 CURVE SMOOTH"
);
}
);
width = 620;
}
);
leftKerningGroup = m;
note = n;
rightKerningGroup = a;
unicode = 006E;
},
{
glyphname = ntilde;
layers = (
{
hints = (
{
horizontal = 1;
place = "{399, 108}";
type = Stem;
},
{
horizontal = 1;
place = "{592.99, 170}";
type = Stem;
},
{
place = "{86.86, 96.83}";
type = Stem;
},
{
place = "{367.86, 100.3}";
type = Stem;
},
{
place = "{45, 152}";
type = Stem;
},
{
place = "{414.69, 155.05}";
type = Stem;
}
);
layerId = "6DD95C5A-998B-41AB-BDFB-84A73C209871";
paths = (
{
closed = 1;
nodes = (
"310 763 LINE",
"352.74 738.57 OFFCURVE",
"367.86 706.33 OFFCURVE",
"367.86 688.11 CURVE SMOOTH",
"367.86 679.48 OFFCURVE",
"364.46 674 OFFCURVE",
"359 674 CURVE SMOOTH",
"336 674 OFFCURVE",
"315 703 OFFCURVE",
"291 720 CURVE SMOOTH",
"247 751 OFFCURVE",
"224 763 OFFCURVE",
"182 763 CURVE SMOOTH",
"117.28 763 OFFCURVE",
"86.86 722.37 OFFCURVE",
"86.86 676.84 CURVE SMOOTH",
"86.86 647.79 OFFCURVE",
"99.24 616.75 OFFCURVE",
"123 592.99 CURVE",
"242 592.99 LINE",
"199.28 617.4 OFFCURVE",
"183.69 649.63 OFFCURVE",
"183.69 667.85 CURVE SMOOTH",
"183.69 676.5 OFFCURVE",
"187.2 681.99 OFFCURVE",
"193 681.99 CURVE SMOOTH",
"217 681.99 OFFCURVE",
"238 652.99 OFFCURVE",
"278 624.99 CURVE SMOOTH",
"302 606.99 OFFCURVE",
"333 592.99 OFFCURVE",
"370 592.99 CURVE SMOOTH",
"432.86 592.99 OFFCURVE",
"468.16 639.56 OFFCURVE",
"468.16 686.08 CURVE SMOOTH",
"468.16 715.78 OFFCURVE",
"453.78 745.46 OFFCURVE",
"423 763 CURVE"
);
},
{
closed = 1;
nodes = (
"276.59 507 OFFCURVE",
"229.58 484.17 OFFCURVE",
"197 447.23 CURVE",
"197 500 LINE",
"45 500 LINE",
"45 0 LINE",
"197 0 LINE",
"197 239.38 LINE",
"197.02 239.38 LINE",
"197.24 354.65 OFFCURVE",
"267.31 399 OFFCURVE",
"330.02 399 CURVE SMOOTH",
"393.27 399 OFFCURVE",
"414.69 361 OFFCURVE",
"414.69 294 CURVE SMOOTH",
"414.69 0 LINE",
"569.74 0 LINE",
"569.74 294 LINE SMOOTH",
"569.74 391 OFFCURVE",
"526.9 507 OFFCURVE",
"341.24 507 CURVE SMOOTH"
);
}
);
width = 620;
}
);
leftKerningGroup = m;
note = ntilde;
rightKerningGroup = a;
unicode = 00F1;
},
{
glyphname = o;
layers = (
{
hints = (
{
horizontal = 1;
place = "{-12, 105}";
type = Stem;
},
{
horizontal = 1;
place = "{402, 108}";
type = Stem;
},
{
place = "{32.06, 142.47}";
type = Stem;
},
{
place = "{429.46, 142.47}";
type = Stem;
}
);
layerId = "6DD95C5A-998B-41AB-BDFB-84A73C209871";
paths = (
{
closed = 1;
nodes = (
"462.72 -12 OFFCURVE",
"571.93 108 OFFCURVE",
"571.93 247 CURVE SMOOTH",
"571.93 387 OFFCURVE",
"462.72 510 OFFCURVE",
"302 510 CURVE SMOOTH",
"141.27 510 OFFCURVE",
"32.06 387 OFFCURVE",
"32.06 247 CURVE SMOOTH",
"32.06 108 OFFCURVE",
"141.27 -12 OFFCURVE",
"302 -12 CURVE SMOOTH"
);
},
{
closed = 1;
nodes = (
"230.3 93 OFFCURVE",
"174.53 143 OFFCURVE",
"174.53 247 CURVE SMOOTH",
"174.53 352 OFFCURVE",
"230.3 402 OFFCURVE",
"302 402 CURVE SMOOTH",
"373.7 402 OFFCURVE",
"429.46 352 OFFCURVE",
"429.46 247 CURVE SMOOTH",
"429.46 143 OFFCURVE",
"373.7 93 OFFCURVE",
"302 93 CURVE SMOOTH"
);
}
);
width = 584;
}
);
leftKerningGroup = a;
note = o;
rightKerningGroup = o;
unicode = 006F;
},
{
glyphname = oacute;
layers = (
{
hints = (
{
horizontal = 1;
place = "{-12, 105}";
type = Stem;
},
{
horizontal = 1;
place = "{402, 108}";
type = Stem;
},
{
place = "{32.06, 142.47}";
type = Stem;
},
{
place = "{429.46, 142.47}";
type = Stem;
}
);
layerId = "6DD95C5A-998B-41AB-BDFB-84A73C209871";
paths = (
{
closed = 1;
nodes = (
"370.56 786 LINE",
"157.56 587 LINE",
"275.56 551 LINE",
"447.56 658 LINE"
);
},
{
closed = 1;
nodes = (
"462.72 -12 OFFCURVE",
"571.93 108 OFFCURVE",
"571.93 247 CURVE SMOOTH",
"571.93 387 OFFCURVE",
"462.72 510 OFFCURVE",
"302 510 CURVE SMOOTH",
"141.27 510 OFFCURVE",
"32.06 387 OFFCURVE",
"32.06 247 CURVE SMOOTH",
"32.06 108 OFFCURVE",
"141.27 -12 OFFCURVE",
"302 -12 CURVE SMOOTH"
);
},
{
closed = 1;
nodes = (
"230.3 93 OFFCURVE",
"174.53 143 OFFCURVE",
"174.53 247 CURVE SMOOTH",
"174.53 352 OFFCURVE",
"230.3 402 OFFCURVE",
"302 402 CURVE SMOOTH",
"373.7 402 OFFCURVE",
"429.46 352 OFFCURVE",
"429.46 247 CURVE SMOOTH",
"429.46 143 OFFCURVE",
"373.7 93 OFFCURVE",
"302 93 CURVE SMOOTH"
);
}
);
width = 584;
}
);
leftKerningGroup = a;
note = oacute;
rightKerningGroup = o;
unicode = 00F3;
},
{
glyphname = ocircumflex;
layers = (
{
hints = (
{
horizontal = 1;
place = "{-12, 105}";
type = Stem;
},
{
horizontal = 1;
place = "{402, 108}";
type = Stem;
},
{
place = "{32.06, 142.47}";
type = Stem;
},
{
place = "{429.46, 142.47}";
type = Stem;
}
);
layerId = "6DD95C5A-998B-41AB-BDFB-84A73C209871";
paths = (
{
closed = 1;
nodes = (
"54 586 LINE",
"176 548 LINE",
"268 634.42 LINE",
"360 548 LINE",
"482 586 LINE",
"283.54 760.46 LINE",
"269 775 LINE",
"268 774.12 LINE",
"267 775 LINE",
"252.46 760.46 LINE"
);
},
{
closed = 1;
nodes = (
"462.72 -12 OFFCURVE",
"571.93 108 OFFCURVE",
"571.93 247 CURVE SMOOTH",
"571.93 387 OFFCURVE",
"462.72 510 OFFCURVE",
"302 510 CURVE SMOOTH",
"141.27 510 OFFCURVE",
"32.06 387 OFFCURVE",
"32.06 247 CURVE SMOOTH",
"32.06 108 OFFCURVE",
"141.27 -12 OFFCURVE",
"302 -12 CURVE SMOOTH"
);
},
{
closed = 1;
nodes = (
"230.3 93 OFFCURVE",
"174.53 143 OFFCURVE",
"174.53 247 CURVE SMOOTH",
"174.53 352 OFFCURVE",
"230.3 402 OFFCURVE",
"302 402 CURVE SMOOTH",
"373.7 402 OFFCURVE",
"429.46 352 OFFCURVE",
"429.46 247 CURVE SMOOTH",
"429.46 143 OFFCURVE",
"373.7 93 OFFCURVE",
"302 93 CURVE SMOOTH"
);
}
);
width = 584;
}
);
leftKerningGroup = a;
note = ocircumflex;
rightKerningGroup = o;
unicode = 00F4;
},
{
glyphname = odieresis;
layers = (
{
hints = (
{
horizontal = 1;
place = "{-12, 105}";
type = Stem;
},
{
horizontal = 1;
place = "{402, 108}";
type = Stem;
},
{
horizontal = 1;
place = "{571, 124}";
type = Stem;
},
{
place = "{103.56, 154}";
type = Stem;
},
{
place = "{351.56, 154}";
type = Stem;
},
{
place = "{32.06, 142.47}";
type = Stem;
},
{
place = "{429.46, 142.47}";
type = Stem;
}
);
layerId = "6DD95C5A-998B-41AB-BDFB-84A73C209871";
paths = (
{
closed = 1;
nodes = (
"257.56 571 LINE",
"257.56 695 LINE",
"103.56 695 LINE",
"103.56 571 LINE"
);
},
{
closed = 1;
nodes = (
"505.56 571 LINE",
"505.56 695 LINE",
"351.56 695 LINE",
"351.56 571 LINE"
);
},
{
closed = 1;
nodes = (
"462.72 -12 OFFCURVE",
"571.93 108 OFFCURVE",
"571.93 247 CURVE SMOOTH",
"571.93 387 OFFCURVE",
"462.72 510 OFFCURVE",
"302 510 CURVE SMOOTH",
"141.27 510 OFFCURVE",
"32.06 387 OFFCURVE",
"32.06 247 CURVE SMOOTH",
"32.06 108 OFFCURVE",
"141.27 -12 OFFCURVE",
"302 -12 CURVE SMOOTH"
);
},
{
closed = 1;
nodes = (
"230.3 93 OFFCURVE",
"174.53 143 OFFCURVE",
"174.53 247 CURVE SMOOTH",
"174.53 352 OFFCURVE",
"230.3 402 OFFCURVE",
"302 402 CURVE SMOOTH",
"373.7 402 OFFCURVE",
"429.46 352 OFFCURVE",
"429.46 247 CURVE SMOOTH",
"429.46 143 OFFCURVE",
"373.7 93 OFFCURVE",
"302 93 CURVE SMOOTH"
);
}
);
width = 584;
}
);
leftKerningGroup = a;
note = odieresis;
rightKerningGroup = o;
unicode = 00F6;
},
{
glyphname = ograve;
layers = (
{
hints = (
{
horizontal = 1;
place = "{-12, 105}";
type = Stem;
},
{
horizontal = 1;
place = "{402, 108}";
type = Stem;
},
{
place = "{32.06, 142.47}";
type = Stem;
},
{
place = "{429.46, 142.47}";
type = Stem;
}
);
layerId = "6DD95C5A-998B-41AB-BDFB-84A73C209871";
paths = (
{
closed = 1;
nodes = (
"234.56 786 LINE",
"157.56 658 LINE",
"329.56 551 LINE",
"447.56 587 LINE"
);
},
{
closed = 1;
nodes = (
"462.72 -12 OFFCURVE",
"571.93 108 OFFCURVE",
"571.93 247 CURVE SMOOTH",
"571.93 387 OFFCURVE",
"462.72 510 OFFCURVE",
"302 510 CURVE SMOOTH",
"141.27 510 OFFCURVE",
"32.06 387 OFFCURVE",
"32.06 247 CURVE SMOOTH",
"32.06 108 OFFCURVE",
"141.27 -12 OFFCURVE",
"302 -12 CURVE SMOOTH"
);
},
{
closed = 1;
nodes = (
"230.3 93 OFFCURVE",
"174.53 143 OFFCURVE",
"174.53 247 CURVE SMOOTH",
"174.53 352 OFFCURVE",
"230.3 402 OFFCURVE",
"302 402 CURVE SMOOTH",
"373.7 402 OFFCURVE",
"429.46 352 OFFCURVE",
"429.46 247 CURVE SMOOTH",
"429.46 143 OFFCURVE",
"373.7 93 OFFCURVE",
"302 93 CURVE SMOOTH"
);
}
);
width = 584;
}
);
leftKerningGroup = a;
note = ograve;
rightKerningGroup = o;
unicode = 00F2;
},
{
glyphname = oslash;
layers = (
{
hints = (
{
horizontal = 1;
place = "{-12, 105.3}";
type = Stem;
},
{
horizontal = 1;
place = "{400.73, 109.27}";
type = Stem;
},
{
place = "{32.06, 142.47}";
type = Stem;
},
{
place = "{429.46, 142.47}";
type = Stem;
}
);
layerId = "6DD95C5A-998B-41AB-BDFB-84A73C209871";
paths = (
{
closed = 1;
nodes = (
"487 685 LINE",
"367 685 LINE",
"314.98 509.73 LINE",
"310.69 509.91 OFFCURVE",
"306.36 510 OFFCURVE",
"302 510 CURVE SMOOTH",
"141.27 510 OFFCURVE",
"32.06 387 OFFCURVE",
"32.06 247 CURVE SMOOTH",
"32.06 150.95 OFFCURVE",
"84.21 63.97 OFFCURVE",
"169.46 19.39 CURVE",
"118 -154 LINE",
"238 -154 LINE",
"280.36 -11.26 LINE",
"287.46 -11.75 OFFCURVE",
"294.68 -12 OFFCURVE",
"302 -12 CURVE SMOOTH",
"462.72 -12 OFFCURVE",
"571.93 108 OFFCURVE",
"571.93 247 CURVE SMOOTH",
"571.93 346.66 OFFCURVE",
"516.59 437.7 OFFCURVE",
"426.72 481.9 CURVE"
);
},
{
closed = 1;
nodes = (
"174.53 342.33 OFFCURVE",
"220.5 392.33 OFFCURVE",
"282.63 400.73 CURVE",
"204.91 138.87 LINE",
"185.88 164.17 OFFCURVE",
"174.53 200.1 OFFCURVE",
"174.53 247.01 CURVE SMOOTH"
);
},
{
closed = 1;
nodes = (
"391.92 364.65 LINE",
"415.24 339.04 OFFCURVE",
"429.46 300.04 OFFCURVE",
"429.46 247.01 CURVE SMOOTH",
"429.46 147.6 OFFCURVE",
"378.51 97.53 OFFCURVE",
"311.39 93.3 CURVE"
);
}
);
width = 584;
}
);
note = oslash;
unicode = 00F8;
},
{
glyphname = otilde;
layers = (
{
hints = (
{
horizontal = 1;
place = "{-12, 105}";
type = Stem;
},
{
horizontal = 1;
place = "{402, 108}";
type = Stem;
},
{
horizontal = 1;
place = "{573.99, 170}";
type = Stem;
},
{
place = "{73.86, 96.83}";
type = Stem;
},
{
place = "{354.86, 100.3}";
type = Stem;
},
{
place = "{32.06, 142.47}";
type = Stem;
},
{
place = "{429.46, 142.47}";
type = Stem;
}
);
layerId = "6DD95C5A-998B-41AB-BDFB-84A73C209871";
paths = (
{
closed = 1;
nodes = (
"297 744 LINE",
"339.74 719.57 OFFCURVE",
"354.86 687.33 OFFCURVE",
"354.86 669.11 CURVE SMOOTH",
"354.86 660.48 OFFCURVE",
"351.46 655 OFFCURVE",
"346 655 CURVE SMOOTH",
"323 655 OFFCURVE",
"302 684 OFFCURVE",
"278 701 CURVE SMOOTH",
"234 732 OFFCURVE",
"211 744 OFFCURVE",
"169 744 CURVE SMOOTH",
"104.28 744 OFFCURVE",
"73.86 703.37 OFFCURVE",
"73.86 657.84 CURVE SMOOTH",
"73.86 628.79 OFFCURVE",
"86.24 597.75 OFFCURVE",
"110 573.99 CURVE",
"229 573.99 LINE",
"186.28 598.4 OFFCURVE",
"170.69 630.63 OFFCURVE",
"170.69 648.85 CURVE SMOOTH",
"170.69 657.5 OFFCURVE",
"174.2 662.99 OFFCURVE",
"180 662.99 CURVE SMOOTH",
"204 662.99 OFFCURVE",
"225 633.99 OFFCURVE",
"265 605.99 CURVE SMOOTH",
"289 587.99 OFFCURVE",
"320 573.99 OFFCURVE",
"357 573.99 CURVE SMOOTH",
"419.86 573.99 OFFCURVE",
"455.16 620.56 OFFCURVE",
"455.16 667.08 CURVE SMOOTH",
"455.16 696.78 OFFCURVE",
"440.78 726.46 OFFCURVE",
"410 744 CURVE"
);
},
{
closed = 1;
nodes = (
"462.72 -12 OFFCURVE",
"571.93 108 OFFCURVE",
"571.93 247 CURVE SMOOTH",
"571.93 387 OFFCURVE",
"462.72 510 OFFCURVE",
"302 510 CURVE SMOOTH",
"141.27 510 OFFCURVE",
"32.06 387 OFFCURVE",
"32.06 247 CURVE SMOOTH",
"32.06 108 OFFCURVE",
"141.27 -12 OFFCURVE",
"302 -12 CURVE SMOOTH"
);
},
{
closed = 1;
nodes = (
"230.3 93 OFFCURVE",
"174.53 143 OFFCURVE",
"174.53 247 CURVE SMOOTH",
"174.53 352 OFFCURVE",
"230.3 402 OFFCURVE",
"302 402 CURVE SMOOTH",
"373.7 402 OFFCURVE",
"429.46 352 OFFCURVE",
"429.46 247 CURVE SMOOTH",
"429.46 143 OFFCURVE",
"373.7 93 OFFCURVE",
"302 93 CURVE SMOOTH"
);
}
);
width = 584;
}
);
leftKerningGroup = a;
note = otilde;
unicode = 00F5;
},
{
glyphname = oe;
layers = (
{
hints = (
{
horizontal = 1;
place = "{-11.94, 106.94}";
type = Stem;
},
{
horizontal = 1;
place = "{215.45, 92.22}";
type = Stem;
},
{
horizontal = 1;
place = "{401.99, 108}";
type = Stem;
},
{
place = "{32.06, 142.47}";
type = Stem;
},
{
place = "{791.56, 152.44}";
type = Stem;
},
{
horizontal = 1;
place = "{405.99, 105}";
type = Stem;
},
{
horizontal = 1;
place = "{-12.01, 105}";
type = Stem;
}
);
layerId = "6DD95C5A-998B-41AB-BDFB-84A73C209871";
paths = (
{
closed = 1;
nodes = (
"827 186 LINE",
"809 132 OFFCURVE",
"772.95 95 OFFCURVE",
"710 95 CURVE SMOOTH",
"621.28 95 OFFCURVE",
"583.49 142.03 OFFCURVE",
"574.47 215.45 CURVE",
"935 215.45 LINE",
"941.07 241.94 OFFCURVE",
"944 267.07 OFFCURVE",
"944 290.66 CURVE SMOOTH",
"944 426.4 OFFCURVE",
"846.76 510.99 OFFCURVE",
"690 510.99 CURVE SMOOTH",
"608.39 510.99 OFFCURVE",
"539.82 483.83 OFFCURVE",
"493.17 435.04 CURVE",
"446.02 480.95 OFFCURVE",
"380.09 509.99 OFFCURVE",
"302 509.99 CURVE SMOOTH",
"141.27 509.99 OFFCURVE",
"32.06 386.99 OFFCURVE",
"32.06 246.99 CURVE SMOOTH",
"32.06 107.99 OFFCURVE",
"141.27 -12.01 OFFCURVE",
"302 -12.01 CURVE SMOOTH",
"381.12 -12.01 OFFCURVE",
"447.75 17.07 OFFCURVE",
"495.02 63.18 CURVE",
"543.49 13.24 OFFCURVE",
"614.97 -11.94 OFFCURVE",
"700 -11.94 CURVE SMOOTH",
"811.9 -11.94 OFFCURVE",
"915.13 35.48 OFFCURVE",
"950.32 127.58 CURVE"
);
},
{
closed = 1;
nodes = (
"754.8 405.99 OFFCURVE",
"791.56 375.6 OFFCURVE",
"791.56 326.06 CURVE SMOOTH",
"791.56 320.19 OFFCURVE",
"791.05 314.06 OFFCURVE",
"790 307.67 CURVE",
"578.63 307.67 LINE",
"596.14 374.93 OFFCURVE",
"646.8 405.99 OFFCURVE",
"694 405.99 CURVE SMOOTH"
);
},
{
closed = 1;
nodes = (
"230.3 92.99 OFFCURVE",
"174.53 142.99 OFFCURVE",
"174.53 246.99 CURVE SMOOTH",
"174.53 351.99 OFFCURVE",
"230.3 401.99 OFFCURVE",
"302 401.99 CURVE SMOOTH",
"366.36 401.99 OFFCURVE",
"417.88 361.71 OFFCURVE",
"427.75 277.52 CURVE",
"427.25 270.16 OFFCURVE",
"427 262.65 OFFCURVE",
"427 255 CURVE SMOOTH",
"427 243.75 OFFCURVE",
"427.45 232.86 OFFCURVE",
"428.34 222.31 CURVE",
"420.14 135.07 OFFCURVE",
"367.77 93 OFFCURVE",
"302 93 CURVE SMOOTH"
);
}
);
width = 970;
}
);
leftKerningGroup = a;
note = oe;
rightKerningGroup = ae;
unicode = 0153;
},
{
glyphname = p;
layers = (
{
hints = (
{
horizontal = 1;
place = "{502, 11}";
type = Stem;
}
);
layerId = "6DD95C5A-998B-41AB-BDFB-84A73C209871";
paths = (
{
closed = 1;
nodes = (
"276.81 506 OFFCURVE",
"207.98 477.44 OFFCURVE",
"188 434.14 CURVE",
"188 500 LINE",
"36 500 LINE",
"35 -200 LINE",
"188 -200 LINE",
"188 47.4 LINE",
"218.67 4.73 OFFCURVE",
"277.55 -14.99 OFFCURVE",
"344 -14.99 CURVE SMOOTH",
"503 -14.99 OFFCURVE",
"608 103.01 OFFCURVE",
"608 245.01 CURVE SMOOTH",
"608 386.01 OFFCURVE",
"504 506.01 OFFCURVE",
"344 506.01 CURVE SMOOTH"
);
},
{
closed = 1;
nodes = (
"235 95.01 OFFCURVE",
"178 147.01 OFFCURVE",
"178 245.01 CURVE SMOOTH",
"178 344.01 OFFCURVE",
"235 395.01 OFFCURVE",
"324 395.01 CURVE SMOOTH",
"407 395.01 OFFCURVE",
"455 335.01 OFFCURVE",
"455 245.01 CURVE SMOOTH",
"455 156.01 OFFCURVE",
"407 95.01 OFFCURVE",
"324 95.01 CURVE SMOOTH"
);
}
);
width = 638;
}
);
leftKerningGroup = p;
note = p;
rightKerningGroup = p;
unicode = 0070;
},
{
glyphname = thorn;
layers = (
{
hints = (
{
horizontal = 1;
place = "{502, 11}";
type = Stem;
}
);
layerId = "6DD95C5A-998B-41AB-BDFB-84A73C209871";
paths = (
{
closed = 1;
nodes = (
"246.11 511 OFFCURVE",
"208.06 499.96 OFFCURVE",
"178 481.75 CURVE",
"178 761 LINE",
"26 761 LINE",
"25 -191 LINE",
"178 -191 LINE",
"178 19.04 LINE",
"208.06 0.97 OFFCURVE",
"246.11 -10 OFFCURVE",
"294 -10 CURVE SMOOTH",
"453 -10 OFFCURVE",
"558 108 OFFCURVE",
"558 249 CURVE SMOOTH",
"558 391 OFFCURVE",
"454 511 OFFCURVE",
"294 511 CURVE SMOOTH"
);
},
{
closed = 1;
nodes = (
"225 100 OFFCURVE",
"168 152 OFFCURVE",
"168 249 CURVE SMOOTH",
"168 348 OFFCURVE",
"225 400 OFFCURVE",
"294 400 CURVE SMOOTH",
"357 400 OFFCURVE",
"405 339 OFFCURVE",
"405 249 CURVE SMOOTH",
"405 161 OFFCURVE",
"357 100 OFFCURVE",
"294 100 CURVE SMOOTH"
);
}
);
width = 563;
}
);
note = thorn;
unicode = 00FE;
},
{
glyphname = q;
layers = (
{
hints = (
{
horizontal = 1;
place = "{-15, 110}";
type = Stem;
},
{
horizontal = 1;
place = "{395, 111}";
type = Stem;
},
{
place = "{30, 152.99}";
type = Stem;
},
{
place = "{449.99, 152.5}";
type = Stem;
}
);
layerId = "6DD95C5A-998B-41AB-BDFB-84A73C209871";
paths = (
{
closed = 1;
nodes = (
"134 506 OFFCURVE",
"30 386 OFFCURVE",
"30 245 CURVE SMOOTH",
"30 103 OFFCURVE",
"135 -15 OFFCURVE",
"294 -15 CURVE SMOOTH",
"360.45 -15 OFFCURVE",
"419.32 4.72 OFFCURVE",
"449.99 47.4 CURVE",
"449.99 -200 LINE",
"602.99 -200 LINE",
"601.99 500 LINE",
"449.99 500 LINE",
"449.99 434.14 LINE",
"430.02 477.44 OFFCURVE",
"361.19 506 OFFCURVE",
"293.99 506 CURVE SMOOTH"
);
},
{
closed = 1;
nodes = (
"230.99 95 OFFCURVE",
"182.99 156 OFFCURVE",
"182.99 245 CURVE SMOOTH",
"182.99 335 OFFCURVE",
"230.99 395 OFFCURVE",
"313.99 395 CURVE SMOOTH",
"402.99 395 OFFCURVE",
"459.99 344 OFFCURVE",
"459.99 245 CURVE SMOOTH",
"459.99 147 OFFCURVE",
"402.99 95 OFFCURVE",
"313.99 95 CURVE SMOOTH"
);
}
);
width = 638;
}
);
leftKerningGroup = a;
note = q;
rightKerningGroup = aacute;
unicode = 0071;
},
{
glyphname = r;
layers = (
{
hints = (
{
horizontal = 1;
place = "{325, 185}";
type = Stem;
},
{
place = "{45, 152}";
type = Stem;
},
{
place = "{351, 150.83}";
type = Stem;
},
{
horizontal = 1;
place = "{399, 101}";
type = Stem;
}
);
layerId = "6DD95C5A-998B-41AB-BDFB-84A73C209871";
paths = (
{
closed = 1;
nodes = (
"269.61 510 OFFCURVE",
"225.18 479.29 OFFCURVE",
"197 432.61 CURVE",
"197 500 LINE",
"45 500 LINE",
"45 0 LINE",
"197 0 LINE",
"197 258.57 LINE SMOOTH",
"199.72 360.39 OFFCURVE",
"232.03 399 OFFCURVE",
"287 399 CURVE SMOOTH",
"328 399 OFFCURVE",
"356 374 OFFCURVE",
"351 325 CURVE",
"501 325 LINE",
"501.56 330.6 OFFCURVE",
"501.83 336.21 OFFCURVE",
"501.83 341.82 CURVE SMOOTH",
"501.83 426.44 OFFCURVE",
"438.66 510 OFFCURVE",
"328 510 CURVE SMOOTH"
);
}
);
width = 512;
}
);
leftKerningGroup = m;
note = r;
rightKerningGroup = r;
unicode = 0072;
},
{
glyphname = s;
layers = (
{
hints = (
{
horizontal = 1;
place = "{-12, 105}";
type = Stem;
},
{
horizontal = 1;
place = "{412, 99}";
type = Stem;
},
{
place = "{46, 134}";
type = Stem;
},
{
place = "{311, 138}";
type = Stem;
}
);
layerId = "6DD95C5A-998B-41AB-BDFB-84A73C209871";
paths = (
{
closed = 1;
nodes = (
"156 93 OFFCURVE",
"130 166 OFFCURVE",
"130 214 CURVE",
"15 134 LINE",
"37 48 OFFCURVE",
"133 -12 OFFCURVE",
"235 -12 CURVE SMOOTH",
"377 -12 OFFCURVE",
"449 52 OFFCURVE",
"449 153 CURVE SMOOTH",
"449 261 OFFCURVE",
"314 296 OFFCURVE",
"253 314 CURVE SMOOTH",
"206 328 OFFCURVE",
"180 344 OFFCURVE",
"180 370 CURVE SMOOTH",
"180 399 OFFCURVE",
"204 412 OFFCURVE",
"233 412 CURVE SMOOTH",
"278 412 OFFCURVE",
"288 382 OFFCURVE",
"289 360 CURVE",
"418 401 LINE",
"401 471 OFFCURVE",
"323 511 OFFCURVE",
"233 511 CURVE SMOOTH",
"133 511 OFFCURVE",
"46 450 OFFCURVE",
"46 370 CURVE SMOOTH",
"46 281 OFFCURVE",
"128 245 OFFCURVE",
"211 221 CURVE SMOOTH",
"275 201 OFFCURVE",
"311 190 OFFCURVE",
"311 155 CURVE SMOOTH",
"311 115 OFFCURVE",
"276 93 OFFCURVE",
"235 93 CURVE SMOOTH"
);
}
);
width = 474;
}
);
leftKerningGroup = s;
note = s;
rightKerningGroup = s;
unicode = 0073;
},
{
glyphname = scaron;
layers = (
{
hints = (
{
horizontal = 1;
place = "{-12, 105}";
type = Stem;
},
{
horizontal = 1;
place = "{412, 99}";
type = Stem;
},
{
place = "{46, 134}";
type = Stem;
},
{
place = "{311, 138}";
type = Stem;
}
);
layerId = "6DD95C5A-998B-41AB-BDFB-84A73C209871";
paths = (
{
closed = 1;
nodes = (
"129 750 LINE",
"31 744 LINE",
"244 545 LINE",
"457 744 LINE",
"359 750 LINE",
"244 678.46 LINE"
);
},
{
closed = 1;
nodes = (
"156 93 OFFCURVE",
"130 166 OFFCURVE",
"130 214 CURVE",
"15 134 LINE",
"37 48 OFFCURVE",
"133 -12 OFFCURVE",
"235 -12 CURVE SMOOTH",
"377 -12 OFFCURVE",
"449 52 OFFCURVE",
"449 153 CURVE SMOOTH",
"449 261 OFFCURVE",
"314 296 OFFCURVE",
"253 314 CURVE SMOOTH",
"206 328 OFFCURVE",
"180 344 OFFCURVE",
"180 370 CURVE SMOOTH",
"180 399 OFFCURVE",
"204 412 OFFCURVE",
"233 412 CURVE SMOOTH",
"278 412 OFFCURVE",
"288 382 OFFCURVE",
"289 360 CURVE",
"418 401 LINE",
"401 471 OFFCURVE",
"323 511 OFFCURVE",
"233 511 CURVE SMOOTH",
"133 511 OFFCURVE",
"46 450 OFFCURVE",
"46 370 CURVE SMOOTH",
"46 281 OFFCURVE",
"128 245 OFFCURVE",
"211 221 CURVE SMOOTH",
"275 201 OFFCURVE",
"311 190 OFFCURVE",
"311 155 CURVE SMOOTH",
"311 115 OFFCURVE",
"276 93 OFFCURVE",
"235 93 CURVE SMOOTH"
);
}
);
width = 474;
}
);
leftKerningGroup = s;
note = scaron;
rightKerningGroup = s;
unicode = 0161;
},
{
glyphname = germandbls;
layers = (
{
hints = (
{
horizontal = 1;
place = "{4, 113}";
type = Stem;
},
{
horizontal = 1;
place = "{352, 95}";
type = Stem;
},
{
horizontal = 1;
place = "{583, 113}";
type = Stem;
},
{
place = "{31, 152}";
type = Stem;
},
{
place = "{437, 153}";
type = Stem;
},
{
place = "{327, 152}";
type = Stem;
}
);
layerId = "6DD95C5A-998B-41AB-BDFB-84A73C209871";
paths = (
{
closed = 1;
nodes = (
"31 4 LINE",
"183 4 LINE",
"183 517 LINE SMOOTH",
"183 562 OFFCURVE",
"206 583 OFFCURVE",
"253 583 CURVE SMOOTH",
"304 583 OFFCURVE",
"327 562 OFFCURVE",
"327 517 CURVE SMOOTH",
"327 471 OFFCURVE",
"304 447 OFFCURVE",
"250 447 CURVE SMOOTH",
"214 447 LINE",
"214 352 LINE",
"304 352 LINE SMOOTH",
"385 352 OFFCURVE",
"437 312 OFFCURVE",
"437 227 CURVE SMOOTH",
"437 146 OFFCURVE",
"389 117 OFFCURVE",
"299 117 CURVE SMOOTH",
"269 117 OFFCURVE",
"229 132 OFFCURVE",
"211 144 CURVE",
"211 26 LINE",
"227 17 OFFCURVE",
"264 4 OFFCURVE",
"308 4 CURVE SMOOTH",
"466 4 OFFCURVE",
"590 80 OFFCURVE",
"590 227 CURVE SMOOTH",
"590 324 OFFCURVE",
"538 393 OFFCURVE",
"447 426 CURVE",
"469 455 OFFCURVE",
"479 486 OFFCURVE",
"479 526 CURVE SMOOTH",
"479 653 OFFCURVE",
"365 696 OFFCURVE",
"253 696 CURVE SMOOTH",
"137 696 OFFCURVE",
"31 653 OFFCURVE",
"31 524 CURVE SMOOTH"
);
}
);
width = 596;
}
);
leftKerningGroup = germandbls;
note = germandbls;
rightKerningGroup = germandbls;
unicode = 00DF;
},
{
glyphname = t;
layers = (
{
hints = (
{
horizontal = 1;
place = "{-8, 105}";
type = Stem;
},
{
horizontal = 1;
place = "{388, 116}";
type = Stem;
},
{
place = "{102, 152}";
type = Stem;
}
);
layerId = "6DD95C5A-998B-41AB-BDFB-84A73C209871";
paths = (
{
closed = 1;
nodes = (
"370 175 LINE",
"349 136 OFFCURVE",
"335 97 OFFCURVE",
"301 97 CURVE SMOOTH",
"273 97 OFFCURVE",
"254 119 OFFCURVE",
"254 164 CURVE SMOOTH",
"254 388 LINE",
"400 388 LINE",
"400 504 LINE",
"254 504 LINE",
"254 696 LINE",
"102 696 LINE",
"102 504 LINE",
"15 504 LINE",
"15 388 LINE",
"102 388 LINE",
"102 162 LINE SMOOTH",
"102 73 OFFCURVE",
"150 -8 OFFCURVE",
"301 -8 CURVE SMOOTH",
"404 -8 OFFCURVE",
"459 54 OFFCURVE",
"486 108 CURVE"
);
}
);
width = 491;
}
);
leftKerningGroup = t;
note = t;
rightKerningGroup = t;
unicode = 0074;
},
{
glyphname = u;
layers = (
{
hints = (
{
horizontal = 1;
place = "{-7, 108}";
type = Stem;
},
{
place = "{45, 152}";
type = Stem;
},
{
place = "{399, 152}";
type = Stem;
}
);
layerId = "6DD95C5A-998B-41AB-BDFB-84A73C209871";
paths = (
{
closed = 1;
nodes = (
"399 0 LINE",
"551 0 LINE",
"551 500 LINE",
"399 500 LINE",
"399 252.44 LINE SMOOTH",
"396.18 125.63 OFFCURVE",
"334.44 101 OFFCURVE",
"280 101 CURVE SMOOTH",
"218 101 OFFCURVE",
"197 139 OFFCURVE",
"197 206 CURVE SMOOTH",
"197 500 LINE",
"45 500 LINE",
"45 206 LINE SMOOTH",
"45 109 OFFCURVE",
"87 -7 OFFCURVE",
"269 -7 CURVE SMOOTH",
"328.64 -7 OFFCURVE",
"371.27 14.99 OFFCURVE",
"399 50.66 CURVE"
);
}
);
width = 601;
}
);
leftKerningGroup = m;
note = u;
rightKerningGroup = a;
unicode = 0075;
},
{
glyphname = uacute;
layers = (
{
hints = (
{
horizontal = 1;
place = "{-7, 108}";
type = Stem;
},
{
place = "{45, 152}";
type = Stem;
},
{
place = "{399, 152}";
type = Stem;
}
);
layerId = "6DD95C5A-998B-41AB-BDFB-84A73C209871";
paths = (
{
closed = 1;
nodes = (
"364 776 LINE",
"151 577 LINE",
"269 541 LINE",
"441 648 LINE"
);
},
{
closed = 1;
nodes = (
"399 0 LINE",
"551 0 LINE",
"551 500 LINE",
"399 500 LINE",
"399 252.44 LINE SMOOTH",
"396.18 125.63 OFFCURVE",
"334.44 101 OFFCURVE",
"280 101 CURVE SMOOTH",
"218 101 OFFCURVE",
"197 139 OFFCURVE",
"197 206 CURVE SMOOTH",
"197 500 LINE",
"45 500 LINE",
"45 206 LINE SMOOTH",
"45 109 OFFCURVE",
"87 -7 OFFCURVE",
"269 -7 CURVE SMOOTH",
"328.64 -7 OFFCURVE",
"371.27 14.99 OFFCURVE",
"399 50.66 CURVE"
);
}
);
width = 601;
}
);
leftKerningGroup = m;
note = uacute;
rightKerningGroup = aacute;
unicode = 00FA;
},
{
glyphname = ucircumflex;
layers = (
{
hints = (
{
horizontal = 1;
place = "{-7, 108}";
type = Stem;
},
{
place = "{45, 152}";
type = Stem;
},
{
place = "{399, 152}";
type = Stem;
}
);
layerId = "6DD95C5A-998B-41AB-BDFB-84A73C209871";
paths = (
{
closed = 1;
nodes = (
"65 585 LINE",
"187 547 LINE",
"279 633.42 LINE",
"371 547 LINE",
"493 585 LINE",
"294.54 759.46 LINE",
"280 774 LINE",
"279 773.12 LINE",
"278 774 LINE",
"263.46 759.46 LINE"
);
},
{
closed = 1;
nodes = (
"399 0 LINE",
"551 0 LINE",
"551 500 LINE",
"399 500 LINE",
"399 252.44 LINE SMOOTH",
"396.18 125.63 OFFCURVE",
"334.44 101 OFFCURVE",
"280 101 CURVE SMOOTH",
"218 101 OFFCURVE",
"197 139 OFFCURVE",
"197 206 CURVE SMOOTH",
"197 500 LINE",
"45 500 LINE",
"45 206 LINE SMOOTH",
"45 109 OFFCURVE",
"87 -7 OFFCURVE",
"269 -7 CURVE SMOOTH",
"328.64 -7 OFFCURVE",
"371.27 14.99 OFFCURVE",
"399 50.66 CURVE"
);
}
);
width = 601;
}
);
leftKerningGroup = m;
note = ucircumflex;
rightKerningGroup = aacute;
unicode = 00FB;
},
{
glyphname = udieresis;
layers = (
{
hints = (
{
horizontal = 1;
place = "{-7, 108}";
type = Stem;
},
{
horizontal = 1;
place = "{561, 124}";
type = Stem;
},
{
place = "{97, 154}";
type = Stem;
},
{
place = "{399, 152}";
type = Stem;
},
{
place = "{45, 152}";
type = Stem;
},
{
place = "{345, 154}";
type = Stem;
}
);
layerId = "6DD95C5A-998B-41AB-BDFB-84A73C209871";
paths = (
{
closed = 1;
nodes = (
"251 561 LINE",
"251 685 LINE",
"97 685 LINE",
"97 561 LINE"
);
},
{
closed = 1;
nodes = (
"499 561 LINE",
"499 685 LINE",
"345 685 LINE",
"345 561 LINE"
);
},
{
closed = 1;
nodes = (
"399 0 LINE",
"551 0 LINE",
"551 500 LINE",
"399 500 LINE",
"399 252.44 LINE SMOOTH",
"396.18 125.63 OFFCURVE",
"334.44 101 OFFCURVE",
"280 101 CURVE SMOOTH",
"218 101 OFFCURVE",
"197 139 OFFCURVE",
"197 206 CURVE SMOOTH",
"197 500 LINE",
"45 500 LINE",
"45 206 LINE SMOOTH",
"45 109 OFFCURVE",
"87 -7 OFFCURVE",
"269 -7 CURVE SMOOTH",
"328.64 -7 OFFCURVE",
"371.27 14.99 OFFCURVE",
"399 50.66 CURVE"
);
}
);
width = 601;
}
);
leftKerningGroup = m;
note = udieresis;
rightKerningGroup = aacute;
unicode = 00FC;
},
{
glyphname = ugrave;
layers = (
{
hints = (
{
horizontal = 1;
place = "{-7, 108}";
type = Stem;
},
{
place = "{45, 152}";
type = Stem;
},
{
place = "{399, 152}";
type = Stem;
}
);
layerId = "6DD95C5A-998B-41AB-BDFB-84A73C209871";
paths = (
{
closed = 1;
nodes = (
"228 776 LINE",
"151 648 LINE",
"323 541 LINE",
"441 577 LINE"
);
},
{
closed = 1;
nodes = (
"399 0 LINE",
"551 0 LINE",
"551 500 LINE",
"399 500 LINE",
"399 252.44 LINE SMOOTH",
"396.18 125.63 OFFCURVE",
"334.44 101 OFFCURVE",
"280 101 CURVE SMOOTH",
"218 101 OFFCURVE",
"197 139 OFFCURVE",
"197 206 CURVE SMOOTH",
"197 500 LINE",
"45 500 LINE",
"45 206 LINE SMOOTH",
"45 109 OFFCURVE",
"87 -7 OFFCURVE",
"269 -7 CURVE SMOOTH",
"328.64 -7 OFFCURVE",
"371.27 14.99 OFFCURVE",
"399 50.66 CURVE"
);
}
);
width = 601;
}
);
leftKerningGroup = m;
note = ugrave;
rightKerningGroup = aacute;
unicode = 00F9;
},
{
glyphname = v;
layers = (
{
hints = (
{
horizontal = 1;
place = "{0, 500}";
type = Stem;
},
{
place = "{15, 562}";
type = Stem;
}
);
layerId = "6DD95C5A-998B-41AB-BDFB-84A73C209871";
paths = (
{
closed = 1;
nodes = (
"215.97 0 LINE",
"376 0 LINE",
"577 500 LINE",
"426 500 LINE",
"296.28 168.72 LINE",
"166 500 LINE",
"15 500 LINE"
);
}
);
width = 592;
}
);
leftKerningGroup = v;
note = v;
rightKerningGroup = v;
unicode = 0076;
},
{
glyphname = w;
layers = (
{
hints = (
{
horizontal = 1;
place = "{0, 500}";
type = Stem;
},
{
place = "{22, 734}";
type = Stem;
}
);
layerId = "6DD95C5A-998B-41AB-BDFB-84A73C209871";
paths = (
{
closed = 1;
nodes = (
"446 0 LINE",
"613.43 0 LINE",
"756 500 LINE",
"604 500 LINE",
"529.84 231.33 LINE",
"456 500 LINE",
"322 500 LINE",
"248.1 231.52 LINE",
"174 500 LINE",
"22 500 LINE",
"164.37 0 LINE",
"332 0 LINE",
"389 263.31 LINE"
);
}
);
width = 778;
}
);
leftKerningGroup = w;
note = w;
rightKerningGroup = w;
unicode = 0077;
},
{
glyphname = x;
layers = (
{
hints = (
{
horizontal = 1;
place = "{0, 500}";
type = Stem;
},
{
place = "{-1, 583}";
type = Stem;
}
);
layerId = "6DD95C5A-998B-41AB-BDFB-84A73C209871";
paths = (
{
closed = 1;
nodes = (
"-1 0 LINE",
"179 0 LINE",
"292.26 143.81 LINE",
"403 0 LINE",
"582 0 LINE",
"385.59 253.76 LINE",
"579 500 LINE",
"399 500 LINE",
"296.3 369.12 LINE",
"195 500 LINE",
"18 500 LINE",
"203.1 259.6 LINE"
);
}
);
width = 600;
}
);
leftKerningGroup = x;
note = x;
rightKerningGroup = x;
unicode = 0078;
},
{
glyphname = y;
layers = (
{
hints = (
{
horizontal = 1;
place = "{-200, 700}";
type = Stem;
},
{
place = "{15, 548}";
type = Stem;
}
);
layerId = "6DD95C5A-998B-41AB-BDFB-84A73C209871";
paths = (
{
closed = 1;
nodes = (
"229.42 65.36 LINE",
"121 -200 LINE",
"278 -200 LINE",
"563 500 LINE",
"407 500 LINE",
"303.53 246.76 LINE",
"182 500 LINE",
"15 500 LINE"
);
}
);
width = 578;
}
);
leftKerningGroup = y;
note = y;
rightKerningGroup = y;
unicode = 0079;
},
{
glyphname = yacute;
layers = (
{
hints = (
{
horizontal = 1;
place = "{-200, 973}";
type = Stem;
},
{
place = "{15, 548}";
type = Stem;
}
);
layerId = "6DD95C5A-998B-41AB-BDFB-84A73C209871";
paths = (
{
closed = 1;
nodes = (
"353 773 LINE",
"140 574 LINE",
"258 538 LINE",
"430 645 LINE"
);
},
{
closed = 1;
nodes = (
"229.42 65.36 LINE",
"121 -200 LINE",
"278 -200 LINE",
"563 500 LINE",
"407 500 LINE",
"303.53 246.76 LINE",
"182 500 LINE",
"15 500 LINE"
);
}
);
width = 578;
}
);
leftKerningGroup = y;
note = yacute;
rightKerningGroup = y;
unicode = 00FD;
},
{
glyphname = ydieresis;
layers = (
{
hints = (
{
horizontal = 1;
place = "{558, 124}";
type = Stem;
},
{
place = "{86, 154}";
type = Stem;
},
{
place = "{334, 154}";
type = Stem;
}
);
layerId = "6DD95C5A-998B-41AB-BDFB-84A73C209871";
paths = (
{
closed = 1;
nodes = (
"240 558 LINE",
"240 682 LINE",
"86 682 LINE",
"86 558 LINE"
);
},
{
closed = 1;
nodes = (
"488 558 LINE",
"488 682 LINE",
"334 682 LINE",
"334 558 LINE"
);
},
{
closed = 1;
nodes = (
"229.42 65.36 LINE",
"121 -200 LINE",
"278 -200 LINE",
"563 500 LINE",
"407 500 LINE",
"303.53 246.76 LINE",
"182 500 LINE",
"15 500 LINE"
);
}
);
width = 578;
}
);
leftKerningGroup = y;
note = ydieresis;
rightKerningGroup = y;
unicode = 00FF;
},
{
glyphname = z;
layers = (
{
hints = (
{
horizontal = 1;
place = "{0, 115}";
type = Stem;
},
{
horizontal = 1;
place = "{385, 115}";
type = Stem;
},
{
place = "{20, 481}";
type = Stem;
}
);
layerId = "6DD95C5A-998B-41AB-BDFB-84A73C209871";
paths = (
{
closed = 1;
nodes = (
"20 105 LINE",
"20 0 LINE",
"501 0 LINE",
"501 115 LINE",
"209.38 115 LINE",
"483 395 LINE",
"483 500 LINE",
"35 500 LINE",
"35 385 LINE",
"293.62 385 LINE"
);
}
);
width = 521;
}
);
leftKerningGroup = z;
note = z;
rightKerningGroup = z;
unicode = 007A;
},
{
glyphname = zcaron;
layers = (
{
hints = (
{
horizontal = 1;
place = "{0, 115}";
type = Stem;
},
{
horizontal = 1;
place = "{385, 115}";
type = Stem;
},
{
place = "{20, 481}";
type = Stem;
}
);
layerId = "6DD95C5A-998B-41AB-BDFB-84A73C209871";
paths = (
{
closed = 1;
nodes = (
"148 750 LINE",
"50 744 LINE",
"263 545 LINE",
"476 744 LINE",
"378 750 LINE",
"263 678.46 LINE"
);
},
{
closed = 1;
nodes = (
"20 105 LINE",
"20 0 LINE",
"501 0 LINE",
"501 115 LINE",
"209.38 115 LINE",
"483 395 LINE",
"483 500 LINE",
"35 500 LINE",
"35 385 LINE",
"293.62 385 LINE"
);
}
);
width = 521;
}
);
leftKerningGroup = z;
note = zcaron;
rightKerningGroup = z;
unicode = 017E;
},
{
glyphname = fi;
layers = (
{
hints = (
{
horizontal = 1;
place = "{389, 116}";
type = Stem;
},
{
horizontal = 1;
place = "{638, 104}";
type = Stem;
},
{
place = "{47, 133}";
type = Stem;
},
{
place = "{392, 152}";
type = Stem;
},
{
horizontal = 1;
place = "{565, 132}";
type = Stem;
},
{
place = "{76.5, 151.5}";
type = Stem;
}
);
layerId = "6DD95C5A-998B-41AB-BDFB-84A73C209871";
paths = (
{
closed = 1;
nodes = (
"301 638 OFFCURVE",
"322 626 OFFCURVE",
"375 565 CURVE",
"544 565 LINE",
"544 697 LINE",
"389 697 LINE",
"373 710 OFFCURVE",
"318 742 OFFCURVE",
"249 742 CURVE SMOOTH",
"104 742 OFFCURVE",
"47 648 OFFCURVE",
"47 579 CURVE SMOOTH",
"47 558 OFFCURVE",
"49 532 OFFCURVE",
"66 505 CURVE",
"-11 505 LINE",
"-11 389 LINE",
"77 389 LINE",
"76 4 LINE",
"228 4 LINE",
"228 389 LINE",
"392 389 LINE",
"392 4 LINE",
"544 4 LINE",
"544 505 LINE",
"223 505 LINE",
"190 522 OFFCURVE",
"180 550 OFFCURVE",
"180 576 CURVE SMOOTH",
"180 620 OFFCURVE",
"217 638 OFFCURVE",
"249 638 CURVE SMOOTH"
);
}
);
width = 602;
}
);
leftKerningGroup = f;
note = fi;
rightKerningGroup = i;
unicode = FB01;
},
{
glyphname = fl;
layers = (
{
hints = (
{
horizontal = 1;
place = "{385, 116}";
type = Stem;
},
{
horizontal = 1;
place = "{644, 94}";
type = Stem;
},
{
place = "{94.5, 151.5}";
type = Stem;
},
{
place = "{525, 152}";
type = Stem;
},
{
place = "{48, 140}";
type = Stem;
}
);
layerId = "6DD95C5A-998B-41AB-BDFB-84A73C209871";
paths = (
{
closed = 1;
nodes = (
"126 738 OFFCURVE",
"48 674 OFFCURVE",
"48 586 CURVE SMOOTH",
"48 533 OFFCURVE",
"79 509 OFFCURVE",
"93 501 CURVE",
"7 501 LINE",
"7 385 LINE",
"95 385 LINE",
"94 0 LINE",
"246 0 LINE",
"246 385 LINE",
"402 385 LINE",
"402 501 LINE",
"274 501 LINE SMOOTH",
"218 501 OFFCURVE",
"188 538 OFFCURVE",
"188 572 CURVE SMOOTH",
"188 616 OFFCURVE",
"215 644 OFFCURVE",
"267 644 CURVE SMOOTH",
"325 644 OFFCURVE",
"343 593 OFFCURVE",
"352 577 CURVE",
"482 632 LINE",
"466 657 OFFCURVE",
"396 738 OFFCURVE",
"267 738 CURVE SMOOTH"
);
},
{
closed = 1;
nodes = (
"677 0 LINE",
"677 700 LINE",
"525 700 LINE",
"525 0 LINE"
);
}
);
width = 745;
}
);
leftKerningGroup = f;
note = fl;
rightKerningGroup = l;
unicode = FB02;
},
{
glyphname = ordfeminine;
layers = (
{
hints = (
{
horizontal = 1;
place = "{372.02, 64.86}";
type = Stem;
},
{
horizontal = 1;
place = "{661.84, 70.36}";
type = Stem;
},
{
place = "{26.71, 102.12}";
type = Stem;
},
{
place = "{257.92, 105.51}";
type = Stem;
}
);
layerId = "6DD95C5A-998B-41AB-BDFB-84A73C209871";
paths = (
{
closed = 1;
nodes = (
"124.14 732.21 OFFCURVE",
"54.05 685.26 OFFCURVE",
"54.05 628.42 CURVE SMOOTH",
"54.05 621.73 OFFCURVE",
"55.02 614.91 OFFCURVE",
"57.06 608 CURVE",
"159.01 608 LINE",
"157.61 612.19 OFFCURVE",
"154.8 661.84 OFFCURVE",
"213.64 661.84 CURVE SMOOTH",
"243.33 661.84 OFFCURVE",
"256.8 648.77 OFFCURVE",
"256.8 625.11 CURVE SMOOTH",
"256.8 598.51 OFFCURVE",
"226.55 590.22 OFFCURVE",
"180.58 585.92 CURVE SMOOTH",
"67.5 575.33 OFFCURVE",
"26.71 535.94 OFFCURVE",
"26.71 479.66 CURVE SMOOTH",
"26.71 419.63 OFFCURVE",
"68.11 372.02 OFFCURVE",
"157.81 372.02 CURVE SMOOTH",
"207.88 372.02 OFFCURVE",
"239.16 391.98 OFFCURVE",
"257.98 420.6 CURVE",
"257.86 380.99 LINE",
"363.43 380.99 LINE",
"363.43 588.68 LINE SMOOTH",
"363.43 642.5 OFFCURVE",
"350.32 732.2 OFFCURVE",
"207.49 732.2 CURVE SMOOTH"
);
},
{
closed = 1;
nodes = (
"144.7 436.88 OFFCURVE",
"128.83 461.03 OFFCURVE",
"128.83 483.11 CURVE SMOOTH",
"128.83 510.71 OFFCURVE",
"155.05 523.82 OFFCURVE",
"187.48 527.96 CURVE SMOOTH",
"212.4 530.97 OFFCURVE",
"236.79 536.81 OFFCURVE",
"257.99 545.78 CURVE",
"258.1 538.86 LINE SMOOTH",
"258.06 464.62 OFFCURVE",
"218.55 436.88 OFFCURVE",
"178.51 436.88 CURVE SMOOTH"
);
}
);
width = 373;
}
);
note = ordfeminine;
unicode = 00AA;
},
{
glyphname = ordmasculine;
layers = (
{
hints = (
{
horizontal = 1;
place = "{368.72, 72.45}";
type = Stem;
},
{
horizontal = 1;
place = "{654.38, 74.52}";
type = Stem;
},
{
place = "{28.12, 98.3}";
type = Stem;
},
{
place = "{302.33, 98.3}";
type = Stem;
}
);
layerId = "6DD95C5A-998B-41AB-BDFB-84A73C209871";
paths = (
{
closed = 1;
nodes = (
"325.28 368.72 OFFCURVE",
"400.63 451.52 OFFCURVE",
"400.63 547.43 CURVE SMOOTH",
"400.63 644.03 OFFCURVE",
"325.28 728.9 OFFCURVE",
"214.38 728.9 CURVE SMOOTH",
"103.48 728.9 OFFCURVE",
"28.12 644.03 OFFCURVE",
"28.12 547.43 CURVE SMOOTH",
"28.12 451.52 OFFCURVE",
"103.48 368.72 OFFCURVE",
"214.38 368.72 CURVE SMOOTH"
);
},
{
closed = 1;
nodes = (
"164.9 441.17 OFFCURVE",
"126.42 475.67 OFFCURVE",
"126.42 547.43 CURVE SMOOTH",
"126.42 619.88 OFFCURVE",
"164.9 654.38 OFFCURVE",
"214.38 654.38 CURVE SMOOTH",
"263.85 654.38 OFFCURVE",
"302.33 619.88 OFFCURVE",
"302.33 547.43 CURVE SMOOTH",
"302.33 475.67 OFFCURVE",
"263.85 441.17 OFFCURVE",
"214.38 441.17 CURVE SMOOTH"
);
}
);
width = 380;
}
);
note = ordmasculine;
unicode = 00BA;
},
{
glyphname = Delta;
layers = (
{
hints = (
{
horizontal = 1;
place = "{0, 131}";
type = Stem;
},
{
place = "{0, 652}";
type = Stem;
}
);
layerId = "6DD95C5A-998B-41AB-BDFB-84A73C209871";
paths = (
{
closed = 1;
nodes = (
"241 700 LINE",
"0 131 LINE",
"0 0 LINE",
"652 0 LINE",
"652 131 LINE",
"411 700 LINE"
);
},
{
closed = 1;
nodes = (
"164.24 131 LINE",
"326 560 LINE",
"487.76 131 LINE"
);
}
);
width = 652;
}
);
note = Delta;
unicode = 0394;
},
{
glyphname = Omega;
layers = (
{
hints = (
{
horizontal = 1;
place = "{0, 110}";
type = Stem;
},
{
horizontal = 1;
place = "{607, 98}";
type = Stem;
},
{
place = "{10, 128}";
type = Stem;
},
{
place = "{620, 128}";
type = Stem;
},
{
place = "{16, 298}";
type = Stem;
},
{
place = "{443, 298}";
type = Stem;
}
);
layerId = "6DD95C5A-998B-41AB-BDFB-84A73C209871";
paths = (
{
closed = 1;
nodes = (
"169 705 OFFCURVE",
"10 544 OFFCURVE",
"10 358 CURVE SMOOTH",
"10 266 OFFCURVE",
"61 173 OFFCURVE",
"135 110 CURVE",
"16 110 LINE",
"16 0 LINE",
"314 0 LINE",
"314 110 LINE",
"205 135 OFFCURVE",
"138 233 OFFCURVE",
"138 358 CURVE SMOOTH",
"138 498 OFFCURVE",
"234 607 OFFCURVE",
"379 607 CURVE SMOOTH",
"525 607 OFFCURVE",
"620 498 OFFCURVE",
"620 358 CURVE SMOOTH",
"620 233 OFFCURVE",
"552 134 OFFCURVE",
"443 110 CURVE",
"443 0 LINE",
"741 0 LINE",
"741 110 LINE",
"626 110 LINE",
"697 174 OFFCURVE",
"748 266 OFFCURVE",
"748 358 CURVE SMOOTH",
"748 544 OFFCURVE",
"589 705 OFFCURVE",
"379 705 CURVE SMOOTH"
);
}
);
width = 758;
}
);
note = Omega;
unicode = 03A9;
},
{
glyphname = mu;
layers = (
{
hints = (
{
horizontal = 1;
place = "{-12, 108}";
type = Stem;
},
{
place = "{22, 154}";
type = Stem;
},
{
place = "{380, 154}";
type = Stem;
}
);
layerId = "6DD95C5A-998B-41AB-BDFB-84A73C209871";
paths = (
{
closed = 1;
nodes = (
"380 -6 LINE",
"534 -6 LINE",
"534 500 LINE",
"380 500 LINE",
"380 250.45 LINE SMOOTH",
"377.18 121.58 OFFCURVE",
"314.48 96 OFFCURVE",
"260 96 CURVE SMOOTH",
"197 96 OFFCURVE",
"176 136 OFFCURVE",
"176 203 CURVE SMOOTH",
"176 500 LINE",
"22 500 LINE",
"22 -200 LINE",
"176 -200 LINE",
"176 -4.7 LINE",
"197.43 -9.42 OFFCURVE",
"221.66 -12 OFFCURVE",
"249 -12 CURVE SMOOTH",
"300.22 -12 OFFCURVE",
"344.74 -0.42 OFFCURVE",
"380 21.79 CURVE"
);
}
);
width = 556;
}
);
note = mu;
unicode = 03BC;
},
{
glyphname = pi;
layers = (
{
hints = (
{
horizontal = 1;
place = "{374, 131}";
type = Stem;
},
{
place = "{88, 160}";
type = Stem;
},
{
place = "{353, 160}";
type = Stem;
}
);
layerId = "6DD95C5A-998B-41AB-BDFB-84A73C209871";
paths = (
{
closed = 1;
nodes = (
"353 -3 LINE",
"513 -3 LINE",
"513 374 LINE",
"604 374 LINE",
"604 505 LINE",
"-1 505 LINE",
"-1 374 LINE",
"88 374 LINE",
"88 -3 LINE",
"248 -3 LINE",
"248 374 LINE",
"353 374 LINE"
);
}
);
width = 600;
}
);
note = pi;
unicode = 03C0;
},
{
glyphname = zero;
layers = (
{
hints = (
{
horizontal = 1;
place = "{-12, 111}";
type = Stem;
},
{
horizontal = 1;
place = "{597, 111}";
type = Stem;
},
{
place = "{35, 155}";
type = Stem;
},
{
place = "{504, 155}";
type = Stem;
}
);
layerId = "6DD95C5A-998B-41AB-BDFB-84A73C209871";
paths = (
{
closed = 1;
nodes = (
"550 -12 OFFCURVE",
"659 140 OFFCURVE",
"659 348 CURVE SMOOTH",
"659 556 OFFCURVE",
"550 708 OFFCURVE",
"346 708 CURVE SMOOTH",
"143 708 OFFCURVE",
"35 556 OFFCURVE",
"35 348 CURVE SMOOTH",
"35 140 OFFCURVE",
"143 -12 OFFCURVE",
"346 -12 CURVE SMOOTH"
);
},
{
closed = 1;
nodes = (
"255 99 OFFCURVE",
"190 185 OFFCURVE",
"190 348 CURVE SMOOTH",
"190 511 OFFCURVE",
"255 597 OFFCURVE",
"346 597 CURVE SMOOTH",
"438 597 OFFCURVE",
"504 511 OFFCURVE",
"504 348 CURVE SMOOTH",
"504 185 OFFCURVE",
"438 99 OFFCURVE",
"346 99 CURVE SMOOTH"
);
}
);
width = 694;
}
);
note = zero;
rightKerningGroup = zero;
unicode = 0030;
},
{
glyphname = one;
layers = (
{
hints = (
{
horizontal = 1;
place = "{537, 91.84}";
type = Stem;
},
{
place = "{174, 154}";
type = Stem;
}
);
layerId = "6DD95C5A-998B-41AB-BDFB-84A73C209871";
paths = (
{
closed = 1;
nodes = (
"174 537 LINE",
"174 0 LINE",
"328 0 LINE",
"328 700 LINE",
"174 700 LINE",
"174 682.17 LINE",
"170.14 647.16 OFFCURVE",
"142.04 628.84 OFFCURVE",
"93.52 628.84 CURVE SMOOTH",
"74.94 628.84 OFFCURVE",
"53.36 631.53 OFFCURVE",
"29 637 CURVE",
"29 537 LINE"
);
}
);
width = 377;
}
);
note = one;
rightKerningGroup = one;
unicode = 0031;
},
{
glyphname = two;
layers = (
{
hints = (
{
horizontal = 1;
place = "{0, 123}";
type = Stem;
},
{
horizontal = 1;
place = "{604, 109}";
type = Stem;
},
{
place = "{363, 153}";
type = Stem;
}
);
layerId = "6DD95C5A-998B-41AB-BDFB-84A73C209871";
paths = (
{
closed = 1;
nodes = (
"197 523 LINE",
"195 573 OFFCURVE",
"215 604 OFFCURVE",
"278 604 CURVE SMOOTH",
"327 604 OFFCURVE",
"364 565 OFFCURVE",
"363 485 CURVE SMOOTH",
"361 293 OFFCURVE",
"83 209 OFFCURVE",
"23 100 CURVE",
"22 0 LINE",
"535 0 LINE",
"535 123 LINE",
"223 123 LINE",
"283.74 201.66 OFFCURVE",
"516.01 274.38 OFFCURVE",
"516.01 493.19 CURVE SMOOTH",
"516.01 617.58 OFFCURVE",
"437.18 713 OFFCURVE",
"277.99 713 CURVE SMOOTH",
"134.55 713 OFFCURVE",
"41.83 634.36 OFFCURVE",
"41.83 535.41 CURVE SMOOTH",
"41.83 526.75 OFFCURVE",
"42.54 517.93 OFFCURVE",
"43.99 509 CURVE"
);
}
);
width = 557;
}
);
note = two;
unicode = 0032;
},
{
glyphname = three;
layers = (
{
hints = (
{
horizontal = 1;
place = "{-10, 108}";
type = Stem;
},
{
horizontal = 1;
place = "{592, 108}";
type = Stem;
},
{
place = "{40.15, 153}";
type = Stem;
},
{
place = "{410.15, 153}";
type = Stem;
}
);
layerId = "6DD95C5A-998B-41AB-BDFB-84A73C209871";
paths = (
{
closed = 1;
nodes = (
"551.15 602 LINE",
"551.15 700 LINE",
"74.15 700 LINE",
"74.15 592 LINE",
"355.15 592 LINE",
"180.15 404 LINE",
"245.15 326 LINE",
"282.15 337 OFFCURVE",
"291.15 340 OFFCURVE",
"312.15 340 CURVE SMOOTH",
"368.15 340 OFFCURVE",
"410.15 301 OFFCURVE",
"410.15 220 CURVE SMOOTH",
"410.15 137 OFFCURVE",
"360.15 98 OFFCURVE",
"302.15 98 CURVE SMOOTH",
"231.15 98 OFFCURVE",
"190.15 130 OFFCURVE",
"193.15 229 CURVE",
"40.15 229 LINE",
"35.15 71 OFFCURVE",
"154.15 -10 OFFCURVE",
"302.15 -10 CURVE SMOOTH",
"435.15 -10 OFFCURVE",
"563.15 80 OFFCURVE",
"563.15 220 CURVE SMOOTH",
"563.15 337 OFFCURVE",
"483.15 411 OFFCURVE",
"383.15 430 CURVE"
);
}
);
width = 603;
}
);
note = three;
rightKerningGroup = three;
unicode = 0033;
},
{
glyphname = four;
layers = (
{
hints = (
{
horizontal = 1;
place = "{186.73, 114.27}";
type = Stem;
},
{
place = "{333, 154}";
type = Stem;
}
);
layerId = "6DD95C5A-998B-41AB-BDFB-84A73C209871";
paths = (
{
closed = 1;
nodes = (
"333 0 LINE",
"487 0 LINE",
"487 186.19 LINE",
"597 186 LINE",
"597 301 LINE",
"487 301 LINE",
"487 700 LINE",
"353 700 LINE",
"31 290 LINE",
"30 187 LINE",
"333 186.46 LINE"
);
},
{
closed = 1;
nodes = (
"333 301 LINE",
"194 301 LINE",
"333 484 LINE"
);
}
);
width = 630;
}
);
note = four;
rightKerningGroup = four;
unicode = 0034;
},
{
glyphname = five;
layers = (
{
hints = (
{
horizontal = 1;
place = "{-10, 108}";
type = Stem;
},
{
horizontal = 1;
place = "{351, 110}";
type = Stem;
},
{
horizontal = 1;
place = "{576, 124}";
type = Stem;
},
{
place = "{103, 134}";
type = Stem;
},
{
place = "{417, 153}";
type = Stem;
},
{
place = "{44, 152}";
type = Stem;
}
);
layerId = "6DD95C5A-998B-41AB-BDFB-84A73C209871";
paths = (
{
closed = 1;
nodes = (
"285 461 OFFCURVE",
"261 457 OFFCURVE",
"237 447 CURVE",
"237 576 LINE",
"534 576 LINE",
"534 700 LINE",
"103 700 LINE",
"103 308 LINE",
"228 308 LINE",
"248 340 OFFCURVE",
"278 351 OFFCURVE",
"304 351 CURVE SMOOTH",
"363 351 OFFCURVE",
"417 316 OFFCURVE",
"417 224 CURVE SMOOTH",
"417 142 OFFCURVE",
"362 98 OFFCURVE",
"304 98 CURVE SMOOTH",
"244 98 OFFCURVE",
"192 140 OFFCURVE",
"196 229 CURVE",
"44 229 LINE",
"37 84 OFFCURVE",
"168 -10 OFFCURVE",
"304 -10 CURVE SMOOTH",
"437 -10 OFFCURVE",
"570 85 OFFCURVE",
"570 224 CURVE SMOOTH",
"570 392 OFFCURVE",
"442 461 OFFCURVE",
"315 461 CURVE SMOOTH"
);
}
);
width = 600;
}
);
note = five;
rightKerningGroup = five;
unicode = 0035;
},
{
glyphname = six;
layers = (
{
hints = (
{
horizontal = 1;
place = "{-10, 109}";
type = Stem;
},
{
horizontal = 1;
place = "{341, 108.3}";
type = Stem;
},
{
place = "{11, 154}";
type = Stem;
},
{
place = "{380, 154}";
type = Stem;
}
);
layerId = "6DD95C5A-998B-41AB-BDFB-84A73C209871";
paths = (
{
closed = 1;
nodes = (
"448 700 LINE",
"272 700 LINE",
"192 571 OFFCURVE",
"104 447 OFFCURVE",
"32 313 CURVE SMOOTH",
"17 285 OFFCURVE",
"11 254.12 OFFCURVE",
"11 220 CURVE SMOOTH",
"11 81 OFFCURVE",
"140 -10 OFFCURVE",
"273 -10 CURVE SMOOTH",
"406 -10 OFFCURVE",
"534 80 OFFCURVE",
"534 220 CURVE SMOOTH",
"534 351.95 OFFCURVE",
"417.75 440.65 OFFCURVE",
"292.18 449.3 CURVE"
);
},
{
closed = 1;
nodes = (
"214 99 OFFCURVE",
"165 137 OFFCURVE",
"165 220 CURVE SMOOTH",
"165 302 OFFCURVE",
"215 341 OFFCURVE",
"273 341 CURVE SMOOTH",
"331 341 OFFCURVE",
"380 303 OFFCURVE",
"380 220 CURVE SMOOTH",
"380 138 OFFCURVE",
"330 99 OFFCURVE",
"272 99 CURVE SMOOTH"
);
}
);
width = 547;
}
);
note = six;
unicode = 0036;
},
{
glyphname = seven;
layers = (
{
hints = (
{
horizontal = 1;
place = "{576, 124}";
type = Stem;
},
{
place = "{14, 503}";
type = Stem;
}
);
layerId = "6DD95C5A-998B-41AB-BDFB-84A73C209871";
paths = (
{
closed = 1;
nodes = (
"293.77 576 LINE",
"14 0 LINE",
"186 0 LINE",
"514.44 696.69 LINE",
"517 700 LINE",
"28 700 LINE",
"28 576 LINE"
);
}
);
width = 504;
}
);
note = seven;
rightKerningGroup = seven;
unicode = 0037;
},
{
glyphname = eight;
layers = (
{
hints = (
{
horizontal = 1;
place = "{-3.52, 104.88}";
type = Stem;
},
{
horizontal = 1;
place = "{338.03, 104.07}";
type = Stem;
},
{
horizontal = 1;
place = "{603.27, 105.26}";
type = Stem;
},
{
place = "{20, 154.45}";
type = Stem;
},
{
place = "{393.77, 154.46}";
type = Stem;
},
{
place = "{59.39, 154.84}";
type = Stem;
},
{
place = "{353.99, 154.85}";
type = Stem;
}
);
layerId = "6DD95C5A-998B-41AB-BDFB-84A73C209871";
paths = (
{
closed = 1;
nodes = (
"484.3 426.26 OFFCURVE",
"508.84 468.96 OFFCURVE",
"508.84 521.68 CURVE SMOOTH",
"508.84 639.85 OFFCURVE",
"386.63 708.53 OFFCURVE",
"283.61 708.53 CURVE SMOOTH",
"180.59 708.53 OFFCURVE",
"59.39 640.86 OFFCURVE",
"59.39 522.69 CURVE SMOOTH",
"59.39 470.13 OFFCURVE",
"83.98 427.33 OFFCURVE",
"120.4 396.11 CURVE",
"60.81 357.48 OFFCURVE",
"20 296.74 OFFCURVE",
"20 220.7 CURVE SMOOTH",
"20 84.35 OFFCURVE",
"150.29 -3.52 OFFCURVE",
"284.62 -3.52 CURVE SMOOTH",
"418.95 -3.52 OFFCURVE",
"548.23 83.34 OFFCURVE",
"548.23 219.69 CURVE SMOOTH",
"548.23 295.44 OFFCURVE",
"507.41 356.32 OFFCURVE",
"447.92 395.24 CURVE"
);
},
{
closed = 1;
nodes = (
"214.23 582.87 OFFCURVE",
"251.98 603.27 OFFCURVE",
"284.62 603.27 CURVE SMOOTH",
"317.27 603.27 OFFCURVE",
"353.99 583.89 OFFCURVE",
"353.99 522.69 CURVE SMOOTH",
"353.99 470.66 OFFCURVE",
"321.35 442.1 OFFCURVE",
"283.6 442.1 CURVE SMOOTH",
"245.86 442.1 OFFCURVE",
"214.23 470.66 OFFCURVE",
"214.23 521.67 CURVE SMOOTH"
);
},
{
closed = 1;
nodes = (
"224.43 101.36 OFFCURVE",
"174.45 139.1 OFFCURVE",
"174.45 219.69 CURVE SMOOTH",
"174.45 299.26 OFFCURVE",
"225.45 338.03 OFFCURVE",
"284.62 338.03 CURVE SMOOTH",
"343.78 338.03 OFFCURVE",
"393.77 300.28 OFFCURVE",
"393.77 220.71 CURVE SMOOTH",
"393.77 139.1 OFFCURVE",
"342.76 101.36 OFFCURVE",
"283.6 101.36 CURVE SMOOTH"
);
}
);
width = 568;
}
);
note = eight;
rightKerningGroup = eight;
unicode = 0038;
},
{
glyphname = nine;
layers = (
{
hints = (
{
horizontal = 1;
place = "{269.16, 104.84}";
type = Stem;
},
{
horizontal = 1;
place = "{607, 105}";
type = Stem;
},
{
place = "{49, 154}";
type = Stem;
},
{
place = "{418, 154}";
type = Stem;
}
);
layerId = "6DD95C5A-998B-41AB-BDFB-84A73C209871";
paths = (
{
closed = 1;
nodes = (
"572 624 OFFCURVE",
"443 712 OFFCURVE",
"310 712 CURVE SMOOTH",
"177 712 OFFCURVE",
"49 625 OFFCURVE",
"49 491 CURVE SMOOTH",
"49 359.39 OFFCURVE",
"171.59 273.4 OFFCURVE",
"300.98 269.16 CURVE",
"134 0 LINE",
"310 0 LINE",
"393 140 OFFCURVE",
"498 270 OFFCURVE",
"560 421 CURVE SMOOTH",
"569 443 OFFCURVE",
"572 465.44 OFFCURVE",
"572 490 CURVE SMOOTH"
);
},
{
closed = 1;
nodes = (
"203 569 OFFCURVE",
"253 607 OFFCURVE",
"311 607 CURVE SMOOTH",
"369 607 OFFCURVE",
"418 569 OFFCURVE",
"418 491 CURVE SMOOTH",
"418 412 OFFCURVE",
"368 374 OFFCURVE",
"310 374 CURVE SMOOTH",
"252 374 OFFCURVE",
"203 411 OFFCURVE",
"203 490 CURVE SMOOTH"
);
}
);
width = 600;
}
);
note = nine;
rightKerningGroup = nine;
unicode = 0039;
},
{
glyphname = fraction;
layers = (
{
hints = (
{
horizontal = 1;
place = "{0, 749}";
type = Stem;
},
{
place = "{26, 740}";
type = Stem;
}
);
layerId = "6DD95C5A-998B-41AB-BDFB-84A73C209871";
paths = (
{
closed = 1;
nodes = (
"603 749 LINE",
"26 0 LINE",
"189 0 LINE",
"766 749 LINE"
);
}
);
width = 784;
}
);
note = fraction;
unicode = 2044;
},
{
glyphname = onehalf;
layers = (
{
hints = (
{
horizontal = 1;
place = "{-1, 103}";
type = Stem;
},
{
horizontal = 1;
place = "{374, 94}";
type = Stem;
},
{
horizontal = 1;
place = "{717, 148}";
type = Stem;
},
{
place = "{119, 151}";
type = Stem;
},
{
place = "{501.44, 151.05}";
type = Stem;
},
{
place = "{700, 151.03}";
type = Stem;
}
);
layerId = "6DD95C5A-998B-41AB-BDFB-84A73C209871";
paths = (
{
closed = 1;
nodes = (
"119 717 LINE",
"119 402 LINE",
"270 402 LINE",
"270 865 LINE",
"116 865 LINE",
"117.4 860.24 OFFCURVE",
"118.4 855.68 OFFCURVE",
"119 851.34 CURVE",
"119 833.07 LINE",
"115.91 814.58 OFFCURVE",
"102.49 803.23 OFFCURVE",
"79.28 803.23 CURVE SMOOTH",
"65.57 803.23 OFFCURVE",
"48.43 807.2 OFFCURVE",
"28 816 CURVE",
"28 717 LINE"
);
},
{
closed = 1;
nodes = (
"605 750 LINE",
"27 2 LINE",
"190 2 LINE",
"767 750 LINE"
);
},
{
closed = 1;
nodes = (
"570.35 468 OFFCURVE",
"501.44 408.68 OFFCURVE",
"501.44 342.43 CURVE SMOOTH",
"501.44 332.71 OFFCURVE",
"502.93 322.85 OFFCURVE",
"506 313 CURVE",
"654 327 LINE",
"653.05 335.78 OFFCURVE",
"652.49 343.04 OFFCURVE",
"652.49 349.01 CURVE SMOOTH",
"652.49 368.18 OFFCURVE",
"658.22 374 OFFCURVE",
"675 374 CURVE SMOOTH",
"693 374 OFFCURVE",
"700 355 OFFCURVE",
"700 325 CURVE SMOOTH",
"698 202 OFFCURVE",
"523 151 OFFCURVE",
"489 73 CURVE",
"488 -1 LINE",
"862 -1 LINE",
"862 102 LINE",
"688 102 LINE",
"749.4 148.55 OFFCURVE",
"851.03 214.72 OFFCURVE",
"851.03 328.68 CURVE SMOOTH",
"851.03 390.35 OFFCURVE",
"807.27 468 OFFCURVE",
"675 468 CURVE SMOOTH"
);
}
);
width = 882;
}
);
note = onehalf;
unicode = 00BD;
},
{
glyphname = onequarter;
layers = (
{
hints = (
{
horizontal = 1;
place = "{89, 97}";
type = Stem;
},
{
horizontal = 1;
place = "{717, 148}";
type = Stem;
},
{
place = "{119, 151}";
type = Stem;
},
{
place = "{606, 151}";
type = Stem;
}
);
layerId = "6DD95C5A-998B-41AB-BDFB-84A73C209871";
paths = (
{
closed = 1;
nodes = (
"119 717 LINE",
"119 402 LINE",
"270 402 LINE",
"270 865 LINE",
"116 865 LINE",
"117.4 860.24 OFFCURVE",
"118.4 855.68 OFFCURVE",
"119 851.34 CURVE",
"119 833.07 LINE",
"115.91 814.58 OFFCURVE",
"102.49 803.23 OFFCURVE",
"79.28 803.23 CURVE SMOOTH",
"65.57 803.23 OFFCURVE",
"48.43 807.2 OFFCURVE",
"28 816 CURVE",
"28 717 LINE"
);
},
{
closed = 1;
nodes = (
"27 2 LINE",
"189 2 LINE",
"767 750 LINE",
"604 750 LINE"
);
},
{
closed = 1;
nodes = (
"757 2 LINE",
"757 89 LINE",
"825.21 89 LINE",
"825.21 186 LINE",
"757 186 LINE",
"757 463.98 LINE",
"638.77 464 LINE",
"389 167 LINE",
"388 89 LINE",
"606 89 LINE",
"606 2 LINE"
);
},
{
closed = 1;
nodes = (
"523.8 186 LINE",
"606 283.3 LINE",
"606 186 LINE"
);
}
);
width = 851;
}
);
note = onequarter;
unicode = 00BC;
},
{
glyphname = threequarters;
layers = (
{
hints = (
{
horizontal = 1;
place = "{88.99, 97}";
type = Stem;
},
{
horizontal = 1;
place = "{396.99, 175}";
type = Stem;
},
{
horizontal = 1;
place = "{770, 94}";
type = Stem;
},
{
place = "{0.1, 150.99}";
type = Stem;
},
{
place = "{230, 151}";
type = Stem;
},
{
place = "{606, 151}";
type = Stem;
}
);
layerId = "6DD95C5A-998B-41AB-BDFB-84A73C209871";
paths = (
{
closed = 1;
nodes = (
"373 789 LINE",
"373 864 LINE",
"22 864 LINE",
"22 770 LINE",
"182 770 LINE",
"86 667 LINE",
"142 602 LINE",
"152 611 OFFCURVE",
"165 622 OFFCURVE",
"191 622 CURVE SMOOTH",
"220 622 OFFCURVE",
"230 599 OFFCURVE",
"230 552 CURVE SMOOTH",
"230 506 OFFCURVE",
"210 490 OFFCURVE",
"191 490 CURVE SMOOTH",
"166.42 490 OFFCURVE",
"151.09 502.32 OFFCURVE",
"151.09 549.97 CURVE SMOOTH",
"151.09 556.6 OFFCURVE",
"151.39 563.92 OFFCURVE",
"152 571.99 CURVE",
"1 571.99 LINE",
"0.39 565.92 OFFCURVE",
"0.1 559.99 OFFCURVE",
"0.1 554.2 CURVE SMOOTH",
"0.1 455.02 OFFCURVE",
"87.07 396.99 OFFCURVE",
"191 396.99 CURVE SMOOTH",
"286 396.99 OFFCURVE",
"381 461.99 OFFCURVE",
"381 551.99 CURVE SMOOTH",
"381 615.99 OFFCURVE",
"336 666.99 OFFCURVE",
"275 688.99 CURVE"
);
},
{
closed = 1;
nodes = (
"604 749.99 LINE",
"27 1.99 LINE",
"189 1.99 LINE",
"766 749.99 LINE"
);
},
{
closed = 1;
nodes = (
"757 1.99 LINE",
"757 88.99 LINE",
"825.21 88.99 LINE",
"825.21 185.99 LINE",
"757 185.99 LINE",
"757 463.98 LINE",
"638.77 463.99 LINE",
"389 166.99 LINE",
"388 88.99 LINE",
"606 88.99 LINE",
"606 1.99 LINE"
);
},
{
closed = 1;
nodes = (
"523.8 185.99 LINE",
"606 283.3 LINE",
"606 185.99 LINE"
);
}
);
width = 851;
}
);
note = threequarters;
unicode = 00BE;
},
{
glyphname = onesuperior;
layers = (
{
hints = (
{
horizontal = 1;
place = "{717, 148}";
type = Stem;
},
{
place = "{119, 151}";
type = Stem;
}
);
layerId = "6DD95C5A-998B-41AB-BDFB-84A73C209871";
paths = (
{
closed = 1;
nodes = (
"119 717 LINE",
"119 402 LINE",
"270 402 LINE",
"270 865 LINE",
"116 865 LINE",
"117.4 860.24 OFFCURVE",
"118.4 855.68 OFFCURVE",
"119 851.34 CURVE",
"119 833.07 LINE",
"115.91 814.58 OFFCURVE",
"102.49 803.23 OFFCURVE",
"79.28 803.23 CURVE SMOOTH",
"65.57 803.23 OFFCURVE",
"48.43 807.2 OFFCURVE",
"28 816 CURVE",
"28 717 LINE"
);
}
);
width = 318;
}
);
note = onesuperior;
unicode = 00B9;
},
{
glyphname = twosuperior;
layers = (
{
hints = (
{
horizontal = 1;
place = "{408, 103}";
type = Stem;
},
{
horizontal = 1;
place = "{783, 94}";
type = Stem;
},
{
place = "{82.44, 151.05}";
type = Stem;
},
{
place = "{281, 151.03}";
type = Stem;
}
);
layerId = "6DD95C5A-998B-41AB-BDFB-84A73C209871";
paths = (
{
closed = 1;
nodes = (
"151.35 877 OFFCURVE",
"82.44 817.68 OFFCURVE",
"82.44 751.43 CURVE SMOOTH",
"82.44 741.71 OFFCURVE",
"83.93 731.85 OFFCURVE",
"87 722 CURVE",
"235 736 LINE",
"234.05 744.78 OFFCURVE",
"233.49 752.04 OFFCURVE",
"233.49 758.01 CURVE SMOOTH",
"233.49 777.18 OFFCURVE",
"239.22 783 OFFCURVE",
"256 783 CURVE SMOOTH",
"274 783 OFFCURVE",
"281 764 OFFCURVE",
"281 734 CURVE SMOOTH",
"279 611 OFFCURVE",
"104 560 OFFCURVE",
"70 482 CURVE",
"69 408 LINE",
"443 408 LINE",
"443 511 LINE",
"269 511 LINE",
"330.4 557.55 OFFCURVE",
"432.03 623.72 OFFCURVE",
"432.03 737.68 CURVE SMOOTH",
"432.03 799.35 OFFCURVE",
"388.27 877 OFFCURVE",
"256 877 CURVE SMOOTH"
);
}
);
width = 473;
}
);
note = twosuperior;
unicode = 00B2;
},
{
glyphname = threesuperior;
layers = (
{
hints = (
{
horizontal = 1;
place = "{396.99, 175}";
type = Stem;
},
{
horizontal = 1;
place = "{770, 94}";
type = Stem;
},
{
place = "{0.1, 150.99}";
type = Stem;
},
{
place = "{230, 151}";
type = Stem;
}
);
layerId = "6DD95C5A-998B-41AB-BDFB-84A73C209871";
paths = (
{
closed = 1;
nodes = (
"373 789 LINE",
"373 864 LINE",
"22 864 LINE",
"22 770 LINE",
"182 770 LINE",
"86 667 LINE",
"142 602 LINE",
"152 611 OFFCURVE",
"165 622 OFFCURVE",
"191 622 CURVE SMOOTH",
"220 622 OFFCURVE",
"230 599 OFFCURVE",
"230 552 CURVE SMOOTH",
"230 506 OFFCURVE",
"210 490 OFFCURVE",
"191 490 CURVE SMOOTH",
"166.42 490 OFFCURVE",
"151.09 502.32 OFFCURVE",
"151.09 549.97 CURVE SMOOTH",
"151.09 556.6 OFFCURVE",
"151.39 563.92 OFFCURVE",
"152 571.99 CURVE",
"1 571.99 LINE",
"0.39 565.92 OFFCURVE",
"0.1 559.99 OFFCURVE",
"0.1 554.2 CURVE SMOOTH",
"0.1 455.02 OFFCURVE",
"87.07 396.99 OFFCURVE",
"191 396.99 CURVE SMOOTH",
"286 396.99 OFFCURVE",
"381 461.99 OFFCURVE",
"381 551.99 CURVE SMOOTH",
"381 615.99 OFFCURVE",
"336 666.99 OFFCURVE",
"275 688.99 CURVE"
);
}
);
width = 391;
}
);
note = threesuperior;
unicode = 00B3;
},
{
glyphname = asterisk;
layers = (
{
hints = (
{
horizontal = 1;
place = "{409, 302}";
type = Stem;
},
{
place = "{271, 36}";
type = Stem;
}
);
layerId = "6DD95C5A-998B-41AB-BDFB-84A73C209871";
paths = (
{
closed = 1;
nodes = (
"427 495 LINE",
"438 532 LINE",
"350.05 560.5 LINE",
"438 589 LINE",
"427 624 LINE",
"337.98 595.15 LINE",
"393 671 LINE",
"362 693 LINE",
"307 617.18 LINE",
"307 711 LINE",
"271 711 LINE",
"271 616.66 LINE",
"215 693 LINE",
"184 671 LINE",
"238.56 596.62 LINE",
"151 625 LINE",
"140 588 LINE",
"227.95 559.5 LINE",
"140 531 LINE",
"151 496 LINE",
"240.02 524.84 LINE",
"185 449 LINE",
"216 427 LINE",
"271 502.82 LINE",
"271 409 LINE",
"307 409 LINE",
"307 503.33 LINE",
"363 427 LINE",
"394 449 LINE",
"339.44 523.37 LINE"
);
}
);
width = 600;
}
);
note = asterisk;
unicode = 002A;
},
{
glyphname = backslash;
layers = (
{
hints = (
{
horizontal = 1;
place = "{-117, 839}";
type = Stem;
},
{
place = "{94, 369}";
type = Stem;
}
);
layerId = "6DD95C5A-998B-41AB-BDFB-84A73C209871";
paths = (
{
closed = 1;
nodes = (
"94 722 LINE",
"343 -117 LINE",
"463 -117 LINE",
"214 722 LINE"
);
}
);
width = 600;
}
);
note = backslash;
rightKerningGroup = backslash;
unicode = 005C;
},
{
glyphname = periodcentered;
layers = (
{
hints = (
{
horizontal = 1;
place = "{224, 148}";
type = Stem;
},
{
place = "{211, 178}";
type = Stem;
}
);
layerId = "6DD95C5A-998B-41AB-BDFB-84A73C209871";
paths = (
{
closed = 1;
nodes = (
"389 224 LINE",
"389 372 LINE",
"211 372 LINE",
"211 224 LINE"
);
}
);
width = 600;
}
);
note = periodcentered;
unicode = 00B7;
},
{
glyphname = bullet;
layers = (
{
hints = (
{
horizontal = 1;
place = "{95, 400}";
type = Stem;
},
{
place = "{85, 430}";
type = Stem;
}
);
layerId = "6DD95C5A-998B-41AB-BDFB-84A73C209871";
paths = (
{
closed = 1;
nodes = (
"419 95 OFFCURVE",
"515 190 OFFCURVE",
"515 295 CURVE SMOOTH",
"515 400 OFFCURVE",
"419 495 OFFCURVE",
"300 495 CURVE SMOOTH",
"181 495 OFFCURVE",
"85 400 OFFCURVE",
"85 295 CURVE SMOOTH",
"85 190 OFFCURVE",
"181 95 OFFCURVE",
"300 95 CURVE SMOOTH"
);
}
);
width = 600;
}
);
note = bullet;
unicode = 2022;
},
{
glyphname = colon;
layers = (
{
hints = (
{
horizontal = 1;
place = "{-1, 149.18}";
type = Stem;
},
{
horizontal = 1;
place = "{398, 148}";
type = Stem;
},
{
place = "{46, 178}";
type = Stem;
}
);
layerId = "6DD95C5A-998B-41AB-BDFB-84A73C209871";
paths = (
{
closed = 1;
nodes = (
"224 398 LINE",
"224 546 LINE",
"46 546 LINE",
"46 398 LINE"
);
},
{
closed = 1;
nodes = (
"224.79 -1 LINE",
"224.79 148.18 LINE",
"45.36 148.18 LINE",
"45.36 -1 LINE"
);
}
);
width = 270;
}
);
note = colon;
unicode = 003A;
},
{
glyphname = comma;
layers = (
{
hints = (
{
horizontal = 1;
place = "{0, 148}";
type = Stem;
},
{
place = "{66, 178}";
type = Stem;
}
);
layerId = "6DD95C5A-998B-41AB-BDFB-84A73C209871";
paths = (
{
closed = 1;
nodes = (
"244 148 LINE",
"66 148 LINE",
"66 0 LINE",
"128 0 LINE",
"128 -38 OFFCURVE",
"124 -80 OFFCURVE",
"83 -95 CURVE",
"83 -169 LINE",
"220 -153 OFFCURVE",
"244 -38 OFFCURVE",
"244 0 CURVE SMOOTH"
);
}
);
width = 380;
}
);
leftKerningGroup = comma;
note = comma;
unicode = 002C;
},
{
glyphname = ellipsis;
layers = (
{
hints = (
{
horizontal = 1;
place = "{0, 148}";
type = Stem;
},
{
place = "{46, 178}";
type = Stem;
},
{
place = "{301, 178}";
type = Stem;
},
{
place = "{548, 178}";
type = Stem;
}
);
layerId = "6DD95C5A-998B-41AB-BDFB-84A73C209871";
paths = (
{
closed = 1;
nodes = (
"224 0 LINE",
"224 148 LINE",
"46 148 LINE",
"46 0 LINE"
);
},
{
closed = 1;
nodes = (
"479 0 LINE",
"479 148 LINE",
"301 148 LINE",
"301 0 LINE"
);
},
{
closed = 1;
nodes = (
"726 0 LINE",
"726 148 LINE",
"548 148 LINE",
"548 0 LINE"
);
}
);
width = 772;
}
);
leftKerningGroup = comma;
note = ellipsis;
unicode = 2026;
},
{
glyphname = exclam;
layers = (
{
hints = (
{
horizontal = 1;
place = "{0, 148}";
type = Stem;
},
{
place = "{66, 177.5}";
type = Stem;
}
);
layerId = "6DD95C5A-998B-41AB-BDFB-84A73C209871";
paths = (
{
closed = 1;
nodes = (
"66 730 LINE",
"66 577 LINE",
"87 198 LINE",
"223 198 LINE",
"243 577 LINE",
"244 730 LINE"
);
},
{
closed = 1;
nodes = (
"244 0 LINE",
"244 148 LINE",
"66 148 LINE",
"66 0 LINE"
);
}
);
width = 310;
}
);
leftKerningGroup = exclam;
note = exclam;
unicode = 0021;
},
{
glyphname = exclamdown;
layers = (
{
hints = (
{
horizontal = 1;
place = "{393, 148}";
type = Stem;
},
{
place = "{66, 177.5}";
type = Stem;
}
);
layerId = "6DD95C5A-998B-41AB-BDFB-84A73C209871";
paths = (
{
closed = 1;
nodes = (
"244 541 LINE",
"66 541 LINE",
"66 393 LINE",
"244 393 LINE"
);
},
{
closed = 1;
nodes = (
"243 -36 LINE",
"223 343 LINE",
"87 343 LINE",
"66 -36 LINE",
"66 -189 LINE",
"244 -189 LINE"
);
}
);
width = 310;
}
);
note = exclamdown;
unicode = 00A1;
},
{
glyphname = numbersign;
layers = (
{
hints = (
{
horizontal = 1;
place = "{169, 120}";
type = Stem;
},
{
horizontal = 1;
place = "{444, 120}";
type = Stem;
},
{
place = "{20.99, 799.01}";
type = Stem;
}
);
layerId = "6DD95C5A-998B-41AB-BDFB-84A73C209871";
paths = (
{
closed = 1;
nodes = (
"750 169 LINE",
"750 289 LINE",
"620.25 289 LINE",
"672.06 444 LINE",
"820 444 LINE",
"820 564 LINE",
"712.16 564 LINE",
"775 752 LINE",
"619 752 LINE",
"555.92 564 LINE",
"407.92 564 LINE",
"471 752 LINE",
"315 752 LINE",
"251.92 564 LINE",
"81 564 LINE",
"81 444 LINE",
"211.65 444 LINE",
"159.64 289 LINE",
"20.99 289 LINE",
"20.99 169 LINE",
"119.37 169 LINE",
"61.99 -2 LINE",
"217.99 -2 LINE",
"275.37 169 LINE",
"423.37 169 LINE",
"365.99 -2 LINE",
"522.99 -2 LINE",
"580.14 169 LINE"
);
},
{
closed = 1;
nodes = (
"463.63 289 LINE",
"315.63 289 LINE",
"367.64 444 LINE",
"515.64 444 LINE"
);
}
);
width = 823;
}
);
note = numbersign;
unicode = 0023;
},
{
glyphname = period;
layers = (
{
hints = (
{
horizontal = 1;
place = "{0, 148}";
type = Stem;
},
{
place = "{46, 178}";
type = Stem;
}
);
layerId = "6DD95C5A-998B-41AB-BDFB-84A73C209871";
paths = (
{
closed = 1;
nodes = (
"224 0 LINE",
"224 148 LINE",
"46 148 LINE",
"46 0 LINE"
);
}
);
width = 296;
}
);
leftKerningGroup = comma;
note = period;
rightKerningGroup = period;
unicode = 002E;
},
{
glyphname = question;
layers = (
{
hints = (
{
horizontal = 1;
place = "{0, 148}";
type = Stem;
},
{
horizontal = 1;
place = "{188, 103.99}";
type = Stem;
},
{
horizontal = 1;
place = "{613, 106.99}";
type = Stem;
},
{
place = "{102, 152}";
type = Stem;
},
{
place = "{355.23, 136.77}";
type = Stem;
},
{
place = "{186, 178}";
type = Stem;
}
);
layerId = "6DD95C5A-998B-41AB-BDFB-84A73C209871";
paths = (
{
closed = 1;
nodes = (
"325 613 OFFCURVE",
"355.23 588 OFFCURVE",
"355.23 551 CURVE SMOOTH",
"355.23 519.34 OFFCURVE",
"320 513 OFFCURVE",
"247 483 CURVE SMOOTH",
"198 462 OFFCURVE",
"102 421 OFFCURVE",
"102 331 CURVE SMOOTH",
"102 239 OFFCURVE",
"192 188 OFFCURVE",
"274 188 CURVE SMOOTH",
"357 188 OFFCURVE",
"416 232 OFFCURVE",
"441 311 CURVE",
"302 355 LINE",
"303.94 345.85 OFFCURVE",
"304.79 337.88 OFFCURVE",
"304.79 330.97 CURVE SMOOTH",
"304.79 302.37 OFFCURVE",
"290.27 291.99 OFFCURVE",
"279 291.99 CURVE SMOOTH",
"265 291.99 OFFCURVE",
"254 302.99 OFFCURVE",
"254 330.99 CURVE SMOOTH",
"254 357.41 OFFCURVE",
"272 377.99 OFFCURVE",
"295 387.99 CURVE SMOOTH",
"352 413.99 OFFCURVE",
"492 442.99 OFFCURVE",
"492 552.99 CURVE SMOOTH",
"492 633.99 OFFCURVE",
"419 719.99 OFFCURVE",
"274 719.99 CURVE SMOOTH",
"168 719.99 OFFCURVE",
"63 660.99 OFFCURVE",
"39 571.99 CURVE",
"166 477.99 LINE",
"168 554.99 OFFCURVE",
"205 612.99 OFFCURVE",
"274 612.99 CURVE SMOOTH"
);
},
{
closed = 1;
nodes = (
"364 -0.01 LINE",
"364 147.99 LINE",
"186 147.99 LINE",
"186 -0.01 LINE"
);
}
);
width = 501;
}
);
leftKerningGroup = question;
note = question;
unicode = 003F;
},
{
glyphname = questiondown;
layers = (
{
hints = (
{
horizontal = 1;
place = "{-215, 107}";
type = Stem;
},
{
horizontal = 1;
place = "{213, 104}";
type = Stem;
},
{
horizontal = 1;
place = "{357, 148}";
type = Stem;
},
{
place = "{137, 178}";
type = Stem;
},
{
place = "{9, 136.76}";
type = Stem;
},
{
place = "{247, 152}";
type = Stem;
}
);
layerId = "6DD95C5A-998B-41AB-BDFB-84A73C209871";
paths = (
{
closed = 1;
nodes = (
"137 505 LINE",
"137 357 LINE",
"315 357 LINE",
"315 505 LINE"
);
},
{
closed = 1;
nodes = (
"176 -108 OFFCURVE",
"145.76 -83 OFFCURVE",
"145.76 -46 CURVE SMOOTH",
"145.76 -14.34 OFFCURVE",
"181 -8 OFFCURVE",
"254 22 CURVE SMOOTH",
"303 43 OFFCURVE",
"399 84 OFFCURVE",
"399 174 CURVE SMOOTH",
"399 266 OFFCURVE",
"309 317 OFFCURVE",
"227 317 CURVE SMOOTH",
"144 317 OFFCURVE",
"85 273 OFFCURVE",
"60 194 CURVE",
"199 150 LINE",
"197.05 159.14 OFFCURVE",
"196.2 167.12 OFFCURVE",
"196.2 174.03 CURVE SMOOTH",
"196.2 202.62 OFFCURVE",
"210.72 213 OFFCURVE",
"222 213 CURVE SMOOTH",
"236 213 OFFCURVE",
"247 202 OFFCURVE",
"247 174 CURVE SMOOTH",
"247 147.59 OFFCURVE",
"229 127 OFFCURVE",
"206 117 CURVE SMOOTH",
"149 91 OFFCURVE",
"9 62 OFFCURVE",
"9 -48 CURVE SMOOTH",
"9 -129 OFFCURVE",
"82 -215 OFFCURVE",
"227 -215 CURVE SMOOTH",
"333 -215 OFFCURVE",
"438 -156 OFFCURVE",
"462 -67 CURVE",
"335 27 LINE",
"333 -50 OFFCURVE",
"296 -108 OFFCURVE",
"227 -108 CURVE SMOOTH"
);
}
);
width = 501;
}
);
note = questiondown;
unicode = 00BF;
},
{
glyphname = quotedbl;
layers = (
{
hints = (
{
horizontal = 1;
place = "{472, 284}";
type = Stem;
},
{
place = "{132, 166}";
type = Stem;
},
{
place = "{346, 166}";
type = Stem;
}
);
layerId = "6DD95C5A-998B-41AB-BDFB-84A73C209871";
paths = (
{
closed = 1;
nodes = (
"292 472 LINE",
"304 756 LINE",
"126 756 LINE",
"138 472 LINE"
);
},
{
closed = 1;
nodes = (
"506 472 LINE",
"518 756 LINE",
"340 756 LINE",
"352 472 LINE"
);
}
);
width = 644;
}
);
note = quotedbl;
unicode = 0022;
},
{
glyphname = quotesingle;
layers = (
{
hints = (
{
horizontal = 1;
place = "{472, 284}";
type = Stem;
},
{
place = "{132, 166}";
type = Stem;
}
);
layerId = "6DD95C5A-998B-41AB-BDFB-84A73C209871";
paths = (
{
closed = 1;
nodes = (
"292 472 LINE",
"304 756 LINE",
"126 756 LINE",
"138 472 LINE"
);
}
);
width = 430;
}
);
note = quotesingle;
rightKerningGroup = quotesingle;
unicode = 0027;
},
{
glyphname = semicolon;
layers = (
{
hints = (
{
horizontal = 1;
place = "{2, 148}";
type = Stem;
},
{
horizontal = 1;
place = "{386, 148}";
type = Stem;
},
{
place = "{71, 178}";
type = Stem;
}
);
layerId = "6DD95C5A-998B-41AB-BDFB-84A73C209871";
paths = (
{
closed = 1;
nodes = (
"249 386 LINE",
"249 534 LINE",
"71 534 LINE",
"71 386 LINE"
);
},
{
closed = 1;
nodes = (
"249 150 LINE",
"71 150 LINE",
"71 2 LINE",
"133 2 LINE",
"133 -36 OFFCURVE",
"129 -78 OFFCURVE",
"88 -93 CURVE",
"88 -167 LINE",
"225 -151 OFFCURVE",
"249 -36 OFFCURVE",
"249 2 CURVE SMOOTH"
);
}
);
width = 385;
}
);
note = semicolon;
unicode = 003B;
},
{
glyphname = slash;
layers = (
{
hints = (
{
horizontal = 1;
place = "{-117, 839}";
type = Stem;
},
{
place = "{37, 369}";
type = Stem;
}
);
layerId = "6DD95C5A-998B-41AB-BDFB-84A73C209871";
paths = (
{
closed = 1;
nodes = (
"406 722 LINE",
"286 722 LINE",
"37 -117 LINE",
"157 -117 LINE"
);
}
);
width = 413;
}
);
note = slash;
unicode = 002F;
},
{
glyphname = underscore;
layers = (
{
hints = (
{
horizontal = 1;
place = "{-185, 126}";
type = Stem;
},
{
place = "{-8, 610}";
type = Stem;
}
);
layerId = "6DD95C5A-998B-41AB-BDFB-84A73C209871";
paths = (
{
closed = 1;
nodes = (
"602 -185 LINE",
"602 -59 LINE",
"-8 -59 LINE",
"-8 -185 LINE"
);
}
);
width = 600;
}
);
note = underscore;
rightKerningGroup = underscore;
unicode = 005F;
},
{
glyphname = braceleft;
layers = (
{
hints = (
{
horizontal = 1;
place = "{-172.08, 107.82}";
type = Stem;
},
{
horizontal = 1;
place = "{244.06, 128.71}";
type = Stem;
},
{
horizontal = 1;
place = "{682.25, 107.77}";
type = Stem;
},
{
place = "{171, 155.99}";
type = Stem;
}
);
layerId = "6DD95C5A-998B-41AB-BDFB-84A73C209871";
paths = (
{
closed = 1;
nodes = (
"384 784 LINE",
"364.39 788.04 OFFCURVE",
"345.88 790.02 OFFCURVE",
"328.58 790.02 CURVE SMOOTH",
"230.29 790.02 OFFCURVE",
"171 726.09 OFFCURVE",
"171 613 CURVE SMOOTH",
"171 518 OFFCURVE",
"234 421 OFFCURVE",
"225 397 CURVE SMOOTH",
"217.38 375.52 OFFCURVE",
"198.72 372.77 OFFCURVE",
"170.68 372.77 CURVE SMOOTH",
"158.25 372.77 OFFCURVE",
"143.97 373.31 OFFCURVE",
"128 373 CURVE",
"128 244 LINE",
"142.83 243.73 OFFCURVE",
"155.92 244.06 OFFCURVE",
"167.35 244.06 CURVE SMOOTH",
"197.52 244.06 OFFCURVE",
"216.02 241.76 OFFCURVE",
"224 220 CURVE SMOOTH",
"233 196 OFFCURVE",
"171 99 OFFCURVE",
"171 4 CURVE SMOOTH",
"171 -108.9 OFFCURVE",
"230.09 -172.08 OFFCURVE",
"328.08 -172.08 CURVE SMOOTH",
"345.53 -172.08 OFFCURVE",
"364.2 -170.08 OFFCURVE",
"384 -166 CURVE",
"384 -59 LINE",
"372.32 -62.54 OFFCURVE",
"363.03 -64.26 OFFCURVE",
"355.64 -64.26 CURVE SMOOTH",
"327.62 -64.26 OFFCURVE",
"327 -39.52 OFFCURVE",
"327 4 CURVE SMOOTH",
"327 75.7 OFFCURVE",
"359.28 144.29 OFFCURVE",
"359.28 207.34 CURVE SMOOTH",
"359.28 224.31 OFFCURVE",
"356.94 240.88 OFFCURVE",
"351 257 CURVE SMOOTH",
"342.57 278.87 OFFCURVE",
"329.01 295.8 OFFCURVE",
"312.49 308.89 CURVE",
"329.15 322 OFFCURVE",
"342.75 339.01 OFFCURVE",
"350.99 361 CURVE SMOOTH",
"356.93 377.12 OFFCURVE",
"359.27 393.69 OFFCURVE",
"359.27 410.65 CURVE SMOOTH",
"359.27 473.66 OFFCURVE",
"326.99 542.09 OFFCURVE",
"326.99 613 CURVE SMOOTH",
"326.99 657.35 OFFCURVE",
"327.62 682.25 OFFCURVE",
"355.69 682.25 CURVE SMOOTH",
"363.07 682.25 OFFCURVE",
"372.34 680.53 OFFCURVE",
"383.98 677 CURVE"
);
}
);
width = 512;
}
);
note = braceleft;
unicode = 007B;
},
{
glyphname = braceright;
layers = (
{
hints = (
{
horizontal = 1;
place = "{-172.08, 107.82}";
type = Stem;
},
{
horizontal = 1;
place = "{244.06, 128.71}";
type = Stem;
},
{
horizontal = 1;
place = "{682.25, 107.77}";
type = Stem;
},
{
place = "{200.99, 156}";
type = Stem;
}
);
layerId = "6DD95C5A-998B-41AB-BDFB-84A73C209871";
paths = (
{
closed = 1;
nodes = (
"144 677 LINE",
"155.65 680.53 OFFCURVE",
"164.92 682.25 OFFCURVE",
"172.29 682.25 CURVE SMOOTH",
"200.37 682.25 OFFCURVE",
"200.99 657.35 OFFCURVE",
"200.99 613 CURVE SMOOTH",
"200.99 542.09 OFFCURVE",
"168.71 473.66 OFFCURVE",
"168.71 410.65 CURVE SMOOTH",
"168.71 393.69 OFFCURVE",
"171.05 377.12 OFFCURVE",
"176.99 361 CURVE SMOOTH",
"185.24 339.01 OFFCURVE",
"198.84 322 OFFCURVE",
"215.49 308.89 CURVE",
"198.98 295.8 OFFCURVE",
"185.41 278.87 OFFCURVE",
"176.99 257 CURVE SMOOTH",
"171.05 240.88 OFFCURVE",
"168.71 224.31 OFFCURVE",
"168.71 207.34 CURVE SMOOTH",
"168.71 144.29 OFFCURVE",
"200.99 75.7 OFFCURVE",
"200.99 4 CURVE SMOOTH",
"200.99 -39.52 OFFCURVE",
"200.36 -64.26 OFFCURVE",
"172.34 -64.26 CURVE SMOOTH",
"164.96 -64.26 OFFCURVE",
"155.67 -62.54 OFFCURVE",
"143.99 -59 CURVE",
"143.99 -166 LINE",
"163.78 -170.08 OFFCURVE",
"182.46 -172.08 OFFCURVE",
"199.9 -172.08 CURVE SMOOTH",
"297.9 -172.08 OFFCURVE",
"356.99 -108.9 OFFCURVE",
"356.99 4 CURVE SMOOTH",
"356.99 99 OFFCURVE",
"294.99 196 OFFCURVE",
"303.99 220 CURVE SMOOTH",
"311.97 241.76 OFFCURVE",
"330.47 244.06 OFFCURVE",
"360.64 244.06 CURVE SMOOTH",
"372.06 244.06 OFFCURVE",
"385.16 243.73 OFFCURVE",
"399.99 244 CURVE",
"399.99 373 LINE",
"384.01 373.31 OFFCURVE",
"369.74 372.77 OFFCURVE",
"357.31 372.77 CURVE SMOOTH",
"329.27 372.77 OFFCURVE",
"310.61 375.52 OFFCURVE",
"302.99 397 CURVE SMOOTH",
"293.99 421 OFFCURVE",
"356.99 518 OFFCURVE",
"356.99 613 CURVE SMOOTH",
"356.99 726.09 OFFCURVE",
"297.7 790.02 OFFCURVE",
"199.4 790.02 CURVE SMOOTH",
"182.1 790.02 OFFCURVE",
"163.59 788.04 OFFCURVE",
"143.98 784 CURVE"
);
}
);
width = 512;
}
);
note = braceright;
unicode = 007D;
},
{
glyphname = bracketleft;
layers = (
{
hints = (
{
horizontal = 1;
place = "{-148, 128}";
type = Stem;
},
{
horizontal = 1;
place = "{683, 128}";
type = Stem;
},
{
place = "{126, 161}";
type = Stem;
}
);
layerId = "6DD95C5A-998B-41AB-BDFB-84A73C209871";
paths = (
{
closed = 1;
nodes = (
"424 -148 LINE",
"424 -20 LINE",
"287 -20 LINE",
"287 683 LINE",
"424 683 LINE",
"424 811 LINE",
"126 811 LINE",
"126 -148 LINE"
);
}
);
width = 500;
}
);
note = bracketleft;
rightKerningGroup = bracketleft;
unicode = 005B;
},
{
glyphname = bracketright;
layers = (
{
hints = (
{
horizontal = 1;
place = "{-148, 128}";
type = Stem;
},
{
horizontal = 1;
place = "{683, 128}";
type = Stem;
},
{
place = "{263, 161}";
type = Stem;
}
);
layerId = "6DD95C5A-998B-41AB-BDFB-84A73C209871";
paths = (
{
closed = 1;
nodes = (
"126 683 LINE",
"263 683 LINE",
"263 -20 LINE",
"126 -20 LINE",
"126 -148 LINE",
"424 -148 LINE",
"424 811 LINE",
"126 811 LINE"
);
}
);
width = 500;
}
);
leftKerningGroup = bracketright;
note = bracketright;
rightKerningGroup = bracketright;
unicode = 005D;
},
{
glyphname = parenleft;
layers = (
{
hints = (
{
horizontal = 1;
place = "{-144, 910}";
type = Stem;
},
{
place = "{58, 170}";
type = Stem;
}
);
layerId = "6DD95C5A-998B-41AB-BDFB-84A73C209871";
paths = (
{
closed = 1;
nodes = (
"223 766 LINE",
"157 681 OFFCURVE",
"61 530 OFFCURVE",
"58 311 CURVE SMOOTH",
"61 101 OFFCURVE",
"157 -49 OFFCURVE",
"222 -144 CURVE",
"371 -144 LINE",
"313 -64 OFFCURVE",
"231 88 OFFCURVE",
"228 309 CURVE",
"231 543 OFFCURVE",
"317 701 OFFCURVE",
"372 766 CURVE"
);
}
);
width = 373;
}
);
note = parenleft;
rightKerningGroup = parenleft;
unicode = 0028;
},
{
glyphname = parenright;
layers = (
{
hints = (
{
horizontal = 1;
place = "{-144, 910}";
type = Stem;
},
{
place = "{145, 170}";
type = Stem;
}
);
layerId = "6DD95C5A-998B-41AB-BDFB-84A73C209871";
paths = (
{
closed = 1;
nodes = (
"1 766 LINE",
"56 701 OFFCURVE",
"142 543 OFFCURVE",
"145 309 CURVE SMOOTH",
"142 88 OFFCURVE",
"60 -64 OFFCURVE",
"2 -144 CURVE",
"151 -144 LINE",
"216 -49 OFFCURVE",
"312 101 OFFCURVE",
"315 311 CURVE",
"312 530 OFFCURVE",
"216 681 OFFCURVE",
"150 766 CURVE"
);
}
);
width = 373;
}
);
leftKerningGroup = parenright;
note = parenright;
unicode = 0029;
},
{
glyphname = emdash;
layers = (
{
hints = (
{
horizontal = 1;
place = "{252, 116}";
type = Stem;
},
{
place = "{-3, 605}";
type = Stem;
}
);
layerId = "6DD95C5A-998B-41AB-BDFB-84A73C209871";
paths = (
{
closed = 1;
nodes = (
"602 252 LINE",
"602 368 LINE",
"-3 368 LINE",
"-3 252 LINE"
);
}
);
width = 600;
}
);
note = emdash;
unicode = 2014;
},
{
glyphname = endash;
layers = (
{
hints = (
{
horizontal = 1;
place = "{252, 116}";
type = Stem;
},
{
place = "{62, 475}";
type = Stem;
}
);
layerId = "6DD95C5A-998B-41AB-BDFB-84A73C209871";
paths = (
{
closed = 1;
nodes = (
"537 252 LINE",
"537 368 LINE",
"62 368 LINE",
"62 252 LINE"
);
}
);
width = 600;
}
);
note = endash;
unicode = 2013;
},
{
glyphname = hyphen;
layers = (
{
hints = (
{
horizontal = 1;
place = "{202, 116}";
type = Stem;
},
{
place = "{29, 459}";
type = Stem;
}
);
layerId = "6DD95C5A-998B-41AB-BDFB-84A73C209871";
paths = (
{
closed = 1;
nodes = (
"488 202 LINE",
"488 318 LINE",
"29 318 LINE",
"29 202 LINE"
);
}
);
width = 517;
}
);
note = hyphen;
unicode = 002D;
},
{
glyphname = softhyphen;
layers = (
{
hints = (
{
horizontal = 1;
place = "{202, 116}";
type = Stem;
},
{
place = "{29, 459}";
type = Stem;
}
);
layerId = "6DD95C5A-998B-41AB-BDFB-84A73C209871";
paths = (
{
closed = 1;
nodes = (
"488 202 LINE",
"488 318 LINE",
"29 318 LINE",
"29 202 LINE"
);
}
);
width = 600;
}
);
note = softhyphen;
unicode = 00AD;
},
{
glyphname = guillemotleft;
layers = (
{
hints = (
{
horizontal = 1;
place = "{26, 481}";
type = Stem;
},
{
place = "{12, 484.61}";
type = Stem;
}
);
layerId = "6DD95C5A-998B-41AB-BDFB-84A73C209871";
paths = (
{
closed = 1;
nodes = (
"12 267 LINE",
"198 26 LINE",
"294 91 LINE",
"166 267 LINE",
"294 443 LINE",
"197 507 LINE"
);
},
{
closed = 1;
nodes = (
"240.27 266.7 LINE",
"409.35 47.63 LINE",
"496.61 106.72 LINE",
"380.26 266.7 LINE",
"496.61 426.69 LINE",
"408.44 484.86 LINE"
);
}
);
width = 527;
}
);
note = guillemotleft;
unicode = 00AB;
},
{
glyphname = guillemotright;
layers = (
{
hints = (
{
horizontal = 1;
place = "{26, 481}";
type = Stem;
},
{
place = "{29.39, 484.61}";
type = Stem;
}
);
layerId = "6DD95C5A-998B-41AB-BDFB-84A73C209871";
paths = (
{
closed = 1;
nodes = (
"232 443 LINE",
"360 267 LINE",
"232 91 LINE",
"328 26 LINE",
"514 267 LINE",
"329 507 LINE"
);
},
{
closed = 1;
nodes = (
"29.39 426.68 LINE",
"145.74 266.7 LINE",
"29.39 106.71 LINE",
"116.65 47.63 LINE",
"285.73 266.7 LINE",
"117.56 484.86 LINE"
);
}
);
width = 526;
}
);
note = guillemotright;
unicode = 00BB;
},
{
glyphname = guilsinglleft;
layers = (
{
hints = (
{
horizontal = 1;
place = "{26, 481}";
type = Stem;
},
{
place = "{-3, 282}";
type = Stem;
}
);
layerId = "6DD95C5A-998B-41AB-BDFB-84A73C209871";
paths = (
{
closed = 1;
nodes = (
"-3 267 LINE",
"183 26 LINE",
"279 91 LINE",
"151 267 LINE",
"279 443 LINE",
"182 507 LINE"
);
}
);
width = 347;
}
);
note = guilsinglleft;
unicode = 2039;
},
{
glyphname = guilsinglright;
layers = (
{
hints = (
{
horizontal = 1;
place = "{26, 481}";
type = Stem;
},
{
place = "{68, 282}";
type = Stem;
}
);
layerId = "6DD95C5A-998B-41AB-BDFB-84A73C209871";
paths = (
{
closed = 1;
nodes = (
"68 443 LINE",
"196 267 LINE",
"68 91 LINE",
"164 26 LINE",
"350 267 LINE",
"165 507 LINE"
);
}
);
width = 352;
}
);
note = guilsinglright;
unicode = 203A;
},
{
glyphname = quotedblbase;
layers = (
{
hints = (
{
horizontal = 1;
place = "{0, 148}";
type = Stem;
},
{
place = "{66, 178}";
type = Stem;
},
{
place = "{329, 178}";
type = Stem;
}
);
layerId = "6DD95C5A-998B-41AB-BDFB-84A73C209871";
paths = (
{
closed = 1;
nodes = (
"244 148 LINE",
"66 148 LINE",
"66 0 LINE",
"128 0 LINE",
"128 -38 OFFCURVE",
"124 -80 OFFCURVE",
"83 -95 CURVE",
"83 -169 LINE",
"220 -153 OFFCURVE",
"244 -38 OFFCURVE",
"244 0 CURVE SMOOTH"
);
},
{
closed = 1;
nodes = (
"507 148 LINE",
"329 148 LINE",
"329 0 LINE",
"391 0 LINE",
"391 -38 OFFCURVE",
"387 -80 OFFCURVE",
"346 -95 CURVE",
"346 -169 LINE",
"483 -153 OFFCURVE",
"507 -38 OFFCURVE",
"507 0 CURVE SMOOTH"
);
}
);
width = 600;
}
);
note = quotedblbase;
rightKerningGroup = quotedblbase;
unicode = 201E;
},
{
glyphname = quotedblleft;
layers = (
{
hints = (
{
horizontal = 1;
place = "{484, 148}";
type = Stem;
},
{
place = "{66, 178}";
type = Stem;
},
{
place = "{304, 178}";
type = Stem;
}
);
layerId = "6DD95C5A-998B-41AB-BDFB-84A73C209871";
paths = (
{
closed = 1;
nodes = (
"227 801 LINE",
"90 785 OFFCURVE",
"66 670 OFFCURVE",
"66 632 CURVE SMOOTH",
"66 484 LINE",
"244 484 LINE",
"244 632 LINE",
"182 632 LINE",
"182 670 OFFCURVE",
"186 712 OFFCURVE",
"227 727 CURVE"
);
},
{
closed = 1;
nodes = (
"482 484 LINE",
"482 632 LINE",
"420 632 LINE",
"420 670 OFFCURVE",
"424 712 OFFCURVE",
"465 727 CURVE",
"465 801 LINE",
"328 785 OFFCURVE",
"304 670 OFFCURVE",
"304 632 CURVE SMOOTH",
"304 484 LINE"
);
}
);
width = 548;
}
);
leftKerningGroup = quotedblleft;
note = quotedblleft;
rightKerningGroup = quotedblleft;
unicode = 201C;
},
{
glyphname = quotedblright;
layers = (
{
hints = (
{
horizontal = 1;
place = "{649, 148}";
type = Stem;
},
{
place = "{66, 178}";
type = Stem;
},
{
place = "{304, 178}";
type = Stem;
}
);
layerId = "6DD95C5A-998B-41AB-BDFB-84A73C209871";
paths = (
{
closed = 1;
nodes = (
"244 797 LINE",
"66 797 LINE",
"66 649 LINE",
"128 649 LINE",
"128 611 OFFCURVE",
"124 569 OFFCURVE",
"83 554 CURVE",
"83 480 LINE",
"220 496 OFFCURVE",
"244 611 OFFCURVE",
"244 649 CURVE SMOOTH"
);
},
{
closed = 1;
nodes = (
"482 797 LINE",
"304 797 LINE",
"304 649 LINE",
"366 649 LINE",
"366 611 OFFCURVE",
"362 569 OFFCURVE",
"321 554 CURVE",
"321 480 LINE",
"458 496 OFFCURVE",
"482 611 OFFCURVE",
"482 649 CURVE SMOOTH"
);
}
);
width = 548;
}
);
leftKerningGroup = quotedblright;
note = quotedblright;
unicode = 201D;
},
{
glyphname = quoteleft;
layers = (
{
hints = (
{
horizontal = 1;
place = "{486, 148}";
type = Stem;
},
{
place = "{66, 178}";
type = Stem;
}
);
layerId = "6DD95C5A-998B-41AB-BDFB-84A73C209871";
paths = (
{
closed = 1;
nodes = (
"83 729 LINE",
"124 714 OFFCURVE",
"128 672 OFFCURVE",
"128 634 CURVE",
"66 634 LINE",
"66 486 LINE",
"244 486 LINE",
"244 634 LINE SMOOTH",
"244 672 OFFCURVE",
"220 787 OFFCURVE",
"83 803 CURVE"
);
}
);
width = 310;
}
);
leftKerningGroup = quoteleft;
note = quoteleft;
rightKerningGroup = quoteleft;
unicode = 2018;
},
{
glyphname = quoteright;
layers = (
{
hints = (
{
horizontal = 1;
place = "{661, 148}";
type = Stem;
},
{
place = "{66, 178}";
type = Stem;
}
);
layerId = "6DD95C5A-998B-41AB-BDFB-84A73C209871";
paths = (
{
closed = 1;
nodes = (
"244 809 LINE",
"66 809 LINE",
"66 661 LINE",
"128 661 LINE",
"128 623 OFFCURVE",
"124 581 OFFCURVE",
"83 566 CURVE",
"83 492 LINE",
"220 508 OFFCURVE",
"244 623 OFFCURVE",
"244 661 CURVE SMOOTH"
);
}
);
width = 310;
}
);
note = quoteright;
unicode = 2019;
},
{
glyphname = quotesinglbase;
layers = (
{
hints = (
{
horizontal = 1;
place = "{0, 148}";
type = Stem;
},
{
place = "{66, 178}";
type = Stem;
}
);
layerId = "6DD95C5A-998B-41AB-BDFB-84A73C209871";
paths = (
{
closed = 1;
nodes = (
"244 148 LINE",
"66 148 LINE",
"66 0 LINE",
"128 0 LINE",
"128 -38 OFFCURVE",
"124 -80 OFFCURVE",
"83 -95 CURVE",
"83 -169 LINE",
"220 -153 OFFCURVE",
"244 -38 OFFCURVE",
"244 0 CURVE SMOOTH"
);
}
);
width = 600;
}
);
note = quotesinglbase;
rightKerningGroup = quotesinglbase;
unicode = 201A;
},
{
glyphname = cent;
layers = (
{
hints = (
{
horizontal = 1;
place = "{85.36, 106.34}";
type = Stem;
},
{
place = "{30.01, 144}";
type = Stem;
},
{
place = "{296.01, 43.99}";
type = Stem;
}
);
layerId = "6DD95C5A-998B-41AB-BDFB-84A73C209871";
paths = (
{
closed = 1;
nodes = (
"447.13 299.82 LINE",
"430.65 240.88 OFFCURVE",
"403.17 201.43 OFFCURVE",
"340 192.79 CURVE",
"340 501.05 LINE",
"388.79 492.38 OFFCURVE",
"432.01 455.28 OFFCURVE",
"432.01 399.68 CURVE",
"565 462 LINE",
"538.61 544 OFFCURVE",
"458.03 601.12 OFFCURVE",
"340.01 607.42 CURVE",
"340.01 700 LINE",
"296.01 700 LINE",
"296.01 607.4 LINE",
"143.04 598.99 OFFCURVE",
"30.01 502.4 OFFCURVE",
"30.01 342 CURVE SMOOTH",
"30.01 181.08 OFFCURVE",
"155.36 91.65 OFFCURVE",
"296.01 85.36 CURVE",
"296.01 0 LINE",
"340.01 0 LINE",
"340.01 85.8 LINE",
"457.68 92.69 OFFCURVE",
"538.05 144.28 OFFCURVE",
"581.12 246.63 CURVE"
);
},
{
closed = 1;
nodes = (
"174.01 437.18 OFFCURVE",
"226.59 492.09 OFFCURVE",
"296.01 501.54 CURVE",
"296.01 191.7 LINE",
"216.33 198.79 OFFCURVE",
"174.01 259.41 OFFCURVE",
"174.01 342 CURVE SMOOTH"
);
}
);
width = 549;
}
);
note = cent;
unicode = 00A2;
},
{
glyphname = currency;
layers = (
{
hints = (
{
horizontal = 1;
place = "{105.58, 98.63}";
type = Stem;
},
{
horizontal = 1;
place = "{488.77, 98.65}";
type = Stem;
},
{
place = "{72.39, 98.64}";
type = Stem;
},
{
place = "{455.59, 98.65}";
type = Stem;
}
);
layerId = "6DD95C5A-998B-41AB-BDFB-84A73C209871";
paths = (
{
closed = 1;
nodes = (
"505.55 88.01 LINE",
"578.08 162.54 LINE",
"518.91 220.12 LINE",
"541.34 256.77 OFFCURVE",
"554.24 300.01 OFFCURVE",
"554.24 346.5 CURVE SMOOTH",
"554.24 394.95 OFFCURVE",
"540.24 439.87 OFFCURVE",
"516.03 477.48 CURVE",
"578.01 537.56 LINE",
"505.62 612.23 LINE",
"442.06 550.62 LINE",
"404.91 573.96 OFFCURVE",
"360.81 587.42 OFFCURVE",
"313.31 587.42 CURVE SMOOTH",
"264.45 587.42 OFFCURVE",
"219.17 573.17 OFFCURVE",
"181.36 548.57 CURVE",
"116.01 612.17 LINE",
"43.48 537.63 LINE",
"108.58 474.28 LINE",
"85.62 437.33 OFFCURVE",
"72.39 393.58 OFFCURVE",
"72.39 346.5 CURVE SMOOTH",
"72.39 302.23 OFFCURVE",
"84.2 259.53 OFFCURVE",
"105.68 222.69 CURVE",
"43.6 162.65 LINE",
"115.89 87.89 LINE",
"176.51 146.5 LINE",
"214.17 120.88 OFFCURVE",
"260.59 105.58 OFFCURVE",
"313.31 105.58 CURVE SMOOTH",
"362.77 105.58 OFFCURVE",
"408.56 120.17 OFFCURVE",
"446.64 145.32 CURVE"
);
},
{
closed = 1;
nodes = (
"227.97 204.21 OFFCURVE",
"171.03 269.53 OFFCURVE",
"171.03 346.49 CURVE SMOOTH",
"171.03 424.55 OFFCURVE",
"235.25 488.77 OFFCURVE",
"313.31 488.77 CURVE SMOOTH",
"391.37 488.77 OFFCURVE",
"455.59 424.55 OFFCURVE",
"455.59 346.49 CURVE SMOOTH",
"455.59 268.43 OFFCURVE",
"391.37 204.21 OFFCURVE",
"313.31 204.21 CURVE SMOOTH"
);
}
);
width = 600;
}
);
note = currency;
unicode = 00A4;
},
{
glyphname = dollar;
layers = (
{
hints = (
{
horizontal = 1;
place = "{-101.01, 905.01}";
type = Stem;
},
{
place = "{255.99, 50.67}";
type = Stem;
},
{
place = "{436.98, 149}";
type = Stem;
},
{
place = "{334.73, 50.69}";
type = Stem;
},
{
horizontal = 1;
place = "{598.99, 110.01}";
type = Stem;
},
{
horizontal = 1;
place = "{-8.01, 119}";
type = Stem;
},
{
place = "{70.99, 149.99}";
type = Stem;
}
);
layerId = "6DD95C5A-998B-41AB-BDFB-84A73C209871";
paths = (
{
closed = 1;
nodes = (
"586 320.33 OFFCURVE",
"472.82 372.67 OFFCURVE",
"385.44 405.57 CURVE",
"385.44 579.55 LINE",
"403.47 564.77 OFFCURVE",
"413.3 541.26 OFFCURVE",
"416.99 507.99 CURVE",
"557.99 543.99 LINE",
"549.19 627.99 OFFCURVE",
"475.12 683.19 OFFCURVE",
"385.43 701.91 CURVE",
"385.43 804 LINE",
"334.75 804 LINE",
"334.75 708.49 LINE",
"328.52 708.83 OFFCURVE",
"322.26 709 OFFCURVE",
"315.99 709 CURVE SMOOTH",
"312.87 709 OFFCURVE",
"309.77 708.96 OFFCURVE",
"306.68 708.89 CURVE",
"306.68 804 LINE",
"255.99 804 LINE",
"255.99 704.42 LINE",
"148.18 687.33 OFFCURVE",
"70.99 622.92 OFFCURVE",
"70.99 521 CURVE SMOOTH",
"70.99 420.17 OFFCURVE",
"138.66 372.15 OFFCURVE",
"255.99 328.22 CURVE",
"255.99 118.89 LINE",
"193.87 136.47 OFFCURVE",
"163.95 183.29 OFFCURVE",
"136.99 258 CURVE",
"11.99 195 LINE",
"43.31 98.43 OFFCURVE",
"120.04 16.25 OFFCURVE",
"255.99 -3.5 CURVE",
"255.99 -101.01 LINE",
"306.68 -101.01 LINE",
"306.68 -7.8 LINE",
"311.39 -7.94 OFFCURVE",
"316.16 -8.01 OFFCURVE",
"320.99 -8.01 CURVE SMOOTH",
"325.63 -8.01 OFFCURVE",
"330.22 -7.94 OFFCURVE",
"334.74 -7.82 CURVE",
"334.74 -101.01 LINE",
"385.43 -101.01 LINE",
"385.43 -3.53 LINE",
"517.39 15.91 OFFCURVE",
"585.99 97.12 OFFCURVE",
"585.98 209.99 CURVE"
);
},
{
closed = 1;
nodes = (
"322.61 598.99 OFFCURVE",
"328.85 598.7 OFFCURVE",
"334.74 598.11 CURVE",
"334.74 424.21 LINE",
"324.69 428.01 OFFCURVE",
"315.34 431.71 OFFCURVE",
"306.67 435.35 CURVE",
"306.67 598.68 LINE",
"309.72 598.89 OFFCURVE",
"312.83 598.99 OFFCURVE",
"315.98 598.99 CURVE SMOOTH"
);
},
{
closed = 1;
nodes = (
"220.98 547.87 OFFCURVE",
"234.39 569.52 OFFCURVE",
"255.98 583.13 CURVE",
"255.98 461.59 LINE",
"232.31 477.93 OFFCURVE",
"220.98 496.09 OFFCURVE",
"220.98 520.99 CURVE SMOOTH"
);
},
{
closed = 1;
nodes = (
"316.07 110.99 OFFCURVE",
"311.3 111.09 OFFCURVE",
"306.66 111.3 CURVE",
"306.66 310.31 LINE",
"316.43 306.94 OFFCURVE",
"325.81 303.65 OFFCURVE",
"334.73 300.34 CURVE",
"334.73 111.29 LINE",
"330.27 111.09 OFFCURVE",
"325.68 110.99 OFFCURVE",
"320.98 110.99 CURVE SMOOTH"
);
},
{
closed = 1;
nodes = (
"385.42 277.98 LINE",
"417.74 259.87 OFFCURVE",
"436.98 237.1 OFFCURVE",
"436.98 199.99 CURVE SMOOTH",
"436.98 157.01 OFFCURVE",
"418.32 132.27 OFFCURVE",
"385.42 120.23 CURVE"
);
}
);
width = 572;
}
);
note = dollar;
unicode = 0024;
},
{
glyphname = Euro;
layers = (
{
hints = (
{
horizontal = 1;
place = "{-5, 115}";
type = Stem;
},
{
horizontal = 1;
place = "{215, 93}";
type = Stem;
},
{
horizontal = 1;
place = "{360, 93}";
type = Stem;
},
{
horizontal = 1;
place = "{590, 115}";
type = Stem;
},
{
place = "{22, 786.01}";
type = Stem;
},
{
place = "{133, 164}";
type = Stem;
}
);
layerId = "6DD95C5A-998B-41AB-BDFB-84A73C209871";
paths = (
{
closed = 1;
nodes = (
"423.34 110 OFFCURVE",
"362 149.38 OFFCURVE",
"327.41 215 CURVE",
"561 215 LINE",
"561 308 LINE",
"299.35 308 LINE",
"297.8 320.87 OFFCURVE",
"297 334.22 OFFCURVE",
"297 348 CURVE SMOOTH",
"297 352.03 OFFCURVE",
"297.07 356.03 OFFCURVE",
"297.21 360 CURVE",
"561.01 360 LINE",
"561.01 453 LINE",
"314.47 453 LINE",
"345.19 537.54 OFFCURVE",
"413.6 590 OFFCURVE",
"497.01 590 CURVE SMOOTH",
"572.01 590 OFFCURVE",
"631.01 556 OFFCURVE",
"673.01 477 CURVE",
"808.01 545 LINE",
"753.01 637 OFFCURVE",
"638.01 705 OFFCURVE",
"497.01 705 CURVE SMOOTH",
"318.88 705 OFFCURVE",
"190.58 595.52 OFFCURVE",
"148.19 453 CURVE",
"22.01 453 LINE",
"22.01 360 LINE",
"133.2 360 LINE",
"133.07 356.01 OFFCURVE",
"133 352.01 OFFCURVE",
"133 348 CURVE SMOOTH",
"133 334.53 OFFCURVE",
"133.75 321.18 OFFCURVE",
"135.22 308 CURVE",
"22 308 LINE",
"22 215 LINE",
"158.63 215 LINE",
"209.55 88.53 OFFCURVE",
"332.87 -5 OFFCURVE",
"497 -5 CURVE SMOOTH",
"637 -5 OFFCURVE",
"752 61 OFFCURVE",
"806 151 CURVE",
"670 217 LINE",
"628 142 OFFCURVE",
"570 110 OFFCURVE",
"497 110 CURVE SMOOTH"
);
}
);
width = 784;
}
);
note = Euro;
unicode = 20AC;
},
{
glyphname = florin;
layers = (
{
hints = (
{
horizontal = 1;
place = "{308, 117}";
type = Stem;
},
{
horizontal = 1;
place = "{616, 105}";
type = Stem;
},
{
place = "{-29, 608}";
type = Stem;
}
);
layerId = "6DD95C5A-998B-41AB-BDFB-84A73C209871";
paths = (
{
closed = 1;
nodes = (
"194 721 OFFCURVE",
"164 575 OFFCURVE",
"149 522 CURVE SMOOTH",
"123.61 425 LINE",
"7 425 LINE",
"7 308 LINE",
"92.98 308 LINE",
"-29 -158 LINE",
"124 -158 LINE",
"246.19 308 LINE",
"415 308 LINE",
"415 425 LINE",
"276.87 425 LINE",
"301 517 LINE SMOOTH",
"315 569 OFFCURVE",
"333 616 OFFCURVE",
"380 616 CURVE SMOOTH",
"412 616 OFFCURVE",
"459 565 OFFCURVE",
"466 541 CURVE",
"579 624 LINE",
"560 652 OFFCURVE",
"508 721 OFFCURVE",
"380 721 CURVE SMOOTH"
);
}
);
width = 583;
}
);
note = florin;
unicode = 0192;
},
{
glyphname = sterling;
layers = (
{
hints = (
{
horizontal = 1;
place = "{0, 125}";
type = Stem;
},
{
horizontal = 1;
place = "{311, 117}";
type = Stem;
},
{
horizontal = 1;
place = "{618, 105}";
type = Stem;
},
{
place = "{150, 153}";
type = Stem;
}
);
layerId = "6DD95C5A-998B-41AB-BDFB-84A73C209871";
paths = (
{
closed = 1;
nodes = (
"55 125 LINE",
"55 0 LINE",
"569 0 LINE",
"569 125 LINE",
"276.89 125 LINE",
"296.67 162.58 OFFCURVE",
"303 205.19 OFFCURVE",
"303 241 CURVE SMOOTH",
"303 311 LINE",
"411 311 LINE",
"411 428 LINE",
"303 428 LINE",
"303 522 LINE SMOOTH",
"303 572 OFFCURVE",
"316 618 OFFCURVE",
"362 618 CURVE SMOOTH",
"413 618 OFFCURVE",
"428 586 OFFCURVE",
"440 543 CURVE",
"561 626 LINE",
"541 654 OFFCURVE",
"490 723 OFFCURVE",
"362 723 CURVE SMOOTH",
"176 723 OFFCURVE",
"150 580 OFFCURVE",
"150 522 CURVE SMOOTH",
"150 428 LINE",
"71 428 LINE",
"71 311 LINE",
"150 311 LINE",
"150 241 LINE SMOOTH",
"150 144.87 OFFCURVE",
"132.23 126.02 OFFCURVE",
"79.97 125 CURVE SMOOTH"
);
}
);
width = 581;
}
);
note = sterling;
unicode = 00A3;
},
{
glyphname = yen;
layers = (
{
hints = (
{
horizontal = 1;
place = "{143.36, 87.87}";
type = Stem;
},
{
horizontal = 1;
place = "{282.3, 87.86}";
type = Stem;
},
{
place = "{274, 154}";
type = Stem;
}
);
layerId = "6DD95C5A-998B-41AB-BDFB-84A73C209871";
paths = (
{
closed = 1;
nodes = (
"553.9 370.16 LINE",
"469.06 370.16 LINE",
"683 700 LINE",
"525 700 LINE",
"351.38 420.77 LINE",
"178 700 LINE",
"20 700 LINE",
"233.12 370.16 LINE",
"137.65 370.16 LINE",
"137.65 282.3 LINE",
"274 282.3 LINE",
"274 231.23 LINE",
"137.65 231.23 LINE",
"137.65 143.36 LINE",
"274 143.36 LINE",
"274 0 LINE",
"428 0 LINE",
"428 143.36 LINE",
"553.9 143.36 LINE",
"553.9 231.23 LINE",
"428 231.23 LINE",
"428 282.3 LINE",
"553.9 282.3 LINE"
);
}
);
width = 703;
}
);
note = yen;
unicode = 00A5;
},
{
glyphname = approxequal;
layers = (
{
hints = (
{
horizontal = 1;
place = "{78.01, 176}";
type = Stem;
},
{
horizontal = 1;
place = "{301.01, 175.99}";
type = Stem;
},
{
place = "{24.76, 129.47}";
type = Stem;
},
{
place = "{438.81, 130.43}";
type = Stem;
},
{
horizontal = 1;
place = "{324.01, 175.99}";
type = Stem;
},
{
horizontal = 1;
place = "{101.01, 176}";
type = Stem;
}
);
layerId = "6DD95C5A-998B-41AB-BDFB-84A73C209871";
paths = (
{
closed = 1;
nodes = (
"431 477 LINE",
"436.33 463.52 OFFCURVE",
"438.81 450.54 OFFCURVE",
"438.81 439.06 CURVE SMOOTH",
"438.81 413.91 OFFCURVE",
"426.91 396 OFFCURVE",
"407 396 CURVE SMOOTH",
"376 396 OFFCURVE",
"347 427 OFFCURVE",
"311 453 CURVE SMOOTH",
"283 473 OFFCURVE",
"235 500 OFFCURVE",
"179 500 CURVE SMOOTH",
"52.51 500 OFFCURVE",
"24.76 424.77 OFFCURVE",
"24.76 370.98 CURVE SMOOTH",
"24.76 350.35 OFFCURVE",
"28.84 332.88 OFFCURVE",
"33 324.01 CURVE",
"162 324.01 LINE",
"156.71 334.29 OFFCURVE",
"154.23 346.02 OFFCURVE",
"154.23 357.31 CURVE SMOOTH",
"154.23 382.25 OFFCURVE",
"166.35 405.01 OFFCURVE",
"187 405.01 CURVE SMOOTH",
"224 405.01 OFFCURVE",
"248 374.01 OFFCURVE",
"284 348.01 CURVE SMOOTH",
"312 328.01 OFFCURVE",
"359 301.01 OFFCURVE",
"415 301.01 CURVE SMOOTH",
"541.49 301.01 OFFCURVE",
"569.24 376.24 OFFCURVE",
"569.24 430.03 CURVE SMOOTH",
"569.24 450.66 OFFCURVE",
"565.16 468.13 OFFCURVE",
"561.01 477 CURVE"
);
},
{
closed = 1;
nodes = (
"431.01 254 LINE",
"436.34 240.53 OFFCURVE",
"438.82 227.54 OFFCURVE",
"438.82 216.06 CURVE SMOOTH",
"438.82 190.92 OFFCURVE",
"426.92 173.01 OFFCURVE",
"407.01 173.01 CURVE SMOOTH",
"376.01 173.01 OFFCURVE",
"347.01 204.01 OFFCURVE",
"311.01 230.01 CURVE SMOOTH",
"283.01 250.01 OFFCURVE",
"235.01 277.01 OFFCURVE",
"179.01 277.01 CURVE SMOOTH",
"52.52 277.01 OFFCURVE",
"24.77 201.78 OFFCURVE",
"24.77 147.99 CURVE SMOOTH",
"24.77 127.36 OFFCURVE",
"28.85 109.88 OFFCURVE",
"33.01 101.01 CURVE",
"162.01 101.01 LINE",
"156.72 111.29 OFFCURVE",
"154.24 123.03 OFFCURVE",
"154.24 134.31 CURVE SMOOTH",
"154.24 159.26 OFFCURVE",
"166.36 182.01 OFFCURVE",
"187.01 182.01 CURVE SMOOTH",
"224.01 182.01 OFFCURVE",
"248.01 151.01 OFFCURVE",
"284.01 125.01 CURVE SMOOTH",
"312.01 105.01 OFFCURVE",
"359.01 78.01 OFFCURVE",
"415.01 78.01 CURVE SMOOTH",
"541.5 78.01 OFFCURVE",
"569.25 153.24 OFFCURVE",
"569.25 207.03 CURVE SMOOTH",
"569.25 227.66 OFFCURVE",
"565.17 245.14 OFFCURVE",
"561.02 254.01 CURVE"
);
}
);
width = 600;
}
);
note = approxequal;
unicode = 2248;
},
{
glyphname = asciitilde;
layers = (
{
hints = (
{
horizontal = 1;
place = "{211, 175.99}";
type = Stem;
},
{
place = "{24.76, 129.47}";
type = Stem;
},
{
place = "{438.81, 130.43}";
type = Stem;
},
{
horizontal = 1;
place = "{234, 175.99}";
type = Stem;
}
);
layerId = "6DD95C5A-998B-41AB-BDFB-84A73C209871";
paths = (
{
closed = 1;
nodes = (
"431 387 LINE",
"436.33 373.52 OFFCURVE",
"438.81 360.54 OFFCURVE",
"438.81 349.06 CURVE SMOOTH",
"438.81 323.91 OFFCURVE",
"426.91 306 OFFCURVE",
"407 306 CURVE SMOOTH",
"376 306 OFFCURVE",
"347 337 OFFCURVE",
"311 363 CURVE SMOOTH",
"283 383 OFFCURVE",
"235 410 OFFCURVE",
"179 410 CURVE SMOOTH",
"52.51 410 OFFCURVE",
"24.76 334.77 OFFCURVE",
"24.76 280.98 CURVE SMOOTH",
"24.76 260.35 OFFCURVE",
"28.84 242.88 OFFCURVE",
"33 234.01 CURVE",
"162 234.01 LINE",
"156.71 244.29 OFFCURVE",
"154.23 256.02 OFFCURVE",
"154.23 267.31 CURVE SMOOTH",
"154.23 292.25 OFFCURVE",
"166.35 315.01 OFFCURVE",
"187 315.01 CURVE SMOOTH",
"224 315.01 OFFCURVE",
"248 284.01 OFFCURVE",
"284 258.01 CURVE SMOOTH",
"312 238.01 OFFCURVE",
"359 211.01 OFFCURVE",
"415 211.01 CURVE SMOOTH",
"541.49 211.01 OFFCURVE",
"569.24 286.24 OFFCURVE",
"569.24 340.03 CURVE SMOOTH",
"569.24 360.66 OFFCURVE",
"565.16 378.13 OFFCURVE",
"561.01 387 CURVE"
);
}
);
width = 600;
}
);
note = asciitilde;
unicode = 007E;
},
{
glyphname = divide;
layers = (
{
hints = (
{
horizontal = 1;
place = "{-1, 149.18}";
type = Stem;
},
{
horizontal = 1;
place = "{202, 116}";
type = Stem;
},
{
horizontal = 1;
place = "{398, 148}";
type = Stem;
},
{
place = "{208, 178}";
type = Stem;
}
);
layerId = "6DD95C5A-998B-41AB-BDFB-84A73C209871";
paths = (
{
closed = 1;
nodes = (
"386 398 LINE",
"386 546 LINE",
"208 546 LINE",
"208 398 LINE"
);
},
{
closed = 1;
nodes = (
"561 202 LINE",
"561 318 LINE",
"34 318 LINE",
"34 202 LINE"
);
},
{
closed = 1;
nodes = (
"386.79 -1 LINE",
"386.79 148.18 LINE",
"207.36 148.18 LINE",
"207.36 -1 LINE"
);
}
);
width = 600;
}
);
note = divide;
unicode = 00F7;
},
{
glyphname = equal;
layers = (
{
hints = (
{
horizontal = 1;
place = "{114, 117}";
type = Stem;
},
{
horizontal = 1;
place = "{299, 117}";
type = Stem;
},
{
place = "{21, 555}";
type = Stem;
}
);
layerId = "6DD95C5A-998B-41AB-BDFB-84A73C209871";
paths = (
{
closed = 1;
nodes = (
"21 416 LINE",
"21 299 LINE",
"576 299 LINE",
"576 416 LINE"
);
},
{
closed = 1;
nodes = (
"21 231 LINE",
"21 114 LINE",
"576 114 LINE",
"576 231 LINE"
);
}
);
width = 600;
}
);
note = equal;
unicode = 003D;
},
{
glyphname = greater;
layers = (
{
hints = (
{
horizontal = 1;
place = "{14, 625}";
type = Stem;
},
{
place = "{28, 569}";
type = Stem;
}
);
layerId = "6DD95C5A-998B-41AB-BDFB-84A73C209871";
paths = (
{
closed = 1;
nodes = (
"28 639 LINE",
"28 489 LINE",
"348 327 LINE",
"28 165 LINE",
"28 14 LINE",
"597 327 LINE"
);
}
);
width = 600;
}
);
note = greater;
unicode = 003E;
},
{
glyphname = greaterequal;
layers = (
{
hints = (
{
horizontal = 1;
place = "{0, 117}";
type = Stem;
},
{
place = "{7, 569}";
type = Stem;
}
);
layerId = "6DD95C5A-998B-41AB-BDFB-84A73C209871";
paths = (
{
closed = 1;
nodes = (
"7 764 LINE",
"7 614 LINE",
"327 452 LINE",
"7 290 LINE",
"7 139 LINE",
"576 452 LINE"
);
},
{
closed = 1;
nodes = (
"9 0 LINE",
"574 0 LINE",
"574 117 LINE",
"9 117 LINE"
);
}
);
width = 600;
}
);
note = greaterequal;
unicode = 2265;
},
{
glyphname = infinity;
layers = (
{
hints = (
{
horizontal = 1;
place = "{138, 124.01}";
type = Stem;
},
{
horizontal = 1;
place = "{429, 124}";
type = Stem;
},
{
place = "{17, 134}";
type = Stem;
},
{
place = "{707, 134}";
type = Stem;
}
);
layerId = "6DD95C5A-998B-41AB-BDFB-84A73C209871";
paths = (
{
closed = 1;
nodes = (
"557.45 553 OFFCURVE",
"491.1 503.96 OFFCURVE",
"432.51 445.98 CURVE",
"370.87 503.98 OFFCURVE",
"300.24 553 OFFCURVE",
"215 553 CURVE SMOOTH",
"82 553 OFFCURVE",
"17 437 OFFCURVE",
"17 345 CURVE SMOOTH",
"17 253 OFFCURVE",
"81 138 OFFCURVE",
"214 138 CURVE SMOOTH",
"293.17 138 OFFCURVE",
"369.75 189.93 OFFCURVE",
"430.4 244.31 CURVE",
"488.28 190.37 OFFCURVE",
"563.87 138 OFFCURVE",
"642 138 CURVE SMOOTH",
"775 138 OFFCURVE",
"841 254 OFFCURVE",
"841 346 CURVE SMOOTH",
"841 438 OFFCURVE",
"776 553 OFFCURVE",
"643 553 CURVE SMOOTH"
);
},
{
closed = 1;
nodes = (
"179 262 OFFCURVE",
"151 295 OFFCURVE",
"151 346 CURVE SMOOTH",
"151 397 OFFCURVE",
"179 429 OFFCURVE",
"214 429 CURVE SMOOTH",
"261.06 429 OFFCURVE",
"295.21 395.79 OFFCURVE",
"337.71 345.32 CURVE",
"303.58 308.95 OFFCURVE",
"260.18 262.01 OFFCURVE",
"215 262.01 CURVE SMOOTH"
);
},
{
closed = 1;
nodes = (
"607.08 262.01 OFFCURVE",
"570.27 303.11 OFFCURVE",
"530.03 345.61 CURVE",
"579.18 399.43 OFFCURVE",
"606.43 429.01 OFFCURVE",
"642 429.01 CURVE SMOOTH",
"686 429.01 OFFCURVE",
"707 389.01 OFFCURVE",
"707 345.01 CURVE SMOOTH",
"707 302.01 OFFCURVE",
"687 262.01 OFFCURVE",
"643 262.01 CURVE SMOOTH"
);
}
);
width = 858;
}
);
note = infinity;
unicode = 221E;
},
{
glyphname = integral;
layers = (
{
hints = (
{
horizontal = 1;
place = "{-225.24, 170.24}";
type = Stem;
},
{
horizontal = 1;
place = "{609, 165.42}";
type = Stem;
},
{
place = "{60.58, 143.72}";
type = Stem;
},
{
place = "{239.07, 171.44}";
type = Stem;
},
{
place = "{140.88, 159.35}";
type = Stem;
},
{
place = "{334.03, 141.59}";
type = Stem;
}
);
layerId = "6DD95C5A-998B-41AB-BDFB-84A73C209871";
paths = (
{
closed = 1;
nodes = (
"65 -55 LINE",
"62.23 -64.9 OFFCURVE",
"60.74 -75.37 OFFCURVE",
"60.58 -86.06 CURVE SMOOTH",
"59.55 -151.55 OFFCURVE",
"107.93 -225.24 OFFCURVE",
"212.04 -225.24 CURVE SMOOTH",
"219.72 -225.24 OFFCURVE",
"227.71 -224.84 OFFCURVE",
"236 -224.01 CURVE SMOOTH",
"363.49 -210.12 OFFCURVE",
"410.51 -115.78 OFFCURVE",
"410.51 18.05 CURVE SMOOTH",
"410.51 96.27 OFFCURVE",
"394.45 187.98 OFFCURVE",
"369 284.99 CURVE SMOOTH",
"335.45 414.72 OFFCURVE",
"300.23 561.12 OFFCURVE",
"300.23 628.88 CURVE SMOOTH",
"300.23 652.01 OFFCURVE",
"304.33 665.97 OFFCURVE",
"314 666.99 CURVE",
"329.42 666.99 OFFCURVE",
"334.03 646.84 OFFCURVE",
"334.03 628.94 CURVE SMOOTH",
"334.03 621.3 OFFCURVE",
"333.19 614.08 OFFCURVE",
"332 609 CURVE",
"475 609 LINE",
"475.39 613.02 OFFCURVE",
"475.6 617.15 OFFCURVE",
"475.62 621.36 CURVE SMOOTH",
"476.02 687.73 OFFCURVE",
"430.55 774.42 OFFCURVE",
"324.22 774.42 CURVE SMOOTH",
"316.47 774.42 OFFCURVE",
"308.4 773.96 OFFCURVE",
"300 773 CURVE SMOOTH",
"177.82 760.41 OFFCURVE",
"140.88 677.16 OFFCURVE",
"140.88 571.97 CURVE SMOOTH",
"140.88 476.57 OFFCURVE",
"171.26 363.12 OFFCURVE",
"195.99 268 CURVE SMOOTH",
"227.94 140.76 OFFCURVE",
"239.07 38.15 OFFCURVE",
"239.07 -29.04 CURVE SMOOTH",
"239.07 -85.96 OFFCURVE",
"231.08 -117.46 OFFCURVE",
"220.99 -117 CURVE",
"208.05 -117.46 OFFCURVE",
"204.3 -106.82 OFFCURVE",
"204.3 -94.05 CURVE SMOOTH",
"204.3 -79.19 OFFCURVE",
"209.38 -61.45 OFFCURVE",
"211 -55 CURVE"
);
}
);
width = 600;
}
);
note = integral;
unicode = 222B;
},
{
glyphname = less;
layers = (
{
hints = (
{
horizontal = 1;
place = "{14, 625}";
type = Stem;
},
{
place = "{5, 569}";
type = Stem;
}
);
layerId = "6DD95C5A-998B-41AB-BDFB-84A73C209871";
paths = (
{
closed = 1;
nodes = (
"574 14 LINE",
"574 165 LINE",
"254 327 LINE",
"574 489 LINE",
"574 639 LINE",
"5 327 LINE"
);
}
);
width = 600;
}
);
note = less;
unicode = 003C;
},
{
glyphname = lessequal;
layers = (
{
hints = (
{
horizontal = 1;
place = "{0, 117}";
type = Stem;
},
{
place = "{5, 569}";
type = Stem;
}
);
layerId = "6DD95C5A-998B-41AB-BDFB-84A73C209871";
paths = (
{
closed = 1;
nodes = (
"574 139 LINE",
"574 290 LINE",
"254 452 LINE",
"574 614 LINE",
"574 764 LINE",
"5 452 LINE"
);
},
{
closed = 1;
nodes = (
"572 0 LINE",
"572 117 LINE",
"7 117 LINE",
"7 0 LINE"
);
}
);
width = 600;
}
);
note = lessequal;
unicode = 2264;
},
{
glyphname = logicalnot;
layers = (
{
hints = (
{
horizontal = 1;
place = "{249, 117}";
type = Stem;
},
{
place = "{503, 160}";
type = Stem;
}
);
layerId = "6DD95C5A-998B-41AB-BDFB-84A73C209871";
paths = (
{
closed = 1;
nodes = (
"22 249 LINE",
"503 249 LINE",
"503 46 LINE",
"663 46 LINE",
"663 366 LINE",
"22 366 LINE"
);
}
);
width = 667;
}
);
note = logicalnot;
unicode = 00AC;
},
{
glyphname = minus;
layers = (
{
hints = (
{
horizontal = 1;
place = "{241, 126}";
type = Stem;
},
{
place = "{34, 752}";
type = Stem;
}
);
layerId = "6DD95C5A-998B-41AB-BDFB-84A73C209871";
paths = (
{
closed = 1;
nodes = (
"34 367 LINE",
"34 241 LINE",
"786 241 LINE",
"786 367 LINE"
);
}
);
width = 820;
}
);
note = minus;
unicode = 2212;
},
{
glyphname = multiply;
layers = (
{
hints = (
{
horizontal = 1;
place = "{-14, 594}";
type = Stem;
},
{
place = "{14, 592}";
type = Stem;
}
);
layerId = "6DD95C5A-998B-41AB-BDFB-84A73C209871";
paths = (
{
closed = 1;
nodes = (
"15 80 LINE",
"105 -14 LINE",
"309.79 190.79 LINE",
"512 -11 LINE",
"606 80 LINE",
"402.5 283.5 LINE",
"605 486 LINE",
"515 580 LINE",
"310.5 375.5 LINE",
"106 580 LINE",
"14 486 LINE",
"217.7 282.7 LINE"
);
}
);
width = 600;
}
);
note = multiply;
unicode = 00D7;
},
